<?xml version="1.0" standalone="no"?>
<!DOCTYPE svg PUBLIC "-//W3C//DTD SVG 1.1//EN" "http://www.w3.org/Graphics/SVG/1.1/DTD/svg11.dtd" >
<svg xmlns="http://www.w3.org/2000/svg" xmlns:xlink="http://www.w3.org/1999/xlink" version="1.1">
<metadata>
Created by FontForge 20160407 at Tue Oct 25 13:10:53 2016
 By Jimmy Warting
2005 Albert-Jan Pool published by FSI FontShop International GmbH
</metadata>
<defs>
<font id="DINPro-LightItalic" horiz-adv-x="497" >
  <font-face 
    font-family="DIN Pro Light"
    font-weight="300"
    font-style="italic"
    font-stretch="normal"
    units-per-em="1000"
    panose-1="2 11 5 4 2 1 1 1 1 2"
    ascent="800"
    descent="-200"
    x-height="482"
    cap-height="712"
    bbox="-143 -236 1206 1126"
    underline-thickness="36"
    underline-position="-140"
    slope="-11.31"
    stemh="42"
    stemv="48"
    unicode-range="U+000D-FEFF"
  />
<missing-glyph horiz-adv-x="531" 
d="M44 0v712h443v-712h-443zM80 36h371v640h-371v-640z" />
    <glyph glyph-name=".notdef" horiz-adv-x="531" 
d="M44 0v712h443v-712h-443zM80 36h371v640h-371v-640z" />
    <glyph glyph-name=".null" horiz-adv-x="0" 
 />
    <glyph glyph-name=".null" horiz-adv-x="0" 
 />
    <glyph glyph-name="CR" unicode="&#xd;" horiz-adv-x="242" 
 />
    <glyph glyph-name="space" unicode=" " horiz-adv-x="242" 
 />
    <glyph glyph-name="exclam" unicode="!" horiz-adv-x="289" 
d="M277 712l-107 -525h-47l101 525h53zM157 67l-13 -67h-64l14 67h63z" />
    <glyph glyph-name="quotedbl" unicode="&#x22;" horiz-adv-x="388" 
d="M244 712l-31 -156h-60l32 156h59zM392 712l-32 -156h-59l31 156h60z" />
    <glyph glyph-name="numbersign" unicode="#" horiz-adv-x="611" 
d="M611 482l-9 -42h-94l-57 -159h95l-8 -41h-101l-84 -240h-49l84 240h-168l-83 -240h-50l84 240h-91l8 41h97l57 159h-98l9 42h102l81 230h50l-81 -230h168l80 230h49l-80 -230h89zM459 440h-168l-57 -159h168z" />
    <glyph glyph-name="dollar" unicode="$" horiz-adv-x="558" 
d="M543 638l-37 -32c-31 35 -65 62 -128 67l-56 -296l24 -5c100 -21 151 -72 151 -167c0 -128 -110 -206 -248 -211l-20 -108h-43l21 109c-79 5 -132 34 -184 97l40 35c40 -52 85 -82 152 -87l57 300c-95 18 -158 61 -158 158c0 84 60 212 229 220l17 88h43l-17 -89
c59 -5 112 -27 157 -79zM445 205c0 88 -54 110 -132 126l-55 -292c107 9 187 73 187 166zM281 387l54 286c-106 -10 -170 -92 -170 -177c0 -71 58 -97 116 -109z" />
    <glyph glyph-name="percent" unicode="%" horiz-adv-x="793" 
d="M729 267c0 -12 -1 -25 -3 -35l-21 -105c-16 -80 -60 -133 -148 -133c-71 0 -106 42 -106 101c0 12 1 25 3 35l21 105c16 80 60 133 148 133c71 0 106 -42 106 -101zM687 265c0 41 -18 67 -69 67c-62 0 -91 -45 -102 -100l-20 -100c-2 -10 -3 -23 -3 -35
c0 -41 18 -67 69 -67c62 0 91 45 102 100l20 100c2 10 3 23 3 35zM670 712l-457 -712h-44l457 712h44zM388 618c0 -12 -1 -25 -3 -35l-21 -105c-16 -80 -60 -133 -148 -133c-71 0 -106 42 -106 101c0 12 1 25 3 35l21 105c16 80 60 133 148 133c71 0 106 -42 106 -101z
M346 616c0 41 -18 67 -69 67c-62 0 -91 -45 -102 -100l-20 -100c-2 -10 -3 -23 -3 -35c0 -41 18 -67 69 -67c62 0 91 45 102 100l20 100c2 10 3 23 3 35z" />
    <glyph glyph-name="ampersand" unicode="&#x26;" horiz-adv-x="710" 
d="M609 341c-11 -83 -35 -150 -100 -219l75 -122h-62l-51 85c-36 -34 -118 -91 -224 -91c-107 0 -180 64 -180 166c0 123 80 185 204 261l-5 8c-17 28 -43 71 -43 126c0 81 55 163 162 163c72 0 120 -50 120 -122c0 -58 -31 -106 -108 -153l-57 -35l144 -244
c39 45 61 92 74 177h51zM446 125l-152 256c-109 -67 -175 -118 -175 -219c0 -72 51 -123 128 -123c56 0 127 21 199 86zM455 596c0 53 -35 77 -73 77c-61 0 -107 -49 -107 -120c0 -27 12 -58 42 -107l44 27c52 32 94 63 94 123z" />
    <glyph glyph-name="quotesingle" unicode="'" horiz-adv-x="240" 
d="M244 712l-31 -156h-60l32 156h59z" />
    <glyph glyph-name="parenleft" unicode="(" horiz-adv-x="270" 
d="M311 769c-35 -29 -50 -44 -62 -62c-14 -21 -23 -39 -29 -70l-108 -542c-4 -19 -7 -41 -7 -55c0 -21 5 -54 45 -101l-36 -33c-52 59 -58 101 -58 125c0 18 1 34 8 68l109 544c6 29 13 54 34 86c18 27 50 56 76 77z" />
    <glyph glyph-name="parenright" unicode=")" horiz-adv-x="270" 
d="M256 681c0 -18 -1 -34 -8 -68l-109 -544c-6 -29 -13 -54 -34 -86c-18 -27 -50 -56 -76 -77l-28 37c35 29 50 44 62 62c14 21 23 39 29 70l108 542c4 19 7 41 7 55c0 21 -5 54 -45 101l36 33c52 -59 58 -101 58 -125z" />
    <glyph glyph-name="asterisk" unicode="*" horiz-adv-x="444" 
d="M446 577l-128 -40l102 -86l-27 -32l-98 91l-24 -132l-42 8l29 131l-125 -46l-14 40l128 40l-102 86l27 32l98 -91l24 132l42 -8l-29 -131l125 46z" />
    <glyph glyph-name="plus" unicode="+" horiz-adv-x="488" 
d="M447 285l-9 -44h-170l-36 -182h-45l36 182h-172l8 44h173l37 182h44l-36 -182h170z" />
    <glyph glyph-name="comma" unicode="," horiz-adv-x="245" 
d="M120 68l-27 -136l-78 -68l41 204h64z" />
    <glyph glyph-name="hyphen" unicode="-" horiz-adv-x="405" 
d="M336 286l-9 -45h-249l9 45h249z" />
    <glyph glyph-name="period" unicode="." horiz-adv-x="251" 
d="M127 74l-14 -74h-71l15 74h70z" />
    <glyph glyph-name="slash" unicode="/" horiz-adv-x="323" 
d="M432 786l-442 -860h-53l443 860h52z" />
    <glyph glyph-name="zero" unicode="0" horiz-adv-x="488" 
d="M483 569c0 -15 -2 -32 -5 -46l-66 -334c-31 -159 -142 -195 -213 -195c-69 0 -147 39 -147 149c0 15 2 32 5 46l66 334c31 159 142 195 213 195c69 0 147 -39 147 -149zM435 570c0 76 -50 106 -98 106c-66 0 -144 -40 -166 -153l-65 -334c-3 -14 -6 -30 -6 -47
c0 -76 50 -106 98 -106c66 0 144 40 166 153l65 334c3 14 6 30 6 47z" />
    <glyph glyph-name="one" unicode="1" horiz-adv-x="488" 
d="M392 712l-143 -712h-48l131 653l-148 -114l12 63l147 110h49z" />
    <glyph glyph-name="two" unicode="2" horiz-adv-x="488" 
d="M487 560c0 -80 -38 -130 -84 -180l-312 -338h302l-8 -42h-364l9 42l343 374c44 48 65 86 65 145c0 75 -40 115 -107 115c-71 0 -136 -39 -158 -142h-50c24 122 103 184 208 184c96 0 156 -56 156 -158z" />
    <glyph glyph-name="three" unicode="3" horiz-adv-x="488" 
d="M471 570c0 -93 -47 -176 -131 -204c55 -19 82 -64 82 -131c0 -115 -79 -242 -231 -242c-116 0 -163 67 -163 152c0 6 0 15 1 24h47c-1 -7 -1 -13 -1 -21c0 -65 39 -113 116 -113c106 0 182 92 182 201c0 72 -38 107 -121 107h-14l8 42h15c98 0 162 86 162 186
c0 63 -38 106 -110 106c-73 0 -134 -54 -155 -129h-51c33 117 115 171 212 171c91 0 152 -53 152 -149z" />
    <glyph glyph-name="four" unicode="4" horiz-adv-x="488" 
d="M440 162l-9 -42h-93l-24 -120h-48l24 120h-270l8 42l354 550h53l-353 -550h216l44 222h49l-44 -222h93z" />
    <glyph glyph-name="five" unicode="5" horiz-adv-x="488" 
d="M506 712l-9 -42h-282l-51 -253c38 37 77 51 136 51c97 0 139 -65 139 -144c0 -30 -4 -61 -10 -91c-15 -81 -36 -142 -78 -184c-35 -35 -82 -56 -142 -56c-117 0 -153 70 -153 142c0 3 0 12 1 22h48c-1 -8 -1 -15 -1 -22c0 -58 34 -100 100 -100c118 0 157 91 177 198
c5 28 9 58 9 85c0 62 -23 108 -96 108c-58 0 -111 -21 -145 -78h-41l73 364h325z" />
    <glyph glyph-name="six" unicode="6" horiz-adv-x="488" 
d="M418 220c0 -131 -94 -226 -196 -226c-121 0 -167 87 -167 174c0 60 18 106 72 187l238 357h51l-219 -329c17 7 34 13 60 13c104 0 161 -75 161 -176zM369 220c0 72 -39 134 -113 134c-108 0 -153 -111 -153 -184c0 -72 39 -134 113 -134c100 0 153 97 153 184z" />
    <glyph glyph-name="seven" unicode="7" horiz-adv-x="488" 
d="M533 712l-8 -42l-367 -670h-53l368 670h-260l-21 -107h-48l29 149h360z" />
    <glyph glyph-name="eight" unicode="8" horiz-adv-x="488" 
d="M484 566c0 -88 -47 -165 -128 -199c53 -37 75 -80 75 -147c0 -108 -71 -226 -226 -226c-84 0 -166 51 -166 164c0 100 48 175 146 215c-39 27 -64 65 -64 120c0 130 91 225 210 225c86 0 153 -57 153 -152zM383 223c0 80 -51 124 -120 124c-108 0 -176 -85 -176 -187
c0 -80 51 -124 120 -124c110 0 176 83 176 187zM436 566c0 67 -40 110 -108 110c-104 0 -159 -96 -159 -176c0 -67 40 -110 108 -110c104 0 159 96 159 176z" />
    <glyph glyph-name="nine" unicode="9" horiz-adv-x="488" 
d="M479 544c0 -60 -18 -106 -72 -187l-238 -357h-51l219 329c-17 -7 -34 -13 -60 -13c-104 0 -161 75 -161 176c0 131 94 226 196 226c121 0 167 -87 167 -174zM431 542c0 72 -39 134 -113 134c-100 0 -153 -97 -153 -184c0 -72 39 -134 113 -134c108 0 153 111 153 184z
" />
    <glyph glyph-name="colon" unicode=":" horiz-adv-x="277" 
d="M213 386l-15 -74h-70l15 74h70zM155 74l-15 -74h-70l15 74h70z" />
    <glyph glyph-name="semicolon" unicode=";" horiz-adv-x="277" 
d="M152 68l-27 -136l-78 -68l40 204h65zM215 386l-15 -74h-70l15 74h70z" />
    <glyph glyph-name="less" unicode="&#x3c;" horiz-adv-x="488" 
d="M413 447l-10 -54l-259 -130l209 -130l-10 -48l-251 159l9 45z" />
    <glyph glyph-name="equal" unicode="=" horiz-adv-x="488" 
d="M461 359l-9 -44h-387l9 44h387zM433 211l-9 -44h-387l9 44h387z" />
    <glyph glyph-name="greater" unicode="&#x3e;" horiz-adv-x="488" 
d="M411 279l-9 -45l-312 -158l10 54l259 130l-209 130l10 48z" />
    <glyph glyph-name="question" unicode="?" horiz-adv-x="465" 
d="M480 576c0 -61 -28 -106 -68 -154l-106 -125c-16 -19 -27 -46 -30 -61l-11 -50h-49l11 50c8 39 19 59 46 91l104 124c36 42 54 74 54 124c0 54 -34 100 -101 100c-71 0 -129 -49 -146 -129h-50c20 102 93 172 204 172c76 0 142 -52 142 -142zM256 67l-12 -67h-64l13 67
h63z" />
    <glyph glyph-name="at" unicode="@" horiz-adv-x="662" 
d="M647 555c0 -14 -4 -40 -6 -53l-100 -502h-48l12 59c-42 -52 -86 -66 -143 -66c-94 0 -138 65 -138 145c0 30 4 62 12 103c18 88 38 143 72 183c36 42 92 65 146 65c61 0 102 -30 122 -70l18 91c4 20 6 36 6 50c0 29 -6 50 -21 70c-21 29 -51 43 -102 43h-123
c-47 0 -85 -14 -117 -42c-33 -29 -49 -62 -61 -121l-71 -353c-4 -21 -7 -41 -7 -57c0 -30 15 -52 42 -74l-35 -31c-38 34 -55 59 -55 105c0 15 4 41 7 57l69 350c17 85 42 121 79 154c34 30 90 51 146 51h137c58 0 102 -20 129 -56c18 -25 30 -55 30 -101zM554 340
c0 46 -17 107 -97 107c-112 0 -148 -89 -173 -206c-8 -37 -13 -73 -13 -99c0 -46 17 -107 97 -107c112 0 148 89 173 206c8 37 13 73 13 99z" />
    <glyph glyph-name="A" unicode="A" horiz-adv-x="572" 
d="M510 0h-53l-25 173h-314l-94 -173h-57l390 712h46zM427 218l-60 422l-226 -422h286z" />
    <glyph glyph-name="B" unicode="B" horiz-adv-x="639" 
d="M608 553c0 -61 -27 -151 -138 -189c57 -25 88 -70 88 -139c0 -132 -94 -225 -226 -225h-276l143 712h233c161 0 176 -106 176 -159zM506 225c0 77 -50 116 -126 116h-204l-59 -296h213c102 0 176 74 176 180zM556 555c0 53 -24 112 -129 112h-185l-56 -280h196
c107 0 174 75 174 168z" />
    <glyph glyph-name="C" unicode="C" horiz-adv-x="612" 
d="M590 513h-52c-1 99 -56 160 -148 160c-60 0 -110 -24 -150 -66c-43 -45 -59 -101 -89 -251c-21 -105 -25 -144 -25 -174c0 -90 72 -143 151 -143c110 0 179 78 207 160h53c-39 -127 -140 -205 -263 -205c-104 0 -200 62 -200 188c0 29 3 69 25 174c35 170 49 226 106 285
c42 44 108 77 184 77c133 0 200 -85 201 -205z" />
    <glyph glyph-name="D" unicode="D" horiz-adv-x="644" 
d="M613 520c0 -37 -5 -72 -21 -154c-32 -166 -59 -245 -124 -303c-48 -43 -114 -63 -181 -63h-231l143 712h218c89 0 196 -37 196 -192zM562 520c0 86 -43 147 -155 147h-165l-125 -622h163c54 0 110 13 157 55c48 43 75 119 103 266c16 83 22 116 22 154z" />
    <glyph glyph-name="E" unicode="E" horiz-adv-x="570" 
d="M609 712l-9 -45h-358l-57 -285h307l-9 -45h-307l-59 -292h365l-9 -45h-417l143 712h410z" />
    <glyph glyph-name="F" unicode="F" horiz-adv-x="547" 
d="M609 712l-9 -45h-358l-59 -297h307l-9 -45h-308l-65 -325h-52l143 712h410z" />
    <glyph glyph-name="G" unicode="G" horiz-adv-x="620" 
d="M590 513h-52c-1 99 -56 160 -148 160c-60 0 -110 -24 -150 -66c-43 -45 -59 -101 -89 -251c-21 -105 -25 -144 -25 -174c0 -90 72 -143 151 -143c78 0 186 53 216 211l13 69h-181l8 45h233l-22 -117c-15 -78 -42 -133 -86 -177c-40 -40 -102 -76 -184 -76
c-104 0 -200 62 -200 188c0 29 3 69 25 174c35 170 49 226 106 285c42 44 108 77 184 77c133 0 200 -85 201 -205z" />
    <glyph glyph-name="H" unicode="H" horiz-adv-x="664" 
d="M655 712l-143 -712h-52l68 337h-352l-68 -337h-52l143 712h52l-66 -330h352l66 330h52z" />
    <glyph glyph-name="I" unicode="I" horiz-adv-x="260" 
d="M251 712l-143 -712h-52l143 712h52z" />
    <glyph glyph-name="J" unicode="J" horiz-adv-x="473" 
d="M473 712l-101 -503c-26 -128 -99 -215 -236 -215c-67 0 -113 25 -142 62l38 33c27 -33 58 -50 110 -50c93 0 158 66 181 183l98 490h52z" />
    <glyph glyph-name="K" unicode="K" horiz-adv-x="616" 
d="M655 712l-264 -273l164 -439h-56l-147 402l-205 -208l-39 -194h-52l143 712h52l-88 -439l426 439h66z" />
    <glyph glyph-name="L" unicode="L" horiz-adv-x="545" 
d="M478 45l-9 -45h-413l143 712h52l-134 -667h361z" />
    <glyph glyph-name="M" unicode="M" horiz-adv-x="777" 
d="M768 712l-143 -712h-52l119 585l-300 -467h-52l-113 474l-118 -592h-53l143 712h51l126 -535l341 535h51z" />
    <glyph glyph-name="N" unicode="N" horiz-adv-x="702" 
d="M693 712l-143 -712h-52l-265 623l-125 -623h-52l143 712h52l265 -623l125 623h52z" />
    <glyph glyph-name="O" unicode="O" horiz-adv-x="619" 
d="M587 530c0 -31 -4 -69 -25 -174c-34 -169 -51 -228 -105 -284c-45 -47 -109 -78 -190 -78c-108 0 -193 68 -193 188c0 31 4 69 25 174c34 169 51 228 105 284c45 47 109 78 190 78c108 0 193 -68 193 -188zM535 527c0 98 -70 146 -143 146c-62 0 -111 -23 -152 -66
c-39 -41 -58 -94 -89 -251c-21 -105 -25 -141 -25 -171c0 -98 70 -146 143 -146c62 0 111 23 152 66c39 41 58 94 89 251c21 105 25 141 25 171z" />
    <glyph glyph-name="P" unicode="P" horiz-adv-x="599" 
d="M615 546c0 -138 -93 -241 -248 -241h-198l-61 -305h-52l143 712h238c136 0 178 -87 178 -166zM563 545c0 63 -34 122 -131 122h-191l-63 -317h191c111 0 194 76 194 195z" />
    <glyph glyph-name="Q" unicode="Q" horiz-adv-x="619" 
d="M587 530c0 -31 -4 -69 -25 -174c-33 -163 -50 -224 -99 -278l63 -83l-38 -34l-63 83c-42 -31 -95 -50 -158 -50c-108 0 -193 68 -193 188c0 31 4 69 25 174c34 169 51 228 105 284c45 47 109 78 190 78c108 0 193 -68 193 -188zM535 527c0 98 -70 146 -143 146
c-62 0 -111 -23 -152 -66c-39 -41 -58 -94 -89 -251c-21 -105 -25 -141 -25 -171c0 -98 70 -146 143 -146c50 0 91 15 127 43l-78 102l38 34l76 -100c32 40 50 97 78 238c21 105 25 141 25 171z" />
    <glyph glyph-name="R" unicode="R" horiz-adv-x="627" 
d="M614 557c0 -110 -72 -207 -196 -225l106 -332h-57l-104 331h-188l-67 -331h-52l143 712h243c132 0 172 -79 172 -155zM562 555c0 68 -40 112 -124 112h-196l-59 -291h199c115 0 180 89 180 179z" />
    <glyph glyph-name="S" unicode="S" horiz-adv-x="558" 
d="M543 638l-37 -32c-34 39 -72 68 -150 68c-119 0 -191 -87 -191 -178c0 -60 46 -92 111 -107l70 -16c102 -23 151 -70 151 -168c0 -133 -116 -211 -261 -211c-96 0 -156 29 -213 98l40 35c44 -58 96 -88 178 -88c113 0 204 67 204 166c0 82 -49 107 -110 121l-70 16
c-53 12 -151 41 -151 156c0 87 64 220 247 220c70 0 131 -21 182 -80z" />
    <glyph glyph-name="T" unicode="T" horiz-adv-x="512" 
d="M578 712l-9 -45h-201l-134 -667h-52l134 667h-202l9 45h455z" />
    <glyph glyph-name="U" unicode="U" horiz-adv-x="654" 
d="M653 712l-96 -481c-30 -149 -133 -237 -276 -237c-86 0 -192 52 -192 190c0 22 4 45 7 61l93 467h52l-95 -474c-2 -11 -5 -35 -5 -53c0 -69 40 -146 146 -146c95 0 193 63 221 203l93 470h52z" />
    <glyph glyph-name="V" unicode="V" horiz-adv-x="507" 
d="M591 712l-361 -712h-44l-84 712h53l70 -620l309 620h57z" />
    <glyph glyph-name="W" unicode="W" horiz-adv-x="804" 
d="M876 712l-306 -712h-52l-39 620l-285 -620h-52l-29 712h53l21 -619l281 619h53l38 -619l261 619h56z" />
    <glyph glyph-name="X" unicode="X" horiz-adv-x="507" 
d="M566 712l-262 -351l141 -361h-57l-121 320l-238 -320h-61l279 371l-129 341h57l109 -301l220 301h62z" />
    <glyph glyph-name="Y" unicode="Y" horiz-adv-x="469" 
d="M554 712l-281 -420l-59 -292h-52l60 297l-118 415h53l101 -362l238 362h58z" />
    <glyph glyph-name="Z" unicode="Z" horiz-adv-x="534" 
d="M562 712l-9 -45l-477 -622h359l-9 -45h-414l11 54l472 613h-342l9 45h400z" />
    <glyph glyph-name="bracketleft" unicode="[" horiz-adv-x="276" 
d="M338 786l-9 -42h-88l-155 -776h96l-8 -42h-145l172 860h137z" />
    <glyph glyph-name="backslash" unicode="\" horiz-adv-x="318" 
d="M255 -74h-47l-99 860h47z" />
    <glyph glyph-name="bracketright" unicode="]" horiz-adv-x="276" 
d="M292 786l-171 -860h-137l8 39h91l156 782h-100l8 39h145z" />
    <glyph glyph-name="asciicircum" unicode="^" horiz-adv-x="488" 
d="M454 422h-46l-76 246l-174 -246h-51l209 296h46z" />
    <glyph glyph-name="underscore" unicode="_" horiz-adv-x="488" 
d="M417 -122l-7 -36h-488l7 36h488z" />
    <glyph glyph-name="grave" unicode="`" 
d="M343 584h-52l-71 145h61z" />
    <glyph glyph-name="a" unicode="a" horiz-adv-x="498" 
d="M432 366c0 -9 -2 -24 -4 -36l-66 -330h-48l11 50c-40 -40 -82 -56 -147 -56c-73 0 -148 21 -148 113c0 38 12 80 44 112c40 40 87 51 141 51h153l12 60c2 10 4 23 4 36c0 53 -42 79 -107 79s-102 -19 -142 -63l-31 34c45 51 95 72 172 72c62 0 156 -17 156 -122zM360 231
h-140c-82 0 -141 -41 -141 -124c0 -47 31 -71 110 -71c46 0 86 14 115 42c21 21 36 49 43 85z" />
    <glyph glyph-name="b" unicode="b" horiz-adv-x="513" 
d="M458 330c0 -18 -3 -53 -10 -89c-16 -82 -39 -150 -85 -196c-38 -38 -85 -51 -131 -51c-45 0 -99 14 -125 73l-14 -67h-49l142 712h49l-58 -291c21 28 57 67 140 67c96 0 141 -58 141 -158zM410 330c0 66 -24 116 -99 116c-110 0 -150 -101 -170 -205
c-6 -31 -11 -63 -11 -89c0 -66 24 -116 99 -116c110 0 150 101 170 205c6 31 11 63 11 89z" />
    <glyph glyph-name="c" unicode="c" horiz-adv-x="469" 
d="M445 414l-36 -29c-29 43 -59 61 -107 61c-42 0 -85 -16 -122 -55c-39 -42 -60 -101 -69 -150c-5 -27 -8 -49 -8 -76c0 -94 61 -129 120 -129c52 0 89 19 131 63l30 -35c-48 -49 -104 -70 -161 -70c-123 0 -168 85 -168 174c0 18 2 48 7 73c27 145 110 247 245 247
c66 0 106 -28 138 -74z" />
    <glyph glyph-name="d" unicode="d" horiz-adv-x="513" 
d="M516 712l-142 -712h-49l13 62c-49 -60 -97 -68 -141 -68c-104 0 -141 66 -141 158c0 29 4 59 10 89c15 77 39 149 85 195c38 38 81 52 132 52c44 0 97 -14 124 -73l60 297h49zM384 332c0 64 -24 114 -99 114c-110 0 -150 -101 -170 -205c-6 -31 -11 -63 -11 -91
c0 -64 24 -114 99 -114c110 0 150 101 170 205c6 31 11 63 11 91z" />
    <glyph glyph-name="e" unicode="e" horiz-adv-x="499" 
d="M440 326c0 -21 -4 -58 -11 -95h-319c-4 -23 -7 -45 -7 -71c0 -70 34 -123 113 -123c61 0 100 20 144 60l33 -33c-52 -48 -105 -70 -179 -70c-99 0 -159 60 -159 165c0 137 62 329 235 329c103 0 150 -76 150 -162zM392 326c0 85 -50 120 -103 120
c-80 0 -141 -56 -172 -176h270c3 18 5 32 5 56z" />
    <glyph glyph-name="f" unicode="f" horiz-adv-x="289" 
d="M353 712l-9 -42h-32c-43 0 -76 -23 -87 -78l-22 -110h106l-7 -36h-106l-89 -446h-49l89 446h-62l7 36h62l22 110c21 104 89 120 132 120h45z" />
    <glyph glyph-name="g" unicode="g" horiz-adv-x="513" 
d="M469 482l-101 -506c-37 -186 -156 -212 -223 -212c-63 0 -108 23 -142 64l36 31c24 -31 56 -53 107 -53c70 0 147 41 174 170l18 85c-32 -41 -74 -67 -144 -67c-93 0 -139 58 -139 154c0 24 3 52 10 93c15 81 39 150 85 196c38 38 85 51 131 51c45 0 99 -12 126 -73
l13 67h49zM384 333c0 76 -35 113 -99 113c-110 0 -152 -104 -171 -205c-6 -31 -11 -63 -11 -92c0 -63 21 -113 99 -113c108 0 152 105 171 205c6 31 11 63 11 92z" />
    <glyph glyph-name="h" unicode="h" horiz-adv-x="531" 
d="M463 351c0 -15 -2 -31 -5 -46l-61 -305h-49l60 299c3 15 6 34 6 51c0 65 -42 96 -100 96c-35 0 -135 -16 -162 -150l-59 -296h-49l142 712h49l-57 -287c33 39 78 63 146 63c82 0 139 -53 139 -137z" />
    <glyph glyph-name="i" unicode="i" horiz-adv-x="233" 
d="M189 482l-96 -482h-49l96 482h49zM237 704l-12 -60h-60l12 60h60z" />
    <glyph glyph-name="j" unicode="j" horiz-adv-x="233" 
d="M189 482l-118 -592c-17 -83 -62 -120 -135 -120h-41l8 42h30c51 0 78 25 90 84l117 586h49zM237 704l-12 -60h-60l12 60h60z" />
    <glyph glyph-name="k" unicode="k" horiz-adv-x="504" 
d="M480 482l-188 -182l130 -300h-56l-113 268l-132 -127l-28 -141h-49l142 712h49l-99 -498l278 268h66z" />
    <glyph glyph-name="l" unicode="l" horiz-adv-x="275" 
d="M234 712l-118 -587c-3 -16 -5 -24 -5 -37c0 -28 14 -46 61 -46h37l-9 -42h-45c-33 0 -92 13 -92 86c0 13 1 26 4 39l118 587h49z" />
    <glyph glyph-name="m" unicode="m" horiz-adv-x="835" 
d="M767 351c0 -12 -2 -31 -5 -46l-61 -305h-49l60 299c3 17 6 36 6 51c0 65 -42 96 -101 96c-34 0 -134 -16 -161 -150l-59 -296h-49l60 299c3 17 6 36 6 51c0 65 -42 96 -101 96c-34 0 -134 -16 -161 -150l-59 -296h-49l96 482h49l-11 -57c33 39 79 63 149 63
c62 0 105 -32 127 -88c43 56 94 88 177 88c80 0 136 -53 136 -137z" />
    <glyph glyph-name="n" unicode="n" horiz-adv-x="531" 
d="M463 351c0 -12 -2 -31 -5 -46l-61 -305h-49l60 299c3 17 6 36 6 51c0 65 -42 96 -101 96c-34 0 -134 -16 -161 -150l-59 -296h-49l96 482h49l-11 -57c33 39 79 63 149 63c80 0 136 -53 136 -137z" />
    <glyph glyph-name="o" unicode="o" 
d="M442 330c0 -29 -5 -68 -9 -89c-21 -108 -55 -163 -93 -196c-42 -37 -86 -51 -133 -51c-75 0 -152 41 -152 158c0 29 5 68 9 89c21 108 55 163 93 196c42 37 86 51 133 51c75 0 152 -41 152 -158zM394 328c0 86 -52 118 -107 118c-38 0 -76 -17 -102 -43
c-32 -32 -55 -75 -72 -162c-6 -32 -10 -64 -10 -87c0 -86 52 -118 107 -118c38 0 76 17 102 43c32 32 55 75 72 162c6 32 10 64 10 87z" />
    <glyph glyph-name="p" unicode="p" horiz-adv-x="513" 
d="M458 330c0 -29 -4 -59 -10 -89c-15 -77 -39 -149 -85 -195c-38 -38 -81 -52 -132 -52c-44 0 -97 14 -124 73l-60 -297h-49l142 712h49l-13 -62c49 60 97 68 141 68c104 0 141 -66 141 -158zM410 332c0 64 -24 114 -99 114c-110 0 -150 -101 -170 -205
c-6 -31 -11 -63 -11 -91c0 -64 24 -114 99 -114c110 0 150 101 170 205c6 31 11 63 11 91z" />
    <glyph glyph-name="q" unicode="q" horiz-adv-x="513" 
d="M469 482l-142 -712h-49l58 291c-21 -28 -57 -67 -140 -67c-96 0 -141 58 -141 158c0 18 3 53 10 89c16 82 39 150 85 196c38 38 85 51 131 51c45 0 99 -14 125 -73l14 67h49zM383 330c0 66 -24 116 -99 116c-110 0 -150 -101 -170 -205c-6 -31 -11 -63 -11 -89
c0 -66 24 -116 99 -116c110 0 150 101 170 205c6 31 11 63 11 89z" />
    <glyph glyph-name="r" unicode="r" horiz-adv-x="387" 
d="M422 443l-37 -33c-15 20 -38 36 -75 36c-79 0 -142 -66 -158 -149l-59 -297h-49l96 482h49l-13 -64c31 44 80 70 141 70c46 0 80 -16 105 -45z" />
    <glyph glyph-name="s" unicode="s" horiz-adv-x="469" 
d="M424 437l-36 -31c-35 29 -65 41 -121 41c-91 0 -136 -60 -136 -114c0 -37 29 -56 83 -63l65 -9c85 -12 118 -42 118 -115c0 -29 -10 -64 -46 -99c-37 -35 -98 -53 -164 -53c-78 0 -134 22 -175 68l37 32c34 -40 75 -58 143 -58c108 0 156 61 156 112c0 50 -30 64 -77 70
l-66 9c-107 15 -122 66 -122 103c0 33 14 76 43 105c33 33 81 53 149 53c63 0 111 -18 149 -51z" />
    <glyph glyph-name="t" unicode="t" horiz-adv-x="312" 
d="M303 482l-7 -36h-101l-64 -321c-3 -16 -5 -24 -5 -37c0 -28 14 -46 61 -46h37l-9 -42h-45c-33 0 -92 13 -92 86c0 13 1 26 4 39l64 321h-65l7 36h65l31 154h49l-31 -154h101z" />
    <glyph glyph-name="u" unicode="u" horiz-adv-x="531" 
d="M487 482l-96 -482h-49l11 57c-33 -39 -78 -63 -146 -63c-82 0 -139 53 -139 137c0 15 2 31 5 46l61 305h49l-60 -299c-3 -15 -6 -34 -6 -51c0 -65 42 -96 100 -96c35 0 135 16 162 150l59 296h49z" />
    <glyph glyph-name="v" unicode="v" horiz-adv-x="408" 
d="M442 482l-261 -482h-49l-71 482h50l56 -421l219 421h56z" />
    <glyph glyph-name="w" unicode="w" horiz-adv-x="676" 
d="M708 482l-236 -482h-50l-50 402l-208 -402h-50l-52 482h51l36 -422l214 422h44l50 -422l199 422h52z" />
    <glyph glyph-name="x" unicode="x" horiz-adv-x="441" 
d="M442 482l-192 -238l110 -244h-57l-88 209l-164 -209h-60l201 251l-105 231h57l84 -197l154 197h60z" />
    <glyph glyph-name="y" unicode="y" horiz-adv-x="408" 
d="M441 482l-329 -614c-18 -34 -30 -47 -42 -58c-21 -19 -48 -28 -93 -28h-25l9 42h19c52 0 68 16 96 70l56 107l-71 481h50l56 -421l219 421h55z" />
    <glyph glyph-name="z" unicode="z" horiz-adv-x="432" 
d="M426 482l-9 -45l-350 -395h278l-8 -42h-332l9 45l350 395h-263l9 42h316z" />
    <glyph glyph-name="braceleft" unicode="{" horiz-adv-x="300" 
d="M358 786l-9 -42h-17c-56 0 -64 -20 -75 -73l-43 -215c-12 -60 -34 -88 -78 -102c37 -21 40 -49 40 -69c0 -7 -1 -23 -3 -34l-41 -205c-3 -14 -5 -25 -5 -38c0 -31 14 -40 52 -40h23l-8 -42h-17c-84 0 -98 39 -98 78c0 13 4 35 6 47l41 204c2 9 3 17 3 29
c0 22 -8 51 -51 51h-12l9 42h17c16 0 33 8 46 19c14 12 22 33 28 61l41 207c11 54 17 78 42 99c17 15 43 23 88 23h21z" />
    <glyph glyph-name="bar" unicode="|" horiz-adv-x="301" 
d="M284 786l-172 -860h-48l171 860h49z" />
    <glyph glyph-name="braceright" unicode="}" horiz-adv-x="300" 
d="M280 377l-9 -42h-17c-16 0 -33 -8 -46 -19c-14 -12 -22 -33 -28 -61l-41 -207c-11 -54 -17 -78 -42 -99c-17 -15 -43 -23 -88 -23h-21l9 42h17c56 0 64 20 75 73l43 215c12 60 34 88 78 102c-37 21 -40 49 -40 69c0 7 1 23 3 34l41 205c3 14 5 25 5 38
c0 31 -14 40 -52 40h-23l8 42h17c84 0 98 -39 98 -78c0 -13 -4 -35 -6 -47l-41 -204c-2 -9 -3 -17 -3 -29c0 -22 8 -51 51 -51h12z" />
    <glyph glyph-name="asciitilde" unicode="~" horiz-adv-x="488" 
d="M447 274c-59 -51 -88 -59 -116 -59c-33 0 -50 6 -98 32c-32 17 -48 22 -68 22c-24 0 -42 -7 -89 -45l-25 33c59 51 88 59 116 59c33 0 50 -6 98 -32c32 -17 48 -22 68 -22c24 0 42 7 89 45z" />
    <glyph glyph-name="uni00A0" unicode="&#xa0;" horiz-adv-x="242" 
 />
    <glyph glyph-name="exclamdown" unicode="&#xa1;" horiz-adv-x="289" 
d="M165 295l-101 -525h-53l107 525h47zM208 482l-14 -67h-63l13 67h64z" />
    <glyph glyph-name="cent" unicode="&#xa2;" horiz-adv-x="473" 
d="M470 539l-36 -29c-27 40 -54 59 -97 61l-76 -409c46 3 80 21 118 62l30 -35c-47 -48 -102 -69 -156 -70l-23 -119h-41l23 122c-96 15 -132 91 -132 171c0 138 70 301 224 318l19 101h41l-19 -99c58 -4 95 -31 125 -74zM296 568c-32 -6 -63 -23 -91 -52
c-52 -54 -77 -147 -77 -226s43 -116 92 -126z" />
    <glyph glyph-name="sterling" unicode="&#xa3;" horiz-adv-x="512" 
d="M538 656l-37 -32c-28 36 -64 49 -106 49c-98 0 -162 -63 -185 -179l-23 -115h152l-7 -36h-152l-59 -298h303l-9 -45h-355l69 343h-61l7 36h61l25 123c28 138 108 216 241 216c64 0 105 -24 136 -62z" />
    <glyph glyph-name="currency" unicode="&#xa4;" horiz-adv-x="658" 
d="M569 54l-29 -29l-74 74c-37 -31 -85 -49 -137 -49s-100 18 -137 49l-74 -74l-29 29l74 74c-31 37 -49 85 -49 137s18 100 49 137l-74 74l29 29l74 -74c37 31 85 49 137 49s100 -18 137 -49l74 74l29 -29l-74 -74c31 -37 49 -85 49 -137s-18 -100 -49 -137zM500 265
c0 94 -77 171 -171 171s-171 -77 -171 -171s77 -171 171 -171s171 77 171 171z" />
    <glyph glyph-name="yen" unicode="&#xa5;" horiz-adv-x="469" 
d="M554 712l-220 -328h103l-7 -36h-120l-37 -55l-10 -51h147l-7 -36h-147l-41 -206h-52l41 206h-146l7 36h146l11 55l-15 51h-122l7 36h105l-93 328h53l101 -362l238 362h58z" />
    <glyph glyph-name="brokenbar" unicode="&#xa6;" horiz-adv-x="312" 
d="M284 786l-70 -350h-49l70 350h49zM182 276l-70 -350h-48l69 350h49z" />
    <glyph glyph-name="section" unicode="&#xa7;" horiz-adv-x="538" 
d="M502 588c0 -9 0 -13 -1 -18h-50c7 64 -39 104 -98 104c-81 0 -141 -53 -141 -134c0 -52 29 -76 70 -89l72 -23c40 -13 97 -49 97 -138s-41 -177 -142 -218c42 -18 73 -60 73 -116c0 -120 -87 -192 -202 -192c-87 0 -149 48 -149 134c0 4 0 12 1 18h51
c-7 -68 31 -107 103 -107c78 0 144 50 144 141c0 46 -26 79 -71 93l-72 23c-38 12 -97 47 -97 138c0 89 41 177 142 218c-45 23 -71 66 -71 115c0 122 101 181 191 181c107 0 150 -74 150 -130zM401 288c0 70 -49 104 -102 104c-37 0 -71 -13 -100 -40
c-31 -29 -46 -62 -55 -105c-3 -16 -4 -25 -4 -41c0 -78 59 -104 102 -104c37 0 71 13 100 40c31 29 46 62 55 105c3 16 4 25 4 41z" />
    <glyph glyph-name="dieresis" unicode="&#xa8;" 
d="M265 669l-15 -75h-55l15 75h55zM462 669l-15 -75h-55l15 75h55z" />
    <glyph glyph-name="copyright" unicode="&#xa9;" horiz-adv-x="849" 
d="M788 356c0 -190 -154 -344 -344 -344s-344 154 -344 344s154 344 344 344s344 -154 344 -344zM742 356c0 163 -135 302 -298 302s-298 -139 -298 -302s135 -302 298 -302s298 139 298 302zM572 210c-37 -33 -71 -50 -124 -50c-116 0 -168 90 -168 196s52 197 168 197
c53 0 84 -16 124 -51l-28 -28c-34 30 -58 40 -96 40c-96 0 -126 -74 -126 -158s30 -157 126 -157c38 0 62 9 96 39z" />
    <glyph glyph-name="ordfeminine" unicode="&#xaa;" horiz-adv-x="425" 
d="M411 618c0 -7 -1 -20 -3 -29l-52 -262h-39l7 39c-28 -33 -64 -44 -115 -44c-58 0 -118 17 -118 90c0 30 10 64 35 89c32 32 69 41 112 41h120l9 47c3 17 4 23 4 29c0 40 -31 60 -83 60c-54 0 -82 -13 -113 -47l-27 29c39 40 78 55 139 55c50 0 124 -14 124 -97zM352 509
h-110c-65 0 -110 -36 -110 -97c0 -36 27 -54 86 -54c37 0 68 10 91 33c15 15 26 36 32 64z" />
    <glyph glyph-name="guillemotleft" unicode="&#xab;" horiz-adv-x="501" 
d="M270 461l-14 -69l-149 -131l99 -131l-12 -61l-149 196zM467 461l-14 -69l-150 -131l100 -131l-12 -61l-150 196z" />
    <glyph glyph-name="logicalnot" unicode="&#xac;" horiz-adv-x="488" 
d="M447 287l-36 -180h-44l27 136h-343l9 44h387z" />
    <glyph glyph-name="uni00AD" unicode="&#xad;" horiz-adv-x="405" 
d="M336 286l-9 -45h-249l9 45h249z" />
    <glyph glyph-name="registered" unicode="&#xae;" horiz-adv-x="849" 
d="M788 356c0 -190 -154 -344 -344 -344s-344 154 -344 344s154 344 344 344s344 -154 344 -344zM743 356c0 164 -135 303 -299 303s-299 -139 -299 -303s135 -303 299 -303s299 139 299 303zM585 166h-50l-94 159h-63v-159h-42v381h121c63 0 118 -47 118 -112
c0 -56 -36 -93 -86 -107zM532 435c0 42 -33 73 -79 73h-75v-145h75c46 0 79 30 79 72z" />
    <glyph glyph-name="macron" unicode="&#xaf;" horiz-adv-x="475" 
d="M474 653l-9 -43h-281l9 43h281z" />
    <glyph glyph-name="degree" unicode="&#xb0;" horiz-adv-x="454" 
d="M444 562c0 -87 -68 -155 -155 -155s-155 68 -155 155s68 155 155 155s155 -68 155 -155zM401 562c0 65 -49 115 -113 115s-111 -49 -111 -115s48 -115 112 -115s112 49 112 115z" />
    <glyph glyph-name="plusminus" unicode="&#xb1;" horiz-adv-x="488" 
d="M451 312l-9 -44h-170l-36 -184h-45l37 184h-173l9 44h173l36 182h45l-37 -182h170zM400 44l-9 -44h-388l9 44h388z" />
    <glyph glyph-name="twosuperior" unicode="&#xb2;" horiz-adv-x="299" 
d="M336 621c0 -51 -33 -94 -58 -120l-171 -178h175l-8 -38h-227l8 38l193 203c30 31 45 58 45 93c0 32 -15 59 -59 59c-59 0 -78 -40 -85 -76h-42c8 44 33 114 130 114c70 0 99 -45 99 -95z" />
    <glyph glyph-name="threesuperior" unicode="&#xb3;" horiz-adv-x="299" 
d="M327 618c0 -54 -26 -98 -75 -116c31 -16 45 -38 45 -87c0 -65 -41 -135 -139 -135c-83 0 -107 56 -107 92c0 10 0 16 1 21h43c-5 -47 18 -75 68 -75c39 0 92 27 92 97c0 42 -14 69 -67 69h-8l8 37h7c65 0 90 47 90 96c0 46 -29 61 -58 61c-45 0 -74 -19 -88 -72h-42
c20 80 69 110 131 110c59 0 99 -38 99 -98z" />
    <glyph glyph-name="acute" unicode="&#xb4;" horiz-adv-x="475" 
d="M455 729l-127 -145h-58l120 145h65z" />
    <glyph glyph-name="mu" unicode="&#xb5;" horiz-adv-x="531" 
d="M486 482l-96 -482h-49l11 57c-33 -39 -79 -63 -149 -63c-47 0 -85 18 -109 50l-55 -274h-48l142 712h49l-60 -299c-3 -17 -6 -36 -6 -51c0 -65 42 -96 101 -96c34 0 134 16 161 150l59 296h49z" />
    <glyph glyph-name="paragraph" unicode="&#xb6;" horiz-adv-x="550" 
d="M540 712l-188 -942h-49l179 897h-116l-180 -897h-48l115 578c-101 4 -155 83 -155 162c0 100 77 202 232 202h210z" />
    <glyph glyph-name="periodcentered" unicode="&#xb7;" horiz-adv-x="251" 
d="M172 299l-14 -70h-70l14 70h70z" />
    <glyph glyph-name="cedilla" unicode="&#xb8;" 
d="M232 -68l-89 -148h-61l97 148h53z" />
    <glyph glyph-name="onesuperior" unicode="&#xb9;" horiz-adv-x="299" 
d="M284 712l-86 -427h-41l75 376l-92 -70l10 53l92 68h42z" />
    <glyph glyph-name="ordmasculine" unicode="&#xba;" horiz-adv-x="429" 
d="M419 588c0 -23 -4 -51 -7 -69c-13 -68 -36 -123 -74 -156c-34 -29 -71 -40 -106 -40c-37 0 -121 16 -121 127c0 23 4 51 7 69c13 68 36 123 74 156c34 29 71 40 106 40c37 0 121 -16 121 -127zM380 588c0 71 -45 91 -84 91s-67 -19 -81 -33c-30 -29 -47 -75 -57 -127
c-3 -16 -8 -43 -8 -69c0 -71 45 -91 84 -91s67 19 81 33c30 29 47 75 57 127c3 16 8 43 8 69z" />
    <glyph glyph-name="guillemotright" unicode="&#xbb;" horiz-adv-x="501" 
d="M270 265l-226 -196l14 69l150 131l-100 131l12 61zM466 265l-225 -196l14 69l149 131l-99 131l12 61z" />
    <glyph glyph-name="onequarter" unicode="&#xbc;" horiz-adv-x="768" 
d="M284 712l-86 -427h-41l75 376l-92 -70l10 53l92 68h42zM658 712l-458 -712h-44l458 712h44zM721 106l-7 -38h-51l-13 -68h-42l14 68h-164l8 38l207 321h47l-208 -321h117l24 121h42l-24 -121h50z" />
    <glyph glyph-name="onehalf" unicode="&#xbd;" horiz-adv-x="768" 
d="M284 712l-86 -427h-41l75 376l-92 -70l10 53l92 68h42zM658 712l-458 -712h-44l458 712h44zM749 336c0 -51 -34 -94 -59 -120l-171 -178h175l-8 -38h-227l8 38l193 203c30 31 45 58 45 93c0 32 -15 59 -59 59c-59 0 -78 -40 -85 -76h-42c8 44 33 114 130 114
c70 0 100 -45 100 -95z" />
    <glyph glyph-name="threequarters" unicode="&#xbe;" horiz-adv-x="768" 
d="M327 618c0 -54 -26 -97 -75 -115c31 -16 45 -38 45 -87c0 -65 -41 -135 -139 -135c-83 0 -107 56 -107 92c0 10 0 16 1 21h43c-5 -47 18 -75 68 -75c39 0 92 27 92 97c0 42 -14 69 -67 69h-8l8 37h7c65 0 90 46 90 95c0 46 -29 61 -58 61c-45 0 -74 -19 -88 -72h-42
c20 80 69 110 131 110c59 0 99 -38 99 -98zM658 712l-458 -712h-44l458 712h44zM721 106l-7 -38h-51l-13 -68h-42l14 68h-164l8 38l207 321h47l-208 -321h117l24 121h42l-24 -121h50z" />
    <glyph glyph-name="questiondown" unicode="&#xbf;" horiz-adv-x="465" 
d="M331 -64c-20 -102 -93 -172 -204 -172c-76 0 -142 52 -142 142c0 61 28 106 68 154l106 125c16 19 27 46 30 61l10 50h49l-10 -50c-8 -39 -19 -59 -46 -91l-104 -124c-36 -42 -54 -74 -54 -124c0 -54 34 -100 101 -100c71 0 129 49 146 129h50zM285 482l-13 -67h-63
l12 67h64z" />
    <glyph glyph-name="Agrave" unicode="&#xc0;" horiz-adv-x="572" 
d="M510 0h-53l-25 173h-314l-94 -173h-57l390 712h46zM427 218l-60 422l-226 -422h286zM407 774h-52l-71 145h61z" />
    <glyph glyph-name="Aacute" unicode="&#xc1;" horiz-adv-x="572" 
d="M510 0h-53l-25 173h-314l-94 -173h-57l390 712h46zM427 218l-60 422l-226 -422h286zM519 919l-127 -145h-58l120 145h65z" />
    <glyph glyph-name="Acircumflex" unicode="&#xc2;" horiz-adv-x="572" 
d="M510 0h-53l-25 173h-314l-94 -173h-57l390 712h46zM427 218l-60 422l-226 -422h286zM522 774h-51l-67 111l-112 -111h-57l146 147h52z" />
    <glyph glyph-name="Atilde" unicode="&#xc3;" horiz-adv-x="572" 
d="M510 0h-53l-25 173h-314l-94 -173h-57l390 712h46zM427 218l-60 422l-226 -422h286zM536 835c-34 -32 -62 -46 -91 -46c-26 0 -48 11 -66 25c-22 17 -30 20 -51 20c-19 0 -35 -10 -62 -35l-24 30c34 32 62 46 91 46c26 0 48 -11 66 -25c22 -17 30 -20 51 -20
c19 0 35 10 62 35z" />
    <glyph glyph-name="Adieresis" unicode="&#xc4;" horiz-adv-x="572" 
d="M510 0h-53l-25 173h-314l-94 -173h-57l390 712h46zM427 218l-60 422l-226 -422h286zM329 859l-15 -75h-55l15 75h55zM526 859l-15 -75h-55l15 75h55z" />
    <glyph glyph-name="Aring" unicode="&#xc5;" horiz-adv-x="572" 
d="M510 0h-53l-25 173h-314l-94 -173h-57l390 712h46zM427 218l-60 422l-226 -422h286zM503 857c0 -63 -51 -115 -114 -115s-114 52 -114 115s51 114 114 114s114 -51 114 -114zM464 857c0 40 -35 74 -75 74s-75 -34 -75 -74s35 -75 75 -75s75 35 75 75z" />
    <glyph glyph-name="AE" unicode="&#xc6;" horiz-adv-x="861" 
d="M900 712l-9 -45h-358l-58 -288h306l-9 -45h-306l-58 -289h363l-9 -45h-414l35 176h-240l-122 -176h-60l500 712h439zM482 667l-310 -446h220z" />
    <glyph glyph-name="Ccedilla" unicode="&#xc7;" horiz-adv-x="612" 
d="M590 513h-52c-1 99 -56 160 -148 160c-60 0 -110 -24 -150 -66c-43 -45 -59 -101 -89 -251c-21 -105 -25 -144 -25 -174c0 -90 72 -143 151 -143c110 0 179 78 207 160h53c-39 -127 -140 -205 -263 -205c-104 0 -200 62 -200 188c0 29 3 69 25 174c35 170 49 226 106 285
c42 44 108 77 184 77c133 0 200 -85 201 -205zM290 -68l-89 -148h-61l97 148h53z" />
    <glyph glyph-name="Egrave" unicode="&#xc8;" horiz-adv-x="570" 
d="M609 712l-9 -45h-358l-57 -285h307l-9 -45h-307l-59 -292h365l-9 -45h-417l143 712h410zM431 774h-52l-71 145h61z" />
    <glyph glyph-name="Eacute" unicode="&#xc9;" horiz-adv-x="570" 
d="M609 712l-9 -45h-358l-57 -285h307l-9 -45h-307l-59 -292h365l-9 -45h-417l143 712h410zM543 919l-127 -145h-58l120 145h65z" />
    <glyph glyph-name="Ecircumflex" unicode="&#xca;" horiz-adv-x="570" 
d="M609 712l-9 -45h-358l-57 -285h307l-9 -45h-307l-59 -292h365l-9 -45h-417l143 712h410zM546 774h-51l-67 111l-112 -111h-57l146 147h52z" />
    <glyph glyph-name="Edieresis" unicode="&#xcb;" horiz-adv-x="570" 
d="M609 712l-9 -45h-358l-57 -285h307l-9 -45h-307l-59 -292h365l-9 -45h-417l143 712h410zM353 859l-15 -75h-55l15 75h55zM550 859l-15 -75h-55l15 75h55z" />
    <glyph glyph-name="Igrave" unicode="&#xcc;" horiz-adv-x="260" 
d="M251 712l-143 -712h-52l143 712h52zM273 774h-52l-71 145h61z" />
    <glyph glyph-name="Iacute" unicode="&#xcd;" horiz-adv-x="260" 
d="M251 712l-143 -712h-52l143 712h52zM385 919l-127 -145h-58l120 145h65z" />
    <glyph glyph-name="Icircumflex" unicode="&#xce;" horiz-adv-x="260" 
d="M251 712l-143 -712h-52l143 712h52zM368 774h-51l-67 111l-112 -111h-57l146 147h52z" />
    <glyph glyph-name="Idieresis" unicode="&#xcf;" horiz-adv-x="260" 
d="M251 712l-143 -712h-52l143 712h52zM175 859l-15 -75h-55l15 75h55zM372 859l-15 -75h-55l15 75h55z" />
    <glyph glyph-name="Eth" unicode="&#xd0;" horiz-adv-x="655" 
d="M623 520c0 -37 -5 -72 -21 -154c-32 -166 -59 -245 -124 -303c-48 -43 -114 -63 -181 -63h-231l68 339h-76l8 40h76l67 333h218c89 0 196 -37 196 -192zM572 520c0 86 -43 147 -155 147h-165l-58 -288h169l-8 -40h-169l-59 -294h163c54 0 110 13 157 55
c48 43 75 119 103 266c16 83 22 116 22 154z" />
    <glyph glyph-name="Ntilde" unicode="&#xd1;" horiz-adv-x="702" 
d="M693 712l-143 -712h-52l-265 623l-125 -623h-52l143 712h52l265 -623l125 623h52zM612 835c-34 -32 -62 -46 -91 -46c-26 0 -48 11 -66 25c-22 17 -30 20 -51 20c-19 0 -35 -10 -62 -35l-24 30c34 32 62 46 91 46c26 0 48 -11 66 -25c22 -17 30 -20 51 -20
c19 0 35 10 62 35z" />
    <glyph glyph-name="Ograve" unicode="&#xd2;" horiz-adv-x="619" 
d="M587 530c0 -31 -4 -69 -25 -174c-34 -169 -51 -228 -105 -284c-45 -47 -109 -78 -190 -78c-108 0 -193 68 -193 188c0 31 4 69 25 174c34 169 51 228 105 284c45 47 109 78 190 78c108 0 193 -68 193 -188zM535 527c0 98 -70 146 -143 146c-62 0 -111 -23 -152 -66
c-39 -41 -58 -94 -89 -251c-21 -105 -25 -141 -25 -171c0 -98 70 -146 143 -146c62 0 111 23 152 66c39 41 58 94 89 251c21 105 25 141 25 171zM431 774h-52l-71 145h61z" />
    <glyph glyph-name="Oacute" unicode="&#xd3;" horiz-adv-x="619" 
d="M587 530c0 -31 -4 -69 -25 -174c-34 -169 -51 -228 -105 -284c-45 -47 -109 -78 -190 -78c-108 0 -193 68 -193 188c0 31 4 69 25 174c34 169 51 228 105 284c45 47 109 78 190 78c108 0 193 -68 193 -188zM535 527c0 98 -70 146 -143 146c-62 0 -111 -23 -152 -66
c-39 -41 -58 -94 -89 -251c-21 -105 -25 -141 -25 -171c0 -98 70 -146 143 -146c62 0 111 23 152 66c39 41 58 94 89 251c21 105 25 141 25 171zM543 919l-127 -145h-58l120 145h65z" />
    <glyph glyph-name="Ocircumflex" unicode="&#xd4;" horiz-adv-x="619" 
d="M587 530c0 -31 -4 -69 -25 -174c-34 -169 -51 -228 -105 -284c-45 -47 -109 -78 -190 -78c-108 0 -193 68 -193 188c0 31 4 69 25 174c34 169 51 228 105 284c45 47 109 78 190 78c108 0 193 -68 193 -188zM535 527c0 98 -70 146 -143 146c-62 0 -111 -23 -152 -66
c-39 -41 -58 -94 -89 -251c-21 -105 -25 -141 -25 -171c0 -98 70 -146 143 -146c62 0 111 23 152 66c39 41 58 94 89 251c21 105 25 141 25 171zM546 774h-51l-67 111l-112 -111h-57l146 147h52z" />
    <glyph glyph-name="Otilde" unicode="&#xd5;" horiz-adv-x="619" 
d="M587 530c0 -31 -4 -69 -25 -174c-34 -169 -51 -228 -105 -284c-45 -47 -109 -78 -190 -78c-108 0 -193 68 -193 188c0 31 4 69 25 174c34 169 51 228 105 284c45 47 109 78 190 78c108 0 193 -68 193 -188zM535 527c0 98 -70 146 -143 146c-62 0 -111 -23 -152 -66
c-39 -41 -58 -94 -89 -251c-21 -105 -25 -141 -25 -171c0 -98 70 -146 143 -146c62 0 111 23 152 66c39 41 58 94 89 251c21 105 25 141 25 171zM560 835c-34 -32 -62 -46 -91 -46c-26 0 -48 11 -66 25c-22 17 -30 20 -51 20c-19 0 -35 -10 -62 -35l-24 30
c34 32 62 46 91 46c26 0 48 -11 66 -25c22 -17 30 -20 51 -20c19 0 35 10 62 35z" />
    <glyph glyph-name="Odieresis" unicode="&#xd6;" horiz-adv-x="619" 
d="M587 530c0 -31 -4 -69 -25 -174c-34 -169 -51 -228 -105 -284c-45 -47 -109 -78 -190 -78c-108 0 -193 68 -193 188c0 31 4 69 25 174c34 169 51 228 105 284c45 47 109 78 190 78c108 0 193 -68 193 -188zM535 527c0 98 -70 146 -143 146c-62 0 -111 -23 -152 -66
c-39 -41 -58 -94 -89 -251c-21 -105 -25 -141 -25 -171c0 -98 70 -146 143 -146c62 0 111 23 152 66c39 41 58 94 89 251c21 105 25 141 25 171zM353 859l-15 -75h-55l15 75h55zM550 859l-15 -75h-55l15 75h55z" />
    <glyph glyph-name="multiply" unicode="&#xd7;" horiz-adv-x="488" 
d="M454 414l-176 -153l118 -157l-33 -29l-118 157l-177 -153l-25 33l176 153l-118 157l34 29l118 -157l176 153z" />
    <glyph glyph-name="Oslash" unicode="&#xd8;" horiz-adv-x="619" 
d="M614 756l-67 -104c25 -31 40 -72 40 -122c0 -31 -4 -69 -25 -174c-34 -169 -51 -228 -105 -284c-45 -47 -109 -78 -190 -78c-46 0 -88 12 -120 35l-47 -73h-52l66 103c-25 31 -40 72 -40 123c0 31 4 69 25 174c34 169 51 228 105 284c45 47 109 78 190 78
c46 0 87 -12 120 -36l48 74h52zM535 527c0 30 -7 56 -19 77l-342 -533c26 -22 60 -32 95 -32c62 0 111 23 152 66c39 41 58 94 89 251c21 105 25 141 25 171zM487 640c-26 22 -60 33 -95 33c-62 0 -111 -23 -152 -66c-39 -41 -58 -94 -89 -251c-21 -105 -25 -141 -25 -171
c0 -31 7 -57 19 -78z" />
    <glyph glyph-name="Ugrave" unicode="&#xd9;" horiz-adv-x="654" 
d="M653 712l-96 -481c-30 -149 -133 -237 -276 -237c-86 0 -192 52 -192 190c0 22 4 45 7 61l93 467h52l-95 -474c-2 -11 -5 -35 -5 -53c0 -69 40 -146 146 -146c95 0 193 63 221 203l93 470h52zM452 774h-52l-71 145h61z" />
    <glyph glyph-name="Uacute" unicode="&#xda;" horiz-adv-x="654" 
d="M653 712l-96 -481c-30 -149 -133 -237 -276 -237c-86 0 -192 52 -192 190c0 22 4 45 7 61l93 467h52l-95 -474c-2 -11 -5 -35 -5 -53c0 -69 40 -146 146 -146c95 0 193 63 221 203l93 470h52zM564 919l-127 -145h-58l120 145h65z" />
    <glyph glyph-name="Ucircumflex" unicode="&#xdb;" horiz-adv-x="654" 
d="M653 712l-96 -481c-30 -149 -133 -237 -276 -237c-86 0 -192 52 -192 190c0 22 4 45 7 61l93 467h52l-95 -474c-2 -11 -5 -35 -5 -53c0 -69 40 -146 146 -146c95 0 193 63 221 203l93 470h52zM567 774h-51l-67 111l-112 -111h-57l146 147h52z" />
    <glyph glyph-name="Udieresis" unicode="&#xdc;" horiz-adv-x="654" 
d="M653 712l-96 -481c-30 -149 -133 -237 -276 -237c-86 0 -192 52 -192 190c0 22 4 45 7 61l93 467h52l-95 -474c-2 -11 -5 -35 -5 -53c0 -69 40 -146 146 -146c95 0 193 63 221 203l93 470h52zM374 859l-15 -75h-55l15 75h55zM571 859l-15 -75h-55l15 75h55z" />
    <glyph glyph-name="Yacute" unicode="&#xdd;" horiz-adv-x="469" 
d="M554 712l-281 -420l-59 -292h-52l60 297l-118 415h53l101 -362l238 362h58zM470 919l-127 -145h-58l120 145h65z" />
    <glyph glyph-name="Thorn" unicode="&#xde;" horiz-adv-x="614" 
d="M585 398c0 -138 -93 -241 -248 -241h-197l-32 -157h-52l143 712h52l-30 -148h186c136 0 178 -87 178 -166zM533 397c0 63 -34 122 -131 122h-190l-63 -317h190c111 0 194 76 194 195z" />
    <glyph glyph-name="germandbls" unicode="&#xdf;" horiz-adv-x="524" 
d="M515 578c0 -61 -32 -116 -88 -147c32 -17 44 -45 44 -78c0 -12 -2 -26 -5 -42l-35 -177c-16 -82 -74 -134 -151 -134h-57l8 42h46c28 0 45 8 66 23c19 14 34 41 41 75l36 179c2 11 3 21 3 28c0 45 -33 64 -69 64h-49l8 43h38c76 0 116 65 116 126c0 26 -7 50 -24 67
c-21 21 -45 30 -83 30c-96 0 -144 -64 -162 -152l-105 -525h-49l105 525c24 121 93 194 215 194c86 0 151 -50 151 -141z" />
    <glyph glyph-name="agrave" unicode="&#xe0;" horiz-adv-x="498" 
d="M432 366c0 -9 -2 -24 -4 -36l-66 -330h-48l11 50c-40 -40 -82 -56 -147 -56c-73 0 -148 21 -148 113c0 38 12 80 44 112c40 40 87 51 141 51h153l12 60c2 10 4 23 4 36c0 53 -42 79 -107 79s-102 -19 -142 -63l-31 34c45 51 95 72 172 72c62 0 156 -17 156 -122zM360 231
h-140c-82 0 -141 -41 -141 -124c0 -47 31 -71 110 -71c46 0 86 14 115 42c21 21 36 49 43 85zM329 584h-52l-71 145h61z" />
    <glyph glyph-name="aacute" unicode="&#xe1;" horiz-adv-x="498" 
d="M432 366c0 -9 -2 -24 -4 -36l-66 -330h-48l11 50c-40 -40 -82 -56 -147 -56c-73 0 -148 21 -148 113c0 38 12 80 44 112c40 40 87 51 141 51h153l12 60c2 10 4 23 4 36c0 53 -42 79 -107 79s-102 -19 -142 -63l-31 34c45 51 95 72 172 72c62 0 156 -17 156 -122zM360 231
h-140c-82 0 -141 -41 -141 -124c0 -47 31 -71 110 -71c46 0 86 14 115 42c21 21 36 49 43 85zM441 729l-127 -145h-58l120 145h65z" />
    <glyph glyph-name="acircumflex" unicode="&#xe2;" horiz-adv-x="498" 
d="M432 366c0 -9 -2 -24 -4 -36l-66 -330h-48l11 50c-40 -40 -82 -56 -147 -56c-73 0 -148 21 -148 113c0 38 12 80 44 112c40 40 87 51 141 51h153l12 60c2 10 4 23 4 36c0 53 -42 79 -107 79s-102 -19 -142 -63l-31 34c45 51 95 72 172 72c62 0 156 -17 156 -122zM360 231
h-140c-82 0 -141 -41 -141 -124c0 -47 31 -71 110 -71c46 0 86 14 115 42c21 21 36 49 43 85zM444 584h-51l-67 111l-112 -111h-57l146 147h52z" />
    <glyph glyph-name="atilde" unicode="&#xe3;" horiz-adv-x="498" 
d="M432 366c0 -9 -2 -24 -4 -36l-66 -330h-48l11 50c-40 -40 -82 -56 -147 -56c-73 0 -148 21 -148 113c0 38 12 80 44 112c40 40 87 51 141 51h153l12 60c2 10 4 23 4 36c0 53 -42 79 -107 79s-102 -19 -142 -63l-31 34c45 51 95 72 172 72c62 0 156 -17 156 -122zM360 231
h-140c-82 0 -141 -41 -141 -124c0 -47 31 -71 110 -71c46 0 86 14 115 42c21 21 36 49 43 85zM458 645c-34 -32 -62 -46 -91 -46c-26 0 -48 11 -66 25c-22 17 -30 20 -51 20c-19 0 -35 -10 -62 -35l-24 30c34 32 62 46 91 46c26 0 48 -11 66 -25c22 -17 30 -20 51 -20
c19 0 35 10 62 35z" />
    <glyph glyph-name="adieresis" unicode="&#xe4;" horiz-adv-x="498" 
d="M432 366c0 -9 -2 -24 -4 -36l-66 -330h-48l11 50c-40 -40 -82 -56 -147 -56c-73 0 -148 21 -148 113c0 38 12 80 44 112c40 40 87 51 141 51h153l12 60c2 10 4 23 4 36c0 53 -42 79 -107 79s-102 -19 -142 -63l-31 34c45 51 95 72 172 72c62 0 156 -17 156 -122zM360 231
h-140c-82 0 -141 -41 -141 -124c0 -47 31 -71 110 -71c46 0 86 14 115 42c21 21 36 49 43 85zM251 669l-15 -75h-55l15 75h55zM448 669l-15 -75h-55l15 75h55z" />
    <glyph glyph-name="aring" unicode="&#xe5;" horiz-adv-x="498" 
d="M432 366c0 -9 -2 -24 -4 -36l-66 -330h-48l11 50c-40 -40 -82 -56 -147 -56c-73 0 -148 21 -148 113c0 38 12 80 44 112c40 40 87 51 141 51h153l12 60c2 10 4 23 4 36c0 53 -42 79 -107 79s-102 -19 -142 -63l-31 34c45 51 95 72 172 72c62 0 156 -17 156 -122zM360 231
h-140c-82 0 -141 -41 -141 -124c0 -47 31 -71 110 -71c46 0 86 14 115 42c21 21 36 49 43 85zM434 677c0 -63 -51 -115 -114 -115s-114 52 -114 115s51 114 114 114s114 -51 114 -114zM395 677c0 40 -35 74 -75 74s-75 -34 -75 -74s35 -75 75 -75s75 35 75 75z" />
    <glyph glyph-name="ae" unicode="&#xe6;" horiz-adv-x="798" 
d="M739 326c0 -21 -4 -58 -11 -95h-319c-4 -23 -7 -45 -7 -71c0 -70 34 -123 113 -123c61 0 100 20 144 60l33 -33c-52 -48 -105 -70 -179 -70c-71 0 -125 34 -146 91c-33 -59 -86 -91 -182 -91c-80 0 -155 21 -155 113c0 38 12 80 44 112c40 40 87 51 141 51h153l12 60
c2 10 4 23 4 36c0 53 -42 79 -107 79s-102 -19 -142 -63l-31 34c45 51 95 72 172 72c54 0 124 -14 150 -86c36 52 91 86 163 86c103 0 150 -76 150 -162zM360 231h-140c-82 0 -141 -41 -141 -124c0 -47 31 -71 110 -71c46 0 86 14 115 42c21 21 36 49 43 85zM691 326
c0 85 -50 120 -103 120c-80 0 -141 -56 -172 -176h270c3 18 5 32 5 56z" />
    <glyph glyph-name="ccedilla" unicode="&#xe7;" horiz-adv-x="469" 
d="M445 414l-36 -29c-29 43 -59 61 -107 61c-42 0 -85 -16 -122 -55c-39 -42 -60 -101 -69 -150c-5 -27 -8 -49 -8 -76c0 -94 61 -129 120 -129c52 0 89 19 131 63l30 -35c-48 -49 -104 -70 -161 -70c-123 0 -168 85 -168 174c0 18 2 48 7 73c27 145 110 247 245 247
c66 0 106 -28 138 -74zM237 -68l-89 -148h-61l97 148h53z" />
    <glyph glyph-name="egrave" unicode="&#xe8;" horiz-adv-x="499" 
d="M440 326c0 -21 -4 -58 -11 -95h-319c-4 -23 -7 -45 -7 -71c0 -70 34 -123 113 -123c61 0 100 20 144 60l33 -33c-52 -48 -105 -70 -179 -70c-99 0 -159 60 -159 165c0 137 62 329 235 329c103 0 150 -76 150 -162zM392 326c0 85 -50 120 -103 120
c-80 0 -141 -56 -172 -176h270c3 18 5 32 5 56zM344 584h-52l-71 145h61z" />
    <glyph glyph-name="eacute" unicode="&#xe9;" horiz-adv-x="499" 
d="M440 326c0 -21 -4 -58 -11 -95h-319c-4 -23 -7 -45 -7 -71c0 -70 34 -123 113 -123c61 0 100 20 144 60l33 -33c-52 -48 -105 -70 -179 -70c-99 0 -159 60 -159 165c0 137 62 329 235 329c103 0 150 -76 150 -162zM392 326c0 85 -50 120 -103 120
c-80 0 -141 -56 -172 -176h270c3 18 5 32 5 56zM456 729l-127 -145h-58l120 145h65z" />
    <glyph glyph-name="ecircumflex" unicode="&#xea;" horiz-adv-x="499" 
d="M440 326c0 -21 -4 -58 -11 -95h-319c-4 -23 -7 -45 -7 -71c0 -70 34 -123 113 -123c61 0 100 20 144 60l33 -33c-52 -48 -105 -70 -179 -70c-99 0 -159 60 -159 165c0 137 62 329 235 329c103 0 150 -76 150 -162zM392 326c0 85 -50 120 -103 120
c-80 0 -141 -56 -172 -176h270c3 18 5 32 5 56zM459 584h-51l-67 111l-112 -111h-57l146 147h52z" />
    <glyph glyph-name="edieresis" unicode="&#xeb;" horiz-adv-x="499" 
d="M440 326c0 -21 -4 -58 -11 -95h-319c-4 -23 -7 -45 -7 -71c0 -70 34 -123 113 -123c61 0 100 20 144 60l33 -33c-52 -48 -105 -70 -179 -70c-99 0 -159 60 -159 165c0 137 62 329 235 329c103 0 150 -76 150 -162zM392 326c0 85 -50 120 -103 120
c-80 0 -141 -56 -172 -176h270c3 18 5 32 5 56zM266 669l-15 -75h-55l15 75h55zM463 669l-15 -75h-55l15 75h55z" />
    <glyph glyph-name="igrave" unicode="&#xec;" horiz-adv-x="233" 
d="M189 482l-96 -482h-49l96 482h49zM203 584h-52l-71 145h61z" />
    <glyph glyph-name="iacute" unicode="&#xed;" horiz-adv-x="233" 
d="M189 482l-96 -482h-49l96 482h49zM335 729l-127 -145h-58l120 145h65z" />
    <glyph glyph-name="icircumflex" unicode="&#xee;" horiz-adv-x="233" 
d="M189 482l-96 -482h-49l96 482h49zM318 584h-51l-67 111l-112 -111h-57l146 147h52z" />
    <glyph glyph-name="idieresis" unicode="&#xef;" horiz-adv-x="233" 
d="M189 482l-96 -482h-49l96 482h49zM125 669l-15 -75h-55l15 75h55zM322 669l-15 -75h-55l15 75h55z" />
    <glyph glyph-name="eth" unicode="&#xf0;" horiz-adv-x="500" 
d="M431 621l-6 -36h-57l46 -124c22 -60 28 -101 28 -136c0 -29 -5 -62 -9 -84c-21 -108 -55 -163 -93 -196c-42 -37 -89 -51 -133 -51c-47 0 -152 20 -152 160c0 29 5 65 9 87c21 108 55 163 93 196c42 37 89 51 133 51c36 0 59 -7 76 -19l-44 116h-112l7 36h93l-34 91h47
l33 -91h75zM394 330c0 86 -54 116 -106 116c-38 0 -77 -18 -103 -44c-32 -32 -55 -74 -72 -161c-6 -32 -10 -65 -10 -89c0 -86 54 -116 106 -116c38 0 77 18 103 44c32 32 55 74 72 161c6 32 10 65 10 89z" />
    <glyph glyph-name="ntilde" unicode="&#xf1;" horiz-adv-x="531" 
d="M463 351c0 -12 -2 -31 -5 -46l-61 -305h-49l60 299c3 17 6 36 6 51c0 65 -42 96 -101 96c-34 0 -134 -16 -161 -150l-59 -296h-49l96 482h49l-11 -57c33 39 79 63 149 63c80 0 136 -53 136 -137zM489 645c-34 -32 -62 -46 -91 -46c-26 0 -48 11 -66 25
c-22 17 -30 20 -51 20c-19 0 -35 -10 -62 -35l-24 30c34 32 62 46 91 46c26 0 48 -11 66 -25c22 -17 30 -20 51 -20c19 0 35 10 62 35z" />
    <glyph glyph-name="ograve" unicode="&#xf2;" 
d="M442 330c0 -29 -5 -68 -9 -89c-21 -108 -55 -163 -93 -196c-42 -37 -86 -51 -133 -51c-75 0 -152 41 -152 158c0 29 5 68 9 89c21 108 55 163 93 196c42 37 86 51 133 51c75 0 152 -41 152 -158zM394 328c0 86 -52 118 -107 118c-38 0 -76 -17 -102 -43
c-32 -32 -55 -75 -72 -162c-6 -32 -10 -64 -10 -87c0 -86 52 -118 107 -118c38 0 76 17 102 43c32 32 55 75 72 162c6 32 10 64 10 87zM343 584h-52l-71 145h61z" />
    <glyph glyph-name="oacute" unicode="&#xf3;" 
d="M442 330c0 -29 -5 -68 -9 -89c-21 -108 -55 -163 -93 -196c-42 -37 -86 -51 -133 -51c-75 0 -152 41 -152 158c0 29 5 68 9 89c21 108 55 163 93 196c42 37 86 51 133 51c75 0 152 -41 152 -158zM394 328c0 86 -52 118 -107 118c-38 0 -76 -17 -102 -43
c-32 -32 -55 -75 -72 -162c-6 -32 -10 -64 -10 -87c0 -86 52 -118 107 -118c38 0 76 17 102 43c32 32 55 75 72 162c6 32 10 64 10 87zM455 729l-127 -145h-58l120 145h65z" />
    <glyph glyph-name="ocircumflex" unicode="&#xf4;" 
d="M442 330c0 -29 -5 -68 -9 -89c-21 -108 -55 -163 -93 -196c-42 -37 -86 -51 -133 -51c-75 0 -152 41 -152 158c0 29 5 68 9 89c21 108 55 163 93 196c42 37 86 51 133 51c75 0 152 -41 152 -158zM394 328c0 86 -52 118 -107 118c-38 0 -76 -17 -102 -43
c-32 -32 -55 -75 -72 -162c-6 -32 -10 -64 -10 -87c0 -86 52 -118 107 -118c38 0 76 17 102 43c32 32 55 75 72 162c6 32 10 64 10 87zM458 584h-51l-67 111l-112 -111h-57l146 147h52z" />
    <glyph glyph-name="otilde" unicode="&#xf5;" 
d="M442 330c0 -29 -5 -68 -9 -89c-21 -108 -55 -163 -93 -196c-42 -37 -86 -51 -133 -51c-75 0 -152 41 -152 158c0 29 5 68 9 89c21 108 55 163 93 196c42 37 86 51 133 51c75 0 152 -41 152 -158zM394 328c0 86 -52 118 -107 118c-38 0 -76 -17 -102 -43
c-32 -32 -55 -75 -72 -162c-6 -32 -10 -64 -10 -87c0 -86 52 -118 107 -118c38 0 76 17 102 43c32 32 55 75 72 162c6 32 10 64 10 87zM472 645c-34 -32 -62 -46 -91 -46c-26 0 -48 11 -66 25c-22 17 -30 20 -51 20c-19 0 -35 -10 -62 -35l-24 30c34 32 62 46 91 46
c26 0 48 -11 66 -25c22 -17 30 -20 51 -20c19 0 35 10 62 35z" />
    <glyph glyph-name="odieresis" unicode="&#xf6;" 
d="M442 330c0 -29 -5 -68 -9 -89c-21 -108 -55 -163 -93 -196c-42 -37 -86 -51 -133 -51c-75 0 -152 41 -152 158c0 29 5 68 9 89c21 108 55 163 93 196c42 37 86 51 133 51c75 0 152 -41 152 -158zM394 328c0 86 -52 118 -107 118c-38 0 -76 -17 -102 -43
c-32 -32 -55 -75 -72 -162c-6 -32 -10 -64 -10 -87c0 -86 52 -118 107 -118c38 0 76 17 102 43c32 32 55 75 72 162c6 32 10 64 10 87zM265 669l-15 -75h-55l15 75h55zM462 669l-15 -75h-55l15 75h55z" />
    <glyph glyph-name="divide" unicode="&#xf7;" horiz-adv-x="488" 
d="M258 135l-13 -67h-67l14 67h66zM447 286l-9 -44h-387l8 44h388zM319 460l-13 -67h-67l14 67h66z" />
    <glyph glyph-name="oslash" unicode="&#xf8;" 
d="M442 330c0 -29 -5 -68 -9 -89c-21 -108 -55 -163 -93 -196c-42 -37 -86 -51 -133 -51c-35 0 -71 9 -99 30l-51 -68h-47l72 96c-17 24 -27 57 -27 100c0 29 5 68 9 89c21 108 55 163 93 196c42 37 86 51 133 51c34 0 70 -9 97 -30l51 68h47l-71 -95c17 -25 28 -58 28 -101
zM394 328c0 25 -4 45 -12 61l-246 -327c20 -19 47 -26 74 -26c38 0 76 17 102 43c32 32 55 75 72 162c6 32 10 64 10 87zM103 154c0 -24 4 -44 11 -60l245 327c-20 17 -46 25 -72 25c-38 0 -76 -17 -102 -43c-32 -32 -55 -75 -72 -162c-6 -32 -10 -64 -10 -87z" />
    <glyph glyph-name="ugrave" unicode="&#xf9;" horiz-adv-x="531" 
d="M486 482l-96 -482h-49l11 57c-33 -39 -78 -63 -146 -63c-82 0 -139 53 -139 137c0 15 2 31 5 46l61 305h49l-60 -299c-3 -15 -6 -34 -6 -51c0 -65 42 -96 100 -96c35 0 135 16 162 150l59 296h49zM356 584h-52l-71 145h61z" />
    <glyph glyph-name="uacute" unicode="&#xfa;" horiz-adv-x="531" 
d="M486 482l-96 -482h-49l11 57c-33 -39 -78 -63 -146 -63c-82 0 -139 53 -139 137c0 15 2 31 5 46l61 305h49l-60 -299c-3 -15 -6 -34 -6 -51c0 -65 42 -96 100 -96c35 0 135 16 162 150l59 296h49zM468 729l-127 -145h-58l120 145h65z" />
    <glyph glyph-name="ucircumflex" unicode="&#xfb;" horiz-adv-x="531" 
d="M486 482l-96 -482h-49l11 57c-33 -39 -78 -63 -146 -63c-82 0 -139 53 -139 137c0 15 2 31 5 46l61 305h49l-60 -299c-3 -15 -6 -34 -6 -51c0 -65 42 -96 100 -96c35 0 135 16 162 150l59 296h49zM471 584h-51l-67 111l-112 -111h-57l146 147h52z" />
    <glyph glyph-name="udieresis" unicode="&#xfc;" horiz-adv-x="531" 
d="M486 482l-96 -482h-49l11 57c-33 -39 -78 -63 -146 -63c-82 0 -139 53 -139 137c0 15 2 31 5 46l61 305h49l-60 -299c-3 -15 -6 -34 -6 -51c0 -65 42 -96 100 -96c35 0 135 16 162 150l59 296h49zM278 669l-15 -75h-55l15 75h55zM475 669l-15 -75h-55l15 75h55z" />
    <glyph glyph-name="yacute" unicode="&#xfd;" horiz-adv-x="408" 
d="M441 482l-329 -614c-18 -34 -30 -47 -42 -58c-21 -19 -48 -28 -93 -28h-25l9 42h19c52 0 68 16 96 70l56 107l-71 481h50l56 -421l219 421h55zM404 729l-127 -145h-58l120 145h65z" />
    <glyph glyph-name="thorn" unicode="&#xfe;" horiz-adv-x="513" 
d="M458 330c0 -18 -3 -53 -10 -89c-16 -82 -39 -150 -85 -196c-38 -38 -85 -51 -131 -51c-45 0 -99 14 -125 73l-60 -297h-49l188 942h49l-58 -291c21 28 57 67 140 67c96 0 141 -58 141 -158zM410 330c0 66 -24 116 -99 116c-110 0 -150 -101 -170 -205
c-6 -31 -11 -63 -11 -89c0 -66 24 -116 99 -116c110 0 150 101 170 205c6 31 11 63 11 89z" />
    <glyph glyph-name="ydieresis" unicode="&#xff;" horiz-adv-x="408" 
d="M441 482l-329 -614c-18 -34 -30 -47 -42 -58c-21 -19 -48 -28 -93 -28h-25l9 42h19c52 0 68 16 96 70l56 107l-71 481h50l56 -421l219 421h55zM214 669l-15 -75h-55l15 75h55zM411 669l-15 -75h-55l15 75h55z" />
    <glyph glyph-name="Amacron" unicode="&#x100;" horiz-adv-x="572" 
d="M510 0h-53l-25 173h-314l-94 -173h-57l390 712h46zM427 218l-60 422l-226 -422h286zM537 843l-9 -43h-281l9 43h281z" />
    <glyph glyph-name="amacron" unicode="&#x101;" horiz-adv-x="498" 
d="M432 366c0 -9 -2 -24 -4 -36l-66 -330h-48l11 50c-40 -40 -82 -56 -147 -56c-73 0 -148 21 -148 113c0 38 12 80 44 112c40 40 87 51 141 51h153l12 60c2 10 4 23 4 36c0 53 -42 79 -107 79s-102 -19 -142 -63l-31 34c45 51 95 72 172 72c62 0 156 -17 156 -122zM360 231
h-140c-82 0 -141 -41 -141 -124c0 -47 31 -71 110 -71c46 0 86 14 115 42c21 21 36 49 43 85zM460 653l-9 -43h-281l9 43h281z" />
    <glyph glyph-name="Abreve" unicode="&#x102;" horiz-adv-x="572" 
d="M510 0h-53l-25 173h-314l-94 -173h-57l390 712h46zM427 218l-60 422l-226 -422h286zM538 891c-20 -83 -71 -118 -151 -118c-72 0 -120 31 -120 97c0 3 0 10 1 21h44c-1 -10 -1 -15 -1 -19c0 -36 29 -57 81 -57c59 0 90 27 102 76h44z" />
    <glyph glyph-name="abreve" unicode="&#x103;" horiz-adv-x="498" 
d="M432 366c0 -9 -2 -24 -4 -36l-66 -330h-48l11 50c-40 -40 -82 -56 -147 -56c-73 0 -148 21 -148 113c0 38 12 80 44 112c40 40 87 51 141 51h153l12 60c2 10 4 23 4 36c0 53 -42 79 -107 79s-102 -19 -142 -63l-31 34c45 51 95 72 172 72c62 0 156 -17 156 -122zM360 231
h-140c-82 0 -141 -41 -141 -124c0 -47 31 -71 110 -71c46 0 86 14 115 42c21 21 36 49 43 85zM460 695c-20 -83 -71 -118 -151 -118c-72 0 -120 31 -120 97c0 3 0 10 1 21h44c-1 -10 -1 -15 -1 -19c0 -36 29 -57 81 -57c59 0 90 27 102 76h44z" />
    <glyph glyph-name="Aogonek" unicode="&#x104;" horiz-adv-x="572" 
d="M510 0h-53l-25 173h-314l-94 -173h-57l390 712h46zM427 218l-60 422l-226 -422h286zM498 -68l-89 -148h-61l97 148h53z" />
    <glyph glyph-name="aogonek" unicode="&#x105;" horiz-adv-x="498" 
d="M432 366c0 -9 -2 -24 -4 -36l-66 -330h-48l11 50c-40 -40 -82 -56 -147 -56c-73 0 -148 21 -148 113c0 38 12 80 44 112c40 40 87 51 141 51h153l12 60c2 10 4 23 4 36c0 53 -42 79 -107 79s-102 -19 -142 -63l-31 34c45 51 95 72 172 72c62 0 156 -17 156 -122zM360 231
h-140c-82 0 -141 -41 -141 -124c0 -47 31 -71 110 -71c46 0 86 14 115 42c21 21 36 49 43 85zM350 -68l-89 -148h-61l97 148h53z" />
    <glyph glyph-name="Cacute" unicode="&#x106;" horiz-adv-x="612" 
d="M590 513h-52c-1 99 -56 160 -148 160c-60 0 -110 -24 -150 -66c-43 -45 -59 -101 -89 -251c-21 -105 -25 -144 -25 -174c0 -90 72 -143 151 -143c110 0 179 78 207 160h53c-39 -127 -140 -205 -263 -205c-104 0 -200 62 -200 188c0 29 3 69 25 174c35 170 49 226 106 285
c42 44 108 77 184 77c133 0 200 -85 201 -205zM543 919l-127 -145h-58l120 145h65z" />
    <glyph glyph-name="cacute" unicode="&#x107;" horiz-adv-x="469" 
d="M445 414l-36 -29c-29 43 -59 61 -107 61c-42 0 -85 -16 -122 -55c-39 -42 -60 -101 -69 -150c-5 -27 -8 -49 -8 -76c0 -94 61 -129 120 -129c52 0 89 19 131 63l30 -35c-48 -49 -104 -70 -161 -70c-123 0 -168 85 -168 174c0 18 2 48 7 73c27 145 110 247 245 247
c66 0 106 -28 138 -74zM472 729l-127 -145h-58l120 145h65z" />
    <glyph glyph-name="Ccircumflex" unicode="&#x108;" horiz-adv-x="612" 
d="M590 513h-52c-1 99 -56 160 -148 160c-60 0 -110 -24 -150 -66c-43 -45 -59 -101 -89 -251c-21 -105 -25 -144 -25 -174c0 -90 72 -143 151 -143c110 0 179 78 207 160h53c-39 -127 -140 -205 -263 -205c-104 0 -200 62 -200 188c0 29 3 69 25 174c35 170 49 226 106 285
c42 44 108 77 184 77c133 0 200 -85 201 -205zM546 774h-51l-67 111l-112 -111h-57l146 147h52z" />
    <glyph glyph-name="ccircumflex" unicode="&#x109;" horiz-adv-x="469" 
d="M445 414l-36 -29c-29 43 -59 61 -107 61c-42 0 -85 -16 -122 -55c-39 -42 -60 -101 -69 -150c-5 -27 -8 -49 -8 -76c0 -94 61 -129 120 -129c52 0 89 19 131 63l30 -35c-48 -49 -104 -70 -161 -70c-123 0 -168 85 -168 174c0 18 2 48 7 73c27 145 110 247 245 247
c66 0 106 -28 138 -74zM475 584h-51l-67 111l-112 -111h-57l146 147h52z" />
    <glyph glyph-name="Cdotaccent" unicode="&#x10a;" horiz-adv-x="612" 
d="M590 513h-52c-1 99 -56 160 -148 160c-60 0 -110 -24 -150 -66c-43 -45 -59 -101 -89 -251c-21 -105 -25 -144 -25 -174c0 -90 72 -143 151 -143c110 0 179 78 207 160h53c-39 -127 -140 -205 -263 -205c-104 0 -200 62 -200 188c0 29 3 69 25 174c35 170 49 226 106 285
c42 44 108 77 184 77c133 0 200 -85 201 -205zM453 854l-12 -60h-60l12 60h60z" />
    <glyph glyph-name="cdotaccent" unicode="&#x10b;" horiz-adv-x="469" 
d="M445 414l-36 -29c-29 43 -59 61 -107 61c-42 0 -85 -16 -122 -55c-39 -42 -60 -101 -69 -150c-5 -27 -8 -49 -8 -76c0 -94 61 -129 120 -129c52 0 89 19 131 63l30 -35c-48 -49 -104 -70 -161 -70c-123 0 -168 85 -168 174c0 18 2 48 7 73c27 145 110 247 245 247
c66 0 106 -28 138 -74zM382 664l-12 -60h-60l12 60h60z" />
    <glyph glyph-name="Ccaron" unicode="&#x10c;" horiz-adv-x="612" 
d="M590 513h-52c-1 99 -56 160 -148 160c-60 0 -110 -24 -150 -66c-43 -45 -59 -101 -89 -251c-21 -105 -25 -144 -25 -174c0 -90 72 -143 151 -143c110 0 179 78 207 160h53c-39 -127 -140 -205 -263 -205c-104 0 -200 62 -200 188c0 29 3 69 25 174c35 170 49 226 106 285
c42 44 108 77 184 77c133 0 200 -85 201 -205zM577 921l-146 -147h-52l-89 147h51l67 -111l112 111h57z" />
    <glyph glyph-name="ccaron" unicode="&#x10d;" horiz-adv-x="469" 
d="M445 414l-36 -29c-29 43 -59 61 -107 61c-42 0 -85 -16 -122 -55c-39 -42 -60 -101 -69 -150c-5 -27 -8 -49 -8 -76c0 -94 61 -129 120 -129c52 0 89 19 131 63l30 -35c-48 -49 -104 -70 -161 -70c-123 0 -168 85 -168 174c0 18 2 48 7 73c27 145 110 247 245 247
c66 0 106 -28 138 -74zM496 731l-146 -147h-52l-89 147h51l67 -111l112 111h57z" />
    <glyph glyph-name="Dcaron" unicode="&#x10e;" horiz-adv-x="644" 
d="M613 520c0 -37 -5 -72 -21 -154c-32 -166 -59 -245 -124 -303c-48 -43 -114 -63 -181 -63h-231l143 712h218c89 0 196 -37 196 -192zM562 520c0 86 -43 147 -155 147h-165l-125 -622h163c54 0 110 13 157 55c48 43 75 119 103 266c16 83 22 116 22 154zM585 921
l-146 -147h-52l-89 147h51l67 -111l112 111h57z" />
    <glyph glyph-name="dcaron" unicode="&#x10f;" horiz-adv-x="513" 
d="M516 712l-142 -712h-49l13 62c-49 -60 -97 -68 -141 -68c-104 0 -141 66 -141 158c0 29 4 59 10 89c15 77 39 149 85 195c38 38 81 52 132 52c44 0 97 -14 124 -73l60 297h49zM384 332c0 64 -24 114 -99 114c-110 0 -150 -101 -170 -205c-6 -31 -11 -63 -11 -91
c0 -64 24 -114 99 -114c110 0 150 101 170 205c6 31 11 63 11 91zM667 712l-77 -148h-47l69 148h55z" />
    <glyph glyph-name="Dcroat" unicode="&#x110;" horiz-adv-x="655" 
d="M623 520c0 -37 -5 -72 -21 -154c-32 -166 -59 -245 -124 -303c-48 -43 -114 -63 -181 -63h-231l68 339h-76l8 40h76l67 333h218c89 0 196 -37 196 -192zM572 520c0 86 -43 147 -155 147h-165l-58 -288h169l-8 -40h-169l-59 -294h163c54 0 110 13 157 55
c48 43 75 119 103 266c16 83 22 116 22 154z" />
    <glyph glyph-name="dcroat" unicode="&#x111;" horiz-adv-x="513" 
d="M560 611l-8 -36h-64l-114 -575h-49l13 62c-49 -60 -97 -68 -141 -68c-104 0 -141 66 -141 158c0 29 4 59 10 89c15 77 39 149 85 195c38 38 81 52 132 52c44 0 97 -14 124 -73l32 160h-135l7 36h136l20 101h49l-20 -101h64zM384 332c0 64 -24 114 -99 114
c-110 0 -150 -101 -170 -205c-6 -31 -11 -63 -11 -91c0 -64 24 -114 99 -114c110 0 150 101 170 205c6 31 11 63 11 91z" />
    <glyph glyph-name="Emacron" unicode="&#x112;" horiz-adv-x="570" 
d="M609 712l-9 -45h-358l-57 -285h307l-9 -45h-307l-59 -292h365l-9 -45h-417l143 712h410zM561 843l-9 -43h-281l9 43h281z" />
    <glyph glyph-name="emacron" unicode="&#x113;" horiz-adv-x="499" 
d="M440 326c0 -21 -4 -58 -11 -95h-319c-4 -23 -7 -45 -7 -71c0 -70 34 -123 113 -123c61 0 100 20 144 60l33 -33c-52 -48 -105 -70 -179 -70c-99 0 -159 60 -159 165c0 137 62 329 235 329c103 0 150 -76 150 -162zM392 326c0 85 -50 120 -103 120
c-80 0 -141 -56 -172 -176h270c3 18 5 32 5 56zM475 653l-9 -43h-281l9 43h281z" />
    <glyph glyph-name="Ebreve" unicode="&#x114;" horiz-adv-x="570" 
d="M609 712l-9 -45h-358l-57 -285h307l-9 -45h-307l-59 -292h365l-9 -45h-417l143 712h410zM558 891c-20 -83 -71 -118 -151 -118c-72 0 -120 31 -120 97c0 3 0 10 1 21h44c-1 -10 -1 -15 -1 -19c0 -36 29 -57 81 -57c59 0 90 27 102 76h44z" />
    <glyph glyph-name="ebreve" unicode="&#x115;" horiz-adv-x="499" 
d="M440 326c0 -21 -4 -58 -11 -95h-319c-4 -23 -7 -45 -7 -71c0 -70 34 -123 113 -123c61 0 100 20 144 60l33 -33c-52 -48 -105 -70 -179 -70c-99 0 -159 60 -159 165c0 137 62 329 235 329c103 0 150 -76 150 -162zM392 326c0 85 -50 120 -103 120
c-80 0 -141 -56 -172 -176h270c3 18 5 32 5 56zM465 695c-20 -83 -71 -118 -151 -118c-72 0 -120 31 -120 97c0 3 0 10 1 21h44c-1 -10 -1 -15 -1 -19c0 -36 29 -57 81 -57c59 0 90 27 102 76h44z" />
    <glyph glyph-name="Edotaccent" unicode="&#x116;" horiz-adv-x="570" 
d="M609 712l-9 -45h-358l-57 -285h307l-9 -45h-307l-59 -292h365l-9 -45h-417l143 712h410zM453 854l-12 -60h-60l12 60h60z" />
    <glyph glyph-name="edotaccent" unicode="&#x117;" horiz-adv-x="499" 
d="M440 326c0 -21 -4 -58 -11 -95h-319c-4 -23 -7 -45 -7 -71c0 -70 34 -123 113 -123c61 0 100 20 144 60l33 -33c-52 -48 -105 -70 -179 -70c-99 0 -159 60 -159 165c0 137 62 329 235 329c103 0 150 -76 150 -162zM392 326c0 85 -50 120 -103 120
c-80 0 -141 -56 -172 -176h270c3 18 5 32 5 56zM366 664l-12 -60h-60l12 60h60z" />
    <glyph glyph-name="Eogonek" unicode="&#x118;" horiz-adv-x="570" 
d="M609 712l-9 -45h-358l-57 -285h307l-9 -45h-307l-59 -292h365l-9 -45h-417l143 712h410zM456 -68l-89 -148h-61l97 148h53z" />
    <glyph glyph-name="eogonek" unicode="&#x119;" horiz-adv-x="499" 
d="M440 326c0 -21 -4 -58 -11 -95h-319c-4 -23 -7 -45 -7 -71c0 -70 34 -123 113 -123c61 0 100 20 144 60l33 -33c-52 -48 -105 -70 -179 -70c-99 0 -159 60 -159 165c0 137 62 329 235 329c103 0 150 -76 150 -162zM392 326c0 85 -50 120 -103 120
c-80 0 -141 -56 -172 -176h270c3 18 5 32 5 56zM296 -68l-89 -148h-61l97 148h53z" />
    <glyph glyph-name="Ecaron" unicode="&#x11a;" horiz-adv-x="570" 
d="M609 712l-9 -45h-358l-57 -285h307l-9 -45h-307l-59 -292h365l-9 -45h-417l143 712h410zM567 921l-146 -147h-52l-89 147h51l67 -111l112 111h57z" />
    <glyph glyph-name="ecaron" unicode="&#x11b;" horiz-adv-x="499" 
d="M440 326c0 -21 -4 -58 -11 -95h-319c-4 -23 -7 -45 -7 -71c0 -70 34 -123 113 -123c61 0 100 20 144 60l33 -33c-52 -48 -105 -70 -179 -70c-99 0 -159 60 -159 165c0 137 62 329 235 329c103 0 150 -76 150 -162zM392 326c0 85 -50 120 -103 120
c-80 0 -141 -56 -172 -176h270c3 18 5 32 5 56zM480 731l-146 -147h-52l-89 147h51l67 -111l112 111h57z" />
    <glyph glyph-name="Gcircumflex" unicode="&#x11c;" horiz-adv-x="620" 
d="M590 513h-52c-1 99 -56 160 -148 160c-60 0 -110 -24 -150 -66c-43 -45 -59 -101 -89 -251c-21 -105 -25 -144 -25 -174c0 -90 72 -143 151 -143c78 0 186 53 216 211l13 69h-181l8 45h233l-22 -117c-15 -78 -42 -133 -86 -177c-40 -40 -102 -76 -184 -76
c-104 0 -200 62 -200 188c0 29 3 69 25 174c35 170 49 226 106 285c42 44 108 77 184 77c133 0 200 -85 201 -205zM546 774h-51l-67 111l-112 -111h-57l146 147h52z" />
    <glyph glyph-name="gcircumflex" unicode="&#x11d;" horiz-adv-x="513" 
d="M469 482l-101 -506c-37 -186 -156 -212 -223 -212c-63 0 -108 23 -142 64l36 31c24 -31 56 -53 107 -53c70 0 147 41 174 170l18 85c-32 -41 -74 -67 -144 -67c-93 0 -139 58 -139 154c0 24 3 52 10 93c15 81 39 150 85 196c38 38 85 51 131 51c45 0 99 -12 126 -73
l13 67h49zM384 333c0 76 -35 113 -99 113c-110 0 -152 -104 -171 -205c-6 -31 -11 -63 -11 -92c0 -63 21 -113 99 -113c108 0 152 105 171 205c6 31 11 63 11 92zM453 584h-51l-67 111l-112 -111h-57l146 147h52z" />
    <glyph glyph-name="Gbreve" unicode="&#x11e;" horiz-adv-x="620" 
d="M590 513h-52c-1 99 -56 160 -148 160c-60 0 -110 -24 -150 -66c-43 -45 -59 -101 -89 -251c-21 -105 -25 -144 -25 -174c0 -90 72 -143 151 -143c78 0 186 53 216 211l13 69h-181l8 45h233l-22 -117c-15 -78 -42 -133 -86 -177c-40 -40 -102 -76 -184 -76
c-104 0 -200 62 -200 188c0 29 3 69 25 174c35 170 49 226 106 285c42 44 108 77 184 77c133 0 200 -85 201 -205zM562 891c-20 -83 -71 -118 -151 -118c-72 0 -120 31 -120 97c0 3 0 10 1 21h44c-1 -10 -1 -15 -1 -19c0 -36 29 -57 81 -57c59 0 90 27 102 76h44z" />
    <glyph glyph-name="gbreve" unicode="&#x11f;" horiz-adv-x="513" 
d="M469 482l-101 -506c-37 -186 -156 -212 -223 -212c-63 0 -108 23 -142 64l36 31c24 -31 56 -53 107 -53c70 0 147 41 174 170l18 85c-32 -41 -74 -67 -144 -67c-93 0 -139 58 -139 154c0 24 3 52 10 93c15 81 39 150 85 196c38 38 85 51 131 51c45 0 99 -12 126 -73
l13 67h49zM384 333c0 76 -35 113 -99 113c-110 0 -152 -104 -171 -205c-6 -31 -11 -63 -11 -92c0 -63 21 -113 99 -113c108 0 152 105 171 205c6 31 11 63 11 92zM469 695c-20 -83 -71 -118 -151 -118c-72 0 -120 31 -120 97c0 3 0 10 1 21h44c-1 -10 -1 -15 -1 -19
c0 -36 29 -57 81 -57c59 0 90 27 102 76h44z" />
    <glyph glyph-name="Gdotaccent" unicode="&#x120;" horiz-adv-x="620" 
d="M590 513h-52c-1 99 -56 160 -148 160c-60 0 -110 -24 -150 -66c-43 -45 -59 -101 -89 -251c-21 -105 -25 -144 -25 -174c0 -90 72 -143 151 -143c78 0 186 53 216 211l13 69h-181l8 45h233l-22 -117c-15 -78 -42 -133 -86 -177c-40 -40 -102 -76 -184 -76
c-104 0 -200 62 -200 188c0 29 3 69 25 174c35 170 49 226 106 285c42 44 108 77 184 77c133 0 200 -85 201 -205zM453 854l-12 -60h-60l12 60h60z" />
    <glyph glyph-name="gdotaccent" unicode="&#x121;" horiz-adv-x="513" 
d="M469 482l-101 -506c-37 -186 -156 -212 -223 -212c-63 0 -108 23 -142 64l36 31c24 -31 56 -53 107 -53c70 0 147 41 174 170l18 85c-32 -41 -74 -67 -144 -67c-93 0 -139 58 -139 154c0 24 3 52 10 93c15 81 39 150 85 196c38 38 85 51 131 51c45 0 99 -12 126 -73
l13 67h49zM384 333c0 76 -35 113 -99 113c-110 0 -152 -104 -171 -205c-6 -31 -11 -63 -11 -92c0 -63 21 -113 99 -113c108 0 152 105 171 205c6 31 11 63 11 92zM360 664l-12 -60h-60l12 60h60z" />
    <glyph glyph-name="Gcommaaccent" unicode="&#x122;" horiz-adv-x="620" 
d="M590 513h-52c-1 99 -56 160 -148 160c-60 0 -110 -24 -150 -66c-43 -45 -59 -101 -89 -251c-21 -105 -25 -144 -25 -174c0 -90 72 -143 151 -143c78 0 186 53 216 211l13 69h-181l8 45h233l-22 -117c-15 -78 -42 -133 -86 -177c-40 -40 -102 -76 -184 -76
c-104 0 -200 62 -200 188c0 29 3 69 25 174c35 170 49 226 106 285c42 44 108 77 184 77c133 0 200 -85 201 -205zM290 -68l-89 -148h-61l97 148h53z" />
    <glyph glyph-name="gcommaaccent" unicode="&#x123;" horiz-adv-x="513" 
d="M469 482l-101 -506c-37 -186 -156 -212 -223 -212c-63 0 -108 23 -142 64l36 31c24 -31 56 -53 107 -53c70 0 147 41 174 170l18 85c-32 -41 -74 -67 -144 -67c-93 0 -139 58 -139 154c0 24 3 52 10 93c15 81 39 150 85 196c38 38 85 51 131 51c45 0 99 -12 126 -73
l13 67h49zM384 333c0 76 -35 113 -99 113c-110 0 -152 -104 -171 -205c-6 -31 -11 -63 -11 -92c0 -63 21 -113 99 -113c108 0 152 105 171 205c6 31 11 63 11 92zM450 729l-127 -145h-58l120 145h65z" />
    <glyph glyph-name="Hcircumflex" unicode="&#x124;" horiz-adv-x="664" 
d="M655 712l-143 -712h-52l68 337h-352l-68 -337h-52l143 712h52l-66 -330h352l66 330h52zM578 774h-51l-67 111l-112 -111h-57l146 147h52z" />
    <glyph glyph-name="hcircumflex" unicode="&#x125;" horiz-adv-x="531" 
d="M463 351c0 -15 -2 -31 -5 -46l-61 -305h-49l60 299c3 15 6 34 6 51c0 65 -42 96 -100 96c-35 0 -135 -16 -162 -150l-59 -296h-49l142 712h49l-57 -287c33 39 78 63 146 63c82 0 139 -53 139 -137zM367 780h-51l-67 111l-112 -111h-57l146 147h52z" />
    <glyph glyph-name="Hbar" unicode="&#x126;" horiz-adv-x="711" 
d="M700 558l-9 -41h-73l-104 -517h-52l68 337h-352l-68 -337h-52l104 517h-74l9 41h73l31 154h52l-31 -154h352l31 154h52l-31 -154h74zM566 517h-352l-27 -135h352z" />
    <glyph glyph-name="hbar" unicode="&#x127;" horiz-adv-x="533" 
d="M465 351c0 -19 -2 -31 -5 -46l-61 -305h-49l60 299c3 17 6 36 6 51c0 65 -42 96 -101 96c-34 0 -134 -16 -161 -150l-59 -296h-49l114 575h-63l7 36h63l21 101h49l-20 -101h136l-7 -36h-136l-30 -150c33 39 79 63 149 63c80 0 136 -53 136 -137z" />
    <glyph glyph-name="Itilde" unicode="&#x128;" horiz-adv-x="260" 
d="M251 712l-143 -712h-52l143 712h52zM395 835c-34 -32 -62 -46 -91 -46c-26 0 -48 11 -66 25c-22 17 -30 20 -51 20c-19 0 -35 -10 -62 -35l-24 30c34 32 62 46 91 46c26 0 48 -11 66 -25c22 -17 30 -20 51 -20c19 0 35 10 62 35z" />
    <glyph glyph-name="itilde" unicode="&#x129;" horiz-adv-x="233" 
d="M189 482l-96 -482h-49l96 482h49zM337 645c-34 -32 -62 -46 -91 -46c-26 0 -48 11 -66 25c-22 17 -30 20 -51 20c-19 0 -35 -10 -62 -35l-24 30c34 32 62 46 91 46c26 0 48 -11 66 -25c22 -17 30 -20 51 -20c19 0 35 10 62 35z" />
    <glyph glyph-name="Imacron" unicode="&#x12a;" horiz-adv-x="260" 
d="M251 712l-143 -712h-52l143 712h52zM383 843l-9 -43h-281l9 43h281z" />
    <glyph glyph-name="imacron" unicode="&#x12b;" horiz-adv-x="233" 
d="M189 482l-96 -482h-49l96 482h49zM334 653l-9 -43h-281l9 43h281z" />
    <glyph glyph-name="Ibreve" unicode="&#x12c;" horiz-adv-x="260" 
d="M251 712l-143 -712h-52l143 712h52zM392 891c-20 -83 -71 -118 -151 -118c-72 0 -120 31 -120 97c0 3 0 10 1 21h44c-1 -10 -1 -15 -1 -19c0 -36 29 -57 81 -57c59 0 90 27 102 76h44z" />
    <glyph glyph-name="ibreve" unicode="&#x12d;" horiz-adv-x="233" 
d="M189 482l-96 -482h-49l96 482h49zM337 695c-20 -83 -71 -118 -151 -118c-72 0 -120 31 -120 97c0 3 0 10 1 21h44c-1 -10 -1 -15 -1 -19c0 -36 29 -57 81 -57c59 0 90 27 102 76h44z" />
    <glyph glyph-name="Iogonek" unicode="&#x12e;" horiz-adv-x="260" 
d="M251 712l-143 -712h-52l143 712h52zM95 -68l-89 -148h-61l97 148h53z" />
    <glyph glyph-name="iogonek" unicode="&#x12f;" horiz-adv-x="233" 
d="M189 482l-96 -482h-49l96 482h49zM237 704l-12 -60h-60l12 60h60zM82 -68l-89 -148h-61l97 148h53z" />
    <glyph glyph-name="Idotaccent" unicode="&#x130;" horiz-adv-x="260" 
d="M251 712l-143 -712h-52l143 712h52zM285 854l-12 -60h-60l12 60h60z" />
    <glyph glyph-name="dotlessi" unicode="&#x131;" horiz-adv-x="233" 
d="M189 482l-96 -482h-49l96 482h49z" />
    <glyph glyph-name="IJ" unicode="&#x132;" horiz-adv-x="733" 
d="M251 712l-143 -712h-52l143 712h52zM733 712l-101 -503c-26 -128 -99 -215 -236 -215c-67 0 -113 25 -142 62l38 33c27 -33 58 -50 110 -50c93 0 158 66 181 183l98 490h52z" />
    <glyph glyph-name="ij" unicode="&#x133;" horiz-adv-x="466" 
d="M189 482l-96 -482h-49l96 482h49zM237 704l-12 -60h-60l12 60h60zM422 482l-118 -592c-17 -83 -62 -120 -135 -120h-41l8 42h30c51 0 78 25 90 84l117 586h49zM470 704l-12 -60h-60l12 60h60z" />
    <glyph glyph-name="Jcircumflex" unicode="&#x134;" horiz-adv-x="473" 
d="M473 712l-101 -503c-26 -128 -99 -215 -236 -215c-67 0 -113 25 -142 62l38 33c27 -33 58 -50 110 -50c93 0 158 66 181 183l98 490h52zM598 774h-51l-67 111l-112 -111h-57l146 147h52z" />
    <glyph glyph-name="jcircumflex" unicode="&#x135;" horiz-adv-x="233" 
d="M189 482l-118 -592c-17 -83 -62 -120 -135 -120h-41l8 42h30c51 0 78 25 90 84l117 586h49zM318 584h-51l-67 111l-112 -111h-57l146 147h52z" />
    <glyph glyph-name="Kcommaaccent" unicode="&#x136;" horiz-adv-x="616" 
d="M655 712l-264 -273l164 -439h-56l-147 402l-205 -208l-39 -194h-52l143 712h52l-88 -439l426 439h66zM301 -68l-89 -148h-61l97 148h53z" />
    <glyph glyph-name="kcommaaccent" unicode="&#x137;" horiz-adv-x="504" 
d="M480 482l-188 -182l130 -300h-56l-113 268l-132 -127l-28 -141h-49l142 712h49l-99 -498l278 268h66zM247 -68l-89 -148h-61l97 148h53z" />
    <glyph glyph-name="kgreenlandic" unicode="&#x138;" horiz-adv-x="504" 
d="M480 482l-188 -182l130 -300h-56l-113 268l-132 -127l-28 -141h-49l96 482h49l-53 -268l278 268h66z" />
    <glyph glyph-name="Lacute" unicode="&#x139;" horiz-adv-x="545" 
d="M478 45l-9 -45h-413l143 712h52l-134 -667h361zM385 919l-127 -145h-58l120 145h65z" />
    <glyph glyph-name="lacute" unicode="&#x13a;" horiz-adv-x="275" 
d="M234 712l-118 -587c-3 -16 -5 -24 -5 -37c0 -28 14 -46 61 -46h37l-9 -42h-45c-33 0 -92 13 -92 86c0 13 1 26 4 39l118 587h49zM373 925l-127 -145h-58l120 145h65z" />
    <glyph glyph-name="Lcommaaccent" unicode="&#x13b;" horiz-adv-x="545" 
d="M478 45l-9 -45h-413l143 712h52l-134 -667h361zM294 -68l-89 -148h-61l97 148h53z" />
    <glyph glyph-name="lcommaaccent" unicode="&#x13c;" horiz-adv-x="275" 
d="M234 712l-118 -587c-3 -16 -5 -24 -5 -37c0 -28 14 -46 61 -46h37l-9 -42h-45c-33 0 -92 13 -92 86c0 13 1 26 4 39l118 587h49zM131 -68l-89 -148h-61l97 148h53z" />
    <glyph glyph-name="Lcaron" unicode="&#x13d;" horiz-adv-x="545" 
d="M478 45l-9 -45h-413l143 712h52l-134 -667h361zM448 712l-77 -148h-47l69 148h55z" />
    <glyph glyph-name="lcaron" unicode="&#x13e;" horiz-adv-x="275" 
d="M234 712l-118 -587c-3 -16 -5 -24 -5 -37c0 -28 14 -46 61 -46h37l-9 -42h-45c-33 0 -92 13 -92 86c0 13 1 26 4 39l118 587h49zM387 712l-77 -148h-47l69 148h55z" />
    <glyph glyph-name="Ldot" unicode="&#x13f;" horiz-adv-x="545" 
d="M478 45l-9 -45h-413l143 712h52l-134 -667h361zM461 389l-12 -60h-60l12 60h60z" />
    <glyph glyph-name="ldot" unicode="&#x140;" horiz-adv-x="275" 
d="M234 712l-118 -587c-3 -16 -5 -24 -5 -37c0 -28 14 -46 61 -46h37l-9 -42h-45c-33 0 -92 13 -92 86c0 13 1 26 4 39l118 587h49zM293 294l-12 -60h-60l12 60h60z" />
    <glyph glyph-name="Lslash" unicode="&#x141;" horiz-adv-x="551" 
d="M484 45l-8 -45h-413l61 307l-81 -48l9 48l82 48l71 357h52l-65 -325l177 104l-10 -48l-177 -104l-59 -294h361z" />
    <glyph glyph-name="lslash" unicode="&#x142;" horiz-adv-x="295" 
d="M281 485l-9 -45l-94 -54l-52 -261c-3 -16 -5 -24 -5 -37c0 -28 14 -46 61 -46h37l-9 -42h-45c-33 0 -92 13 -92 86c0 13 1 26 4 39l47 232l-71 -40l9 45l71 40l62 310h49l-57 -281z" />
    <glyph glyph-name="Nacute" unicode="&#x143;" horiz-adv-x="702" 
d="M693 712l-143 -712h-52l-265 623l-125 -623h-52l143 712h52l265 -623l125 623h52zM595 919l-127 -145h-58l120 145h65z" />
    <glyph glyph-name="nacute" unicode="&#x144;" horiz-adv-x="531" 
d="M463 351c0 -12 -2 -31 -5 -46l-61 -305h-49l60 299c3 17 6 36 6 51c0 65 -42 96 -101 96c-34 0 -134 -16 -161 -150l-59 -296h-49l96 482h49l-11 -57c33 39 79 63 149 63c80 0 136 -53 136 -137zM472 729l-127 -145h-58l120 145h65z" />
    <glyph glyph-name="Ncommaaccent" unicode="&#x145;" horiz-adv-x="702" 
d="M693 712l-143 -712h-52l-265 623l-125 -623h-52l143 712h52l265 -623l125 623h52zM339 -68l-89 -148h-61l97 148h53z" />
    <glyph glyph-name="ncommaaccent" unicode="&#x146;" horiz-adv-x="531" 
d="M463 351c0 -12 -2 -31 -5 -46l-61 -305h-49l60 299c3 17 6 36 6 51c0 65 -42 96 -101 96c-34 0 -134 -16 -161 -150l-59 -296h-49l96 482h49l-11 -57c33 39 79 63 149 63c80 0 136 -53 136 -137zM264 -68l-89 -148h-61l97 148h53z" />
    <glyph glyph-name="Ncaron" unicode="&#x147;" horiz-adv-x="702" 
d="M693 712l-143 -712h-52l-265 623l-125 -623h-52l143 712h52l265 -623l125 623h52zM619 921l-146 -147h-52l-89 147h51l67 -111l112 111h57z" />
    <glyph glyph-name="ncaron" unicode="&#x148;" horiz-adv-x="531" 
d="M463 351c0 -12 -2 -31 -5 -46l-61 -305h-49l60 299c3 17 6 36 6 51c0 65 -42 96 -101 96c-34 0 -134 -16 -161 -150l-59 -296h-49l96 482h49l-11 -57c33 39 79 63 149 63c80 0 136 -53 136 -137zM496 731l-146 -147h-52l-89 147h51l67 -111l112 111h57z" />
    <glyph glyph-name="napostrophe" unicode="&#x149;" horiz-adv-x="531" 
d="M463 351c0 -12 -2 -31 -5 -46l-61 -305h-49l60 299c3 17 6 36 6 51c0 65 -42 96 -101 96c-34 0 -134 -16 -161 -150l-59 -296h-49l96 482h49l-11 -57c33 39 79 63 149 63c80 0 136 -53 136 -137zM186 712l-27 -128l-64 -56l38 184h53z" />
    <glyph glyph-name="Eng" unicode="&#x14a;" horiz-adv-x="702" 
d="M693 712l-162 -808c-17 -83 -62 -120 -135 -120h-41l8 42h30c51 0 78 25 90 84l17 86l-267 627l-125 -623h-52l143 712h52l265 -623l125 623h52z" />
    <glyph glyph-name="eng" unicode="&#x14b;" horiz-adv-x="531" 
d="M463 351c0 -12 -2 -31 -5 -46l-80 -401c-17 -83 -62 -120 -135 -120h-41l8 42h30c51 0 78 25 90 84l78 389c3 17 6 36 6 51c0 65 -42 96 -101 96c-34 0 -134 -16 -161 -150l-59 -296h-49l96 482h49l-11 -57c33 39 79 63 149 63c80 0 136 -53 136 -137z" />
    <glyph glyph-name="Omacron" unicode="&#x14c;" horiz-adv-x="619" 
d="M587 530c0 -31 -4 -69 -25 -174c-34 -169 -51 -228 -105 -284c-45 -47 -109 -78 -190 -78c-108 0 -193 68 -193 188c0 31 4 69 25 174c34 169 51 228 105 284c45 47 109 78 190 78c108 0 193 -68 193 -188zM535 527c0 98 -70 146 -143 146c-62 0 -111 -23 -152 -66
c-39 -41 -58 -94 -89 -251c-21 -105 -25 -141 -25 -171c0 -98 70 -146 143 -146c62 0 111 23 152 66c39 41 58 94 89 251c21 105 25 141 25 171zM561 843l-9 -43h-281l9 43h281z" />
    <glyph glyph-name="omacron" unicode="&#x14d;" 
d="M442 330c0 -29 -5 -68 -9 -89c-21 -108 -55 -163 -93 -196c-42 -37 -86 -51 -133 -51c-75 0 -152 41 -152 158c0 29 5 68 9 89c21 108 55 163 93 196c42 37 86 51 133 51c75 0 152 -41 152 -158zM394 328c0 86 -52 118 -107 118c-38 0 -76 -17 -102 -43
c-32 -32 -55 -75 -72 -162c-6 -32 -10 -64 -10 -87c0 -86 52 -118 107 -118c38 0 76 17 102 43c32 32 55 75 72 162c6 32 10 64 10 87zM474 653l-9 -43h-281l9 43h281z" />
    <glyph glyph-name="Obreve" unicode="&#x14e;" horiz-adv-x="619" 
d="M587 530c0 -31 -4 -69 -25 -174c-34 -169 -51 -228 -105 -284c-45 -47 -109 -78 -190 -78c-108 0 -193 68 -193 188c0 31 4 69 25 174c34 169 51 228 105 284c45 47 109 78 190 78c108 0 193 -68 193 -188zM535 527c0 98 -70 146 -143 146c-62 0 -111 -23 -152 -66
c-39 -41 -58 -94 -89 -251c-21 -105 -25 -141 -25 -171c0 -98 70 -146 143 -146c62 0 111 23 152 66c39 41 58 94 89 251c21 105 25 141 25 171zM562 891c-20 -83 -71 -118 -151 -118c-72 0 -120 31 -120 97c0 3 0 10 1 21h44c-1 -10 -1 -15 -1 -19c0 -36 29 -57 81 -57
c59 0 90 27 102 76h44z" />
    <glyph glyph-name="obreve" unicode="&#x14f;" 
d="M442 330c0 -29 -5 -68 -9 -89c-21 -108 -55 -163 -93 -196c-42 -37 -86 -51 -133 -51c-75 0 -152 41 -152 158c0 29 5 68 9 89c21 108 55 163 93 196c42 37 86 51 133 51c75 0 152 -41 152 -158zM394 328c0 86 -52 118 -107 118c-38 0 -76 -17 -102 -43
c-32 -32 -55 -75 -72 -162c-6 -32 -10 -64 -10 -87c0 -86 52 -118 107 -118c38 0 76 17 102 43c32 32 55 75 72 162c6 32 10 64 10 87zM465 695c-20 -83 -71 -118 -151 -118c-72 0 -120 31 -120 97c0 3 0 10 1 21h44c-1 -10 -1 -15 -1 -19c0 -36 29 -57 81 -57
c59 0 90 27 102 76h44z" />
    <glyph glyph-name="Ohungarumlaut" unicode="&#x150;" horiz-adv-x="619" 
d="M587 530c0 -31 -4 -69 -25 -174c-34 -169 -51 -228 -105 -284c-45 -47 -109 -78 -190 -78c-108 0 -193 68 -193 188c0 31 4 69 25 174c34 169 51 228 105 284c45 47 109 78 190 78c108 0 193 -68 193 -188zM535 527c0 98 -70 146 -143 146c-62 0 -111 -23 -152 -66
c-39 -41 -58 -94 -89 -251c-21 -105 -25 -141 -25 -171c0 -98 70 -146 143 -146c62 0 111 23 152 66c39 41 58 94 89 251c21 105 25 141 25 171zM487 919l-127 -145h-58l120 145h65zM627 919l-128 -145h-57l120 145h65z" />
    <glyph glyph-name="ohungarumlaut" unicode="&#x151;" 
d="M442 330c0 -29 -5 -68 -9 -89c-21 -108 -55 -163 -93 -196c-42 -37 -86 -51 -133 -51c-75 0 -152 41 -152 158c0 29 5 68 9 89c21 108 55 163 93 196c42 37 86 51 133 51c75 0 152 -41 152 -158zM394 328c0 86 -52 118 -107 118c-38 0 -76 -17 -102 -43
c-32 -32 -55 -75 -72 -162c-6 -32 -10 -64 -10 -87c0 -86 52 -118 107 -118c38 0 76 17 102 43c32 32 55 75 72 162c6 32 10 64 10 87zM399 729l-128 -145h-57l120 145h65zM539 729l-128 -145h-57l120 145h65z" />
    <glyph glyph-name="OE" unicode="&#x152;" horiz-adv-x="943" 
d="M982 712l-9 -45h-351l-57 -285h301l-9 -45h-301l-59 -292h360l-9 -45h-410l14 72c-41 -47 -108 -78 -185 -78c-108 0 -193 68 -193 188c0 31 4 69 25 174c34 169 51 228 105 284c45 47 109 78 190 78c83 0 141 -38 169 -97l18 91h401zM535 527c0 98 -70 146 -143 146
c-62 0 -111 -23 -152 -66c-39 -41 -58 -94 -89 -251c-21 -105 -25 -141 -25 -171c0 -98 70 -146 143 -146c62 0 111 23 152 66c39 41 58 94 89 251c21 105 25 141 25 171z" />
    <glyph glyph-name="oe" unicode="&#x153;" horiz-adv-x="820" 
d="M761 326c0 -21 -4 -58 -11 -95h-319c-4 -23 -7 -45 -7 -71c0 -70 34 -123 113 -123c61 0 100 20 144 60l33 -33c-52 -48 -105 -70 -179 -70c-65 0 -127 24 -150 110c-42 -76 -108 -110 -178 -110c-75 0 -152 41 -152 158c0 29 5 68 9 89c21 108 55 163 93 196
c42 37 86 51 133 51c66 0 125 -32 144 -108c48 84 116 108 177 108c103 0 150 -76 150 -162zM394 328c0 86 -52 118 -107 118c-38 0 -76 -17 -102 -43c-32 -32 -55 -75 -72 -162c-6 -32 -10 -64 -10 -87c0 -86 52 -118 107 -118c38 0 76 17 102 43c32 32 55 75 72 162
c6 32 10 64 10 87zM713 326c0 85 -50 120 -103 120c-80 0 -141 -56 -172 -176h270c3 18 5 32 5 56z" />
    <glyph glyph-name="Racute" unicode="&#x154;" horiz-adv-x="627" 
d="M614 557c0 -110 -72 -207 -196 -225l106 -332h-57l-104 331h-188l-67 -331h-52l143 712h243c132 0 172 -79 172 -155zM562 555c0 68 -40 112 -124 112h-196l-59 -291h199c115 0 180 89 180 179zM539 919l-127 -145h-58l120 145h65z" />
    <glyph glyph-name="racute" unicode="&#x155;" horiz-adv-x="387" 
d="M422 443l-37 -33c-15 20 -38 36 -75 36c-79 0 -142 -66 -158 -149l-59 -297h-49l96 482h49l-13 -64c31 44 80 70 141 70c46 0 80 -16 105 -45zM368 729l-127 -145h-58l120 145h65z" />
    <glyph glyph-name="Rcommaaccent" unicode="&#x156;" horiz-adv-x="627" 
d="M614 557c0 -110 -72 -207 -196 -225l106 -332h-57l-104 331h-188l-67 -331h-52l143 712h243c132 0 172 -79 172 -155zM562 555c0 68 -40 112 -124 112h-196l-59 -291h199c115 0 180 89 180 179zM302 -68l-89 -148h-61l97 148h53z" />
    <glyph glyph-name="rcommaaccent" unicode="&#x157;" horiz-adv-x="387" 
d="M422 443l-37 -33c-15 20 -38 36 -75 36c-79 0 -142 -66 -158 -149l-59 -297h-49l96 482h49l-13 -64c31 44 80 70 141 70c46 0 80 -16 105 -45zM82 -68l-89 -148h-61l97 148h53z" />
    <glyph glyph-name="Rcaron" unicode="&#x158;" horiz-adv-x="627" 
d="M614 557c0 -110 -72 -207 -196 -225l106 -332h-57l-104 331h-188l-67 -331h-52l143 712h243c132 0 172 -79 172 -155zM562 555c0 68 -40 112 -124 112h-196l-59 -291h199c115 0 180 89 180 179zM563 921l-146 -147h-52l-89 147h51l67 -111l112 111h57z" />
    <glyph glyph-name="rcaron" unicode="&#x159;" horiz-adv-x="387" 
d="M422 443l-37 -33c-15 20 -38 36 -75 36c-79 0 -142 -66 -158 -149l-59 -297h-49l96 482h49l-13 -64c31 44 80 70 141 70c46 0 80 -16 105 -45zM392 731l-146 -147h-52l-89 147h51l67 -111l112 111h57z" />
    <glyph glyph-name="Sacute" unicode="&#x15a;" horiz-adv-x="558" 
d="M543 638l-37 -32c-34 39 -72 68 -150 68c-119 0 -191 -87 -191 -178c0 -60 46 -92 111 -107l70 -16c102 -23 151 -70 151 -168c0 -133 -116 -211 -261 -211c-96 0 -156 29 -213 98l40 35c44 -58 96 -88 178 -88c113 0 204 67 204 166c0 82 -49 107 -110 121l-70 16
c-53 12 -151 41 -151 156c0 87 64 220 247 220c70 0 131 -21 182 -80zM516 919l-127 -145h-58l120 145h65z" />
    <glyph glyph-name="sacute" unicode="&#x15b;" horiz-adv-x="469" 
d="M424 437l-36 -31c-35 29 -65 41 -121 41c-91 0 -136 -60 -136 -114c0 -37 29 -56 83 -63l65 -9c85 -12 118 -42 118 -115c0 -29 -10 -64 -46 -99c-37 -35 -98 -53 -164 -53c-78 0 -134 22 -175 68l37 32c34 -40 75 -58 143 -58c108 0 156 61 156 112c0 50 -30 64 -77 70
l-66 9c-107 15 -122 66 -122 103c0 33 14 76 43 105c33 33 81 53 149 53c63 0 111 -18 149 -51zM440 729l-127 -145h-58l120 145h65z" />
    <glyph glyph-name="Scircumflex" unicode="&#x15c;" horiz-adv-x="558" 
d="M543 638l-37 -32c-34 39 -72 68 -150 68c-119 0 -191 -87 -191 -178c0 -60 46 -92 111 -107l70 -16c102 -23 151 -70 151 -168c0 -133 -116 -211 -261 -211c-96 0 -156 29 -213 98l40 35c44 -58 96 -88 178 -88c113 0 204 67 204 166c0 82 -49 107 -110 121l-70 16
c-53 12 -151 41 -151 156c0 87 64 220 247 220c70 0 131 -21 182 -80zM519 774h-51l-67 111l-112 -111h-57l146 147h52z" />
    <glyph glyph-name="scircumflex" unicode="&#x15d;" horiz-adv-x="469" 
d="M424 437l-36 -31c-35 29 -65 41 -121 41c-91 0 -136 -60 -136 -114c0 -37 29 -56 83 -63l65 -9c85 -12 118 -42 118 -115c0 -29 -10 -64 -46 -99c-37 -35 -98 -53 -164 -53c-78 0 -134 22 -175 68l37 32c34 -40 75 -58 143 -58c108 0 156 61 156 112c0 50 -30 64 -77 70
l-66 9c-107 15 -122 66 -122 103c0 33 14 76 43 105c33 33 81 53 149 53c63 0 111 -18 149 -51zM443 584h-51l-67 111l-112 -111h-57l146 147h52z" />
    <glyph glyph-name="Scedilla" unicode="&#x15e;" horiz-adv-x="558" 
d="M543 638l-37 -32c-34 39 -72 68 -150 68c-119 0 -191 -87 -191 -178c0 -60 46 -92 111 -107l70 -16c102 -23 151 -70 151 -168c0 -133 -116 -211 -261 -211c-96 0 -156 29 -213 98l40 35c44 -58 96 -88 178 -88c113 0 204 67 204 166c0 82 -49 107 -110 121l-70 16
c-53 12 -151 41 -151 156c0 87 64 220 247 220c70 0 131 -21 182 -80zM263 -68l-89 -148h-61l97 148h53z" />
    <glyph glyph-name="scedilla" unicode="&#x15f;" horiz-adv-x="469" 
d="M424 437l-36 -31c-35 29 -65 41 -121 41c-91 0 -136 -60 -136 -114c0 -37 29 -56 83 -63l65 -9c85 -12 118 -42 118 -115c0 -29 -10 -64 -46 -99c-37 -35 -98 -53 -164 -53c-78 0 -134 22 -175 68l37 32c34 -40 75 -58 143 -58c108 0 156 61 156 112c0 50 -30 64 -77 70
l-66 9c-107 15 -122 66 -122 103c0 33 14 76 43 105c33 33 81 53 149 53c63 0 111 -18 149 -51zM211 -68l-89 -148h-61l97 148h53z" />
    <glyph glyph-name="Scaron" unicode="&#x160;" horiz-adv-x="558" 
d="M543 638l-37 -32c-34 39 -72 68 -150 68c-119 0 -191 -87 -191 -178c0 -60 46 -92 111 -107l70 -16c102 -23 151 -70 151 -168c0 -133 -116 -211 -261 -211c-96 0 -156 29 -213 98l40 35c44 -58 96 -88 178 -88c113 0 204 67 204 166c0 82 -49 107 -110 121l-70 16
c-53 12 -151 41 -151 156c0 87 64 220 247 220c70 0 131 -21 182 -80zM540 921l-146 -147h-52l-89 147h51l67 -111l112 111h57z" />
    <glyph glyph-name="scaron" unicode="&#x161;" horiz-adv-x="469" 
d="M424 437l-36 -31c-35 29 -65 41 -121 41c-91 0 -136 -60 -136 -114c0 -37 29 -56 83 -63l65 -9c85 -12 118 -42 118 -115c0 -29 -10 -64 -46 -99c-37 -35 -98 -53 -164 -53c-78 0 -134 22 -175 68l37 32c34 -40 75 -58 143 -58c108 0 156 61 156 112c0 50 -30 64 -77 70
l-66 9c-107 15 -122 66 -122 103c0 33 14 76 43 105c33 33 81 53 149 53c63 0 111 -18 149 -51zM464 731l-146 -147h-52l-89 147h51l67 -111l112 111h57z" />
    <glyph glyph-name="Tcommaaccent" unicode="&#x162;" horiz-adv-x="512" 
d="M578 712l-9 -45h-201l-134 -667h-52l134 667h-202l9 45h455zM221 -68l-89 -148h-61l97 148h53z" />
    <glyph glyph-name="tcommaaccent" unicode="&#x163;" horiz-adv-x="312" 
d="M303 482l-7 -36h-101l-64 -321c-3 -16 -5 -24 -5 -37c0 -28 14 -46 61 -46h37l-9 -42h-45c-33 0 -92 13 -92 86c0 13 1 26 4 39l64 321h-65l7 36h65l31 154h49l-31 -154h101zM151 -68l-89 -148h-61l97 148h53z" />
    <glyph glyph-name="Tcaron" unicode="&#x164;" horiz-adv-x="512" 
d="M578 712l-9 -45h-201l-134 -667h-52l134 667h-202l9 45h455zM535 921l-146 -147h-52l-89 147h51l67 -111l112 111h57z" />
    <glyph glyph-name="tcaron" unicode="&#x165;" horiz-adv-x="312" 
d="M303 482l-7 -36h-101l-64 -321c-3 -16 -5 -24 -5 -37c0 -28 14 -46 61 -46h37l-9 -42h-45c-33 0 -92 13 -92 86c0 13 1 26 4 39l64 321h-65l7 36h65l31 154h49l-31 -154h101zM400 712l-77 -148h-47l69 148h55z" />
    <glyph glyph-name="Tbar" unicode="&#x166;" horiz-adv-x="512" 
d="M578 712l-9 -45h-201l-58 -288h124l-8 -40h-124l-68 -339h-52l68 339h-121l8 40h121l58 288h-202l9 45h455z" />
    <glyph glyph-name="tbar" unicode="&#x167;" horiz-adv-x="312" 
d="M303 482l-7 -36h-101l-33 -164h101l-7 -36h-101l-24 -121c-3 -16 -5 -24 -5 -37c0 -28 14 -46 61 -46h37l-9 -42h-45c-33 0 -92 13 -92 86c0 13 1 26 4 39l24 121h-65l7 36h65l33 164h-65l7 36h65l31 154h49l-31 -154h101z" />
    <glyph glyph-name="Utilde" unicode="&#x168;" horiz-adv-x="654" 
d="M653 712l-96 -481c-30 -149 -133 -237 -276 -237c-86 0 -192 52 -192 190c0 22 4 45 7 61l93 467h52l-95 -474c-2 -11 -5 -35 -5 -53c0 -69 40 -146 146 -146c95 0 193 63 221 203l93 470h52zM587 835c-34 -32 -62 -46 -91 -46c-26 0 -48 11 -66 25c-22 17 -30 20 -51 20
c-19 0 -35 -10 -62 -35l-24 30c34 32 62 46 91 46c26 0 48 -11 66 -25c22 -17 30 -20 51 -20c19 0 35 10 62 35z" />
    <glyph glyph-name="utilde" unicode="&#x169;" horiz-adv-x="531" 
d="M487 482l-96 -482h-49l11 57c-33 -39 -78 -63 -146 -63c-82 0 -139 53 -139 137c0 15 2 31 5 46l61 305h49l-60 -299c-3 -15 -6 -34 -6 -51c0 -65 42 -96 100 -96c35 0 135 16 162 150l59 296h49zM471 645c-34 -32 -62 -46 -91 -46c-26 0 -48 11 -66 25
c-22 17 -30 20 -51 20c-19 0 -35 -10 -62 -35l-24 30c34 32 62 46 91 46c26 0 48 -11 66 -25c22 -17 30 -20 51 -20c19 0 35 10 62 35z" />
    <glyph glyph-name="Umacron" unicode="&#x16a;" horiz-adv-x="654" 
d="M653 712l-96 -481c-30 -149 -133 -237 -276 -237c-86 0 -192 52 -192 190c0 22 4 45 7 61l93 467h52l-95 -474c-2 -11 -5 -35 -5 -53c0 -69 40 -146 146 -146c95 0 193 63 221 203l93 470h52zM582 843l-9 -43h-281l9 43h281z" />
    <glyph glyph-name="umacron" unicode="&#x16b;" horiz-adv-x="531" 
d="M486 482l-96 -482h-49l11 57c-33 -39 -78 -63 -146 -63c-82 0 -139 53 -139 137c0 15 2 31 5 46l61 305h49l-60 -299c-3 -15 -6 -34 -6 -51c0 -65 42 -96 100 -96c35 0 135 16 162 150l59 296h49zM487 653l-9 -43h-281l9 43h281z" />
    <glyph glyph-name="Ubreve" unicode="&#x16c;" horiz-adv-x="654" 
d="M653 712l-96 -481c-30 -149 -133 -237 -276 -237c-86 0 -192 52 -192 190c0 22 4 45 7 61l93 467h52l-95 -474c-2 -11 -5 -35 -5 -53c0 -69 40 -146 146 -146c95 0 193 63 221 203l93 470h52zM583 891c-20 -83 -71 -118 -151 -118c-72 0 -120 31 -120 97c0 3 0 10 1 21
h44c-1 -10 -1 -15 -1 -19c0 -36 29 -57 81 -57c59 0 90 27 102 76h44z" />
    <glyph glyph-name="ubreve" unicode="&#x16d;" horiz-adv-x="531" 
d="M486 482l-96 -482h-49l11 57c-33 -39 -78 -63 -146 -63c-82 0 -139 53 -139 137c0 15 2 31 5 46l61 305h49l-60 -299c-3 -15 -6 -34 -6 -51c0 -65 42 -96 100 -96c35 0 135 16 162 150l59 296h49zM487 695c-20 -83 -71 -118 -151 -118c-72 0 -120 31 -120 97
c0 3 0 10 1 21h44c-1 -10 -1 -15 -1 -19c0 -36 29 -57 81 -57c59 0 90 27 102 76h44z" />
    <glyph glyph-name="Uring" unicode="&#x16e;" horiz-adv-x="654" 
d="M653 712l-96 -481c-30 -149 -133 -237 -276 -237c-86 0 -192 52 -192 190c0 22 4 45 7 61l93 467h52l-95 -474c-2 -11 -5 -35 -5 -53c0 -69 40 -146 146 -146c95 0 193 63 221 203l93 470h52zM548 857c0 -63 -51 -115 -114 -115s-114 52 -114 115s51 114 114 114
s114 -51 114 -114zM509 857c0 40 -35 74 -75 74s-75 -34 -75 -74s35 -75 75 -75s75 35 75 75z" />
    <glyph glyph-name="uring" unicode="&#x16f;" horiz-adv-x="531" 
d="M486 482l-96 -482h-49l11 57c-33 -39 -78 -63 -146 -63c-82 0 -139 53 -139 137c0 15 2 31 5 46l61 305h49l-60 -299c-3 -15 -6 -34 -6 -51c0 -65 42 -96 100 -96c35 0 135 16 162 150l59 296h49zM454 677c0 -63 -51 -115 -114 -115s-114 52 -114 115s51 114 114 114
s114 -51 114 -114zM415 677c0 40 -35 74 -75 74s-75 -34 -75 -74s35 -75 75 -75s75 35 75 75z" />
    <glyph glyph-name="Uhungarumlaut" unicode="&#x170;" horiz-adv-x="654" 
d="M653 712l-96 -481c-30 -149 -133 -237 -276 -237c-86 0 -192 52 -192 190c0 22 4 45 7 61l93 467h52l-95 -474c-2 -11 -5 -35 -5 -53c0 -69 40 -146 146 -146c95 0 193 63 221 203l93 470h52zM508 919l-127 -145h-58l120 145h65zM648 919l-128 -145h-57l120 145h65z" />
    <glyph glyph-name="uhungarumlaut" unicode="&#x171;" horiz-adv-x="531" 
d="M486 482l-96 -482h-49l11 57c-33 -39 -78 -63 -146 -63c-82 0 -139 53 -139 137c0 15 2 31 5 46l61 305h49l-60 -299c-3 -15 -6 -34 -6 -51c0 -65 42 -96 100 -96c35 0 135 16 162 150l59 296h49zM412 729l-128 -145h-57l120 145h65zM552 729l-128 -145h-57l120 145h65z
" />
    <glyph glyph-name="Uogonek" unicode="&#x172;" horiz-adv-x="654" 
d="M653 712l-96 -481c-30 -149 -133 -237 -276 -237c-86 0 -192 52 -192 190c0 22 4 45 7 61l93 467h52l-95 -474c-2 -11 -5 -35 -5 -53c0 -69 40 -146 146 -146c95 0 193 63 221 203l93 470h52zM404 -68l-89 -148h-61l97 148h53z" />
    <glyph glyph-name="uogonek" unicode="&#x173;" horiz-adv-x="531" 
d="M486 482l-96 -482h-49l11 57c-33 -39 -78 -63 -146 -63c-82 0 -139 53 -139 137c0 15 2 31 5 46l61 305h49l-60 -299c-3 -15 -6 -34 -6 -51c0 -65 42 -96 100 -96c35 0 135 16 162 150l59 296h49zM381 -68l-89 -148h-61l97 148h53z" />
    <glyph glyph-name="Wcircumflex" unicode="&#x174;" horiz-adv-x="804" 
d="M876 712l-306 -712h-52l-39 620l-285 -620h-52l-29 712h53l21 -619l281 619h53l38 -619l261 619h56zM646 774h-51l-67 111l-112 -111h-57l146 147h52z" />
    <glyph glyph-name="wcircumflex" unicode="&#x175;" horiz-adv-x="676" 
d="M708 482l-236 -482h-50l-50 402l-208 -402h-50l-52 482h51l36 -422l214 422h44l50 -422l199 422h52zM547 584h-51l-67 111l-112 -111h-57l146 147h52z" />
    <glyph glyph-name="Ycircumflex" unicode="&#x176;" horiz-adv-x="469" 
d="M554 712l-281 -420l-59 -292h-52l60 297l-118 415h53l101 -362l238 362h58zM481 774h-51l-67 111l-112 -111h-57l146 147h52z" />
    <glyph glyph-name="ycircumflex" unicode="&#x177;" horiz-adv-x="408" 
d="M441 482l-329 -614c-18 -34 -30 -47 -42 -58c-21 -19 -48 -28 -93 -28h-25l9 42h19c52 0 68 16 96 70l56 107l-71 481h50l56 -421l219 421h55zM407 584h-51l-67 111l-112 -111h-57l146 147h52z" />
    <glyph glyph-name="Ydieresis" unicode="&#x178;" horiz-adv-x="469" 
d="M554 712l-281 -420l-59 -292h-52l60 297l-118 415h53l101 -362l238 362h58zM280 859l-15 -75h-55l15 75h55zM477 859l-15 -75h-55l15 75h55z" />
    <glyph glyph-name="Zacute" unicode="&#x179;" horiz-adv-x="534" 
d="M562 712l-9 -45l-477 -622h359l-9 -45h-414l11 54l472 613h-342l9 45h400zM511 919l-127 -145h-58l120 145h65z" />
    <glyph glyph-name="zacute" unicode="&#x17a;" horiz-adv-x="432" 
d="M426 482l-9 -45l-350 -395h278l-8 -42h-332l9 45l350 395h-263l9 42h316zM429 729l-127 -145h-58l120 145h65z" />
    <glyph glyph-name="Zdotaccent" unicode="&#x17b;" horiz-adv-x="534" 
d="M562 712l-9 -45l-477 -622h359l-9 -45h-414l11 54l472 613h-342l9 45h400zM421 854l-12 -60h-60l12 60h60z" />
    <glyph glyph-name="zdotaccent" unicode="&#x17c;" horiz-adv-x="432" 
d="M426 482l-9 -45l-350 -395h278l-8 -42h-332l9 45l350 395h-263l9 42h316zM339 664l-12 -60h-60l12 60h60z" />
    <glyph glyph-name="Zcaron" unicode="&#x17d;" horiz-adv-x="534" 
d="M562 712l-9 -45l-477 -622h359l-9 -45h-414l11 54l472 613h-342l9 45h400zM535 921l-146 -147h-52l-89 147h51l67 -111l112 111h57z" />
    <glyph glyph-name="zcaron" unicode="&#x17e;" horiz-adv-x="432" 
d="M426 482l-9 -45l-350 -395h278l-8 -42h-332l9 45l350 395h-263l9 42h316zM453 731l-146 -147h-52l-89 147h51l67 -111l112 111h57z" />
    <glyph glyph-name="longs" unicode="&#x17f;" horiz-adv-x="233" 
d="M339 712l-9 -42h-32c-43 0 -76 -23 -87 -78l-118 -592h-49l118 592c21 104 89 120 132 120h45z" />
    <glyph glyph-name="uni018F" unicode="&#x18f;" horiz-adv-x="620" 
d="M590 530c0 -31 -4 -69 -25 -174c-34 -169 -51 -228 -105 -284c-45 -47 -109 -78 -190 -78c-108 0 -196 68 -196 188c0 55 14 123 26 182h414c20 98 24 134 24 163c0 98 -70 146 -143 146c-62 0 -114 -23 -155 -66c-21 -22 -37 -48 -52 -94h-53c19 62 38 95 69 127
c45 47 112 78 193 78c108 0 193 -68 193 -188zM505 319h-362c-9 -47 -17 -108 -17 -134c0 -98 73 -146 146 -146c62 0 111 23 152 66c35 37 55 85 81 214z" />
    <glyph glyph-name="florin" unicode="&#x192;" horiz-adv-x="374" 
d="M440 712l-9 -43h-35c-53 0 -85 -28 -105 -82l-76 -207h105l-8 -36h-110l-211 -574h-49l211 574h-103l7 36h109l76 206c24 65 55 126 158 126h40z" />
    <glyph glyph-name="uni01B5" unicode="&#x1b5;" horiz-adv-x="534" 
d="M562 712l-9 -45l-221 -288h107l-8 -40h-130l-225 -294h359l-9 -45h-414l11 54l219 285h-108l8 40h131l222 288h-342l9 45h400z" />
    <glyph glyph-name="uni01B6" unicode="&#x1b6;" horiz-adv-x="432" 
d="M426 482l-9 -45l-159 -179h84l-8 -36h-108l-159 -180h278l-8 -42h-332l9 45l157 177h-84l7 36h109l161 182h-263l9 42h316z" />
    <glyph glyph-name="uni01C4" unicode="&#x1c4;" horiz-adv-x="1178" 
d="M613 520c0 -37 -5 -72 -21 -154c-32 -166 -59 -245 -124 -303c-48 -43 -114 -63 -181 -63h-231l143 712h218c89 0 196 -37 196 -192zM562 520c0 86 -43 147 -155 147h-165l-125 -622h163c54 0 110 13 157 55c48 43 75 119 103 266c16 83 22 116 22 154zM1206 712l-9 -45
l-477 -622h359l-9 -45h-414l11 54l472 613h-342l9 45h400zM1179 921l-146 -147h-52l-89 147h51l67 -111l112 111h57z" />
    <glyph glyph-name="uni01C5" unicode="&#x1c5;" horiz-adv-x="1076" 
d="M613 520c0 -37 -5 -72 -21 -154c-32 -166 -59 -245 -124 -303c-48 -43 -114 -63 -181 -63h-231l143 712h218c89 0 196 -37 196 -192zM562 520c0 86 -43 147 -155 147h-165l-125 -622h163c54 0 110 13 157 55c48 43 75 119 103 266c16 83 22 116 22 154zM1070 482l-9 -45
l-350 -395h278l-8 -42h-332l9 45l350 395h-263l9 42h316zM1097 731l-146 -147h-52l-89 147h51l67 -111l112 111h57z" />
    <glyph glyph-name="uni01C6" unicode="&#x1c6;" horiz-adv-x="945" 
d="M516 712l-142 -712h-49l13 62c-49 -60 -97 -68 -141 -68c-104 0 -141 66 -141 158c0 29 4 59 10 89c15 77 39 149 85 195c38 38 81 52 132 52c44 0 97 -14 124 -73l60 297h49zM384 332c0 64 -24 114 -99 114c-110 0 -150 -101 -170 -205c-6 -31 -11 -63 -11 -91
c0 -64 24 -114 99 -114c110 0 150 101 170 205c6 31 11 63 11 91zM939 482l-9 -45l-350 -395h278l-8 -42h-332l9 45l350 395h-263l9 42h316zM966 731l-146 -147h-52l-89 147h51l67 -111l112 111h57z" />
    <glyph glyph-name="uni01C7" unicode="&#x1c7;" horiz-adv-x="1018" 
d="M478 45l-9 -45h-413l143 712h52l-134 -667h361zM1018 712l-101 -503c-26 -128 -99 -215 -236 -215c-67 0 -113 25 -142 62l38 33c27 -33 58 -50 110 -50c93 0 158 66 181 183l98 490h52z" />
    <glyph glyph-name="uni01C8" unicode="&#x1c8;" horiz-adv-x="778" 
d="M478 45l-9 -45h-413l143 712h52l-134 -667h361zM734 482l-118 -592c-17 -83 -62 -120 -135 -120h-41l8 42h30c51 0 78 25 90 84l117 586h49zM782 704l-12 -60h-60l12 60h60z" />
    <glyph glyph-name="uni01C9" unicode="&#x1c9;" horiz-adv-x="508" 
d="M234 712l-118 -587c-3 -16 -5 -24 -5 -37c0 -28 14 -46 61 -46h37l-9 -42h-45c-33 0 -92 13 -92 86c0 13 1 26 4 39l118 587h49zM464 482l-118 -592c-17 -83 -62 -120 -135 -120h-41l8 42h30c51 0 78 25 90 84l117 586h49zM512 704l-12 -60h-60l12 60h60z" />
    <glyph glyph-name="uni01CA" unicode="&#x1ca;" horiz-adv-x="1175" 
d="M693 712l-143 -712h-52l-265 623l-125 -623h-52l143 712h52l265 -623l125 623h52zM1175 712l-101 -503c-26 -128 -99 -215 -236 -215c-67 0 -113 25 -142 62l38 33c27 -33 58 -50 110 -50c93 0 158 66 181 183l98 490h52z" />
    <glyph glyph-name="uni01CB" unicode="&#x1cb;" horiz-adv-x="935" 
d="M693 712l-143 -712h-52l-265 623l-125 -623h-52l143 712h52l265 -623l125 623h52zM891 482l-118 -592c-17 -83 -62 -120 -135 -120h-41l8 42h30c51 0 78 25 90 84l117 586h49zM939 704l-12 -60h-60l12 60h60z" />
    <glyph glyph-name="uni01CC" unicode="&#x1cc;" horiz-adv-x="764" 
d="M463 351c0 -12 -2 -31 -5 -46l-61 -305h-49l60 299c3 17 6 36 6 51c0 65 -42 96 -101 96c-34 0 -134 -16 -161 -150l-59 -296h-49l96 482h49l-11 -57c33 39 79 63 149 63c80 0 136 -53 136 -137zM720 482l-118 -592c-17 -83 -62 -120 -135 -120h-41l8 42h30
c51 0 78 25 90 84l117 586h49zM768 704l-12 -60h-60l12 60h60z" />
    <glyph glyph-name="uni01F1" unicode="&#x1f1;" horiz-adv-x="1178" 
d="M613 520c0 -37 -5 -72 -21 -154c-32 -166 -59 -245 -124 -303c-48 -43 -114 -63 -181 -63h-231l143 712h218c89 0 196 -37 196 -192zM562 520c0 86 -43 147 -155 147h-165l-125 -622h163c54 0 110 13 157 55c48 43 75 119 103 266c16 83 22 116 22 154zM1206 712l-9 -45
l-477 -622h359l-9 -45h-414l11 54l472 613h-342l9 45h400z" />
    <glyph glyph-name="uni01F2" unicode="&#x1f2;" horiz-adv-x="1076" 
d="M613 520c0 -37 -5 -72 -21 -154c-32 -166 -59 -245 -124 -303c-48 -43 -114 -63 -181 -63h-231l143 712h218c89 0 196 -37 196 -192zM562 520c0 86 -43 147 -155 147h-165l-125 -622h163c54 0 110 13 157 55c48 43 75 119 103 266c16 83 22 116 22 154zM1070 482l-9 -45
l-350 -395h278l-8 -42h-332l9 45l350 395h-263l9 42h316z" />
    <glyph glyph-name="uni01F3" unicode="&#x1f3;" horiz-adv-x="945" 
d="M516 712l-142 -712h-49l13 62c-49 -60 -97 -68 -141 -68c-104 0 -141 66 -141 158c0 29 4 59 10 89c15 77 39 149 85 195c38 38 81 52 132 52c44 0 97 -14 124 -73l60 297h49zM384 332c0 64 -24 114 -99 114c-110 0 -150 -101 -170 -205c-6 -31 -11 -63 -11 -91
c0 -64 24 -114 99 -114c110 0 150 101 170 205c6 31 11 63 11 91zM939 482l-9 -45l-350 -395h278l-8 -42h-332l9 45l350 395h-263l9 42h316z" />
    <glyph glyph-name="Aringacute" unicode="&#x1fa;" horiz-adv-x="572" 
d="M510 0h-53l-25 173h-314l-94 -173h-57l390 712h46zM427 218l-60 422l-226 -422h286zM503 857c0 -63 -51 -115 -114 -115s-114 52 -114 115s51 114 114 114s114 -51 114 -114zM464 857c0 40 -35 74 -75 74s-75 -34 -75 -74s35 -75 75 -75s75 35 75 75zM560 1126l-127 -145
h-58l120 145h65z" />
    <glyph glyph-name="aringacute" unicode="&#x1fb;" horiz-adv-x="498" 
d="M432 366c0 -9 -2 -24 -4 -36l-66 -330h-48l11 50c-40 -40 -82 -56 -147 -56c-73 0 -148 21 -148 113c0 38 12 80 44 112c40 40 87 51 141 51h153l12 60c2 10 4 23 4 36c0 53 -42 79 -107 79s-102 -19 -142 -63l-31 34c45 51 95 72 172 72c62 0 156 -17 156 -122zM360 231
h-140c-82 0 -141 -41 -141 -124c0 -47 31 -71 110 -71c46 0 86 14 115 42c21 21 36 49 43 85zM434 677c0 -63 -51 -115 -114 -115s-114 52 -114 115s51 114 114 114s114 -51 114 -114zM395 677c0 40 -35 74 -75 74s-75 -34 -75 -74s35 -75 75 -75s75 35 75 75zM485 946
l-127 -145h-58l120 145h65z" />
    <glyph glyph-name="AEacute" unicode="&#x1fc;" horiz-adv-x="861" 
d="M900 712l-9 -45h-358l-58 -288h306l-9 -45h-306l-58 -289h363l-9 -45h-414l35 176h-240l-122 -176h-60l500 712h439zM482 667l-310 -446h220zM677 919l-127 -145h-58l120 145h65z" />
    <glyph glyph-name="aeacute" unicode="&#x1fd;" horiz-adv-x="798" 
d="M739 326c0 -21 -4 -58 -11 -95h-319c-4 -23 -7 -45 -7 -71c0 -70 34 -123 113 -123c61 0 100 20 144 60l33 -33c-52 -48 -105 -70 -179 -70c-71 0 -125 34 -146 91c-33 -59 -86 -91 -182 -91c-80 0 -155 21 -155 113c0 38 12 80 44 112c40 40 87 51 141 51h153l12 60
c2 10 4 23 4 36c0 53 -42 79 -107 79s-102 -19 -142 -63l-31 34c45 51 95 72 172 72c54 0 124 -14 150 -86c36 52 91 86 163 86c103 0 150 -76 150 -162zM360 231h-140c-82 0 -141 -41 -141 -124c0 -47 31 -71 110 -71c46 0 86 14 115 42c21 21 36 49 43 85zM691 326
c0 85 -50 120 -103 120c-80 0 -141 -56 -172 -176h270c3 18 5 32 5 56zM605 729l-127 -145h-58l120 145h65z" />
    <glyph glyph-name="Oslashacute" unicode="&#x1fe;" horiz-adv-x="619" 
d="M614 756l-67 -104c25 -31 40 -72 40 -122c0 -31 -4 -69 -25 -174c-34 -169 -51 -228 -105 -284c-45 -47 -109 -78 -190 -78c-46 0 -88 12 -120 35l-47 -73h-52l66 103c-25 31 -40 72 -40 123c0 31 4 69 25 174c34 169 51 228 105 284c45 47 109 78 190 78
c46 0 87 -12 120 -36l48 74h52zM535 527c0 30 -7 56 -19 77l-342 -533c26 -22 60 -32 95 -32c62 0 111 23 152 66c39 41 58 94 89 251c21 105 25 141 25 171zM487 640c-26 22 -60 33 -95 33c-62 0 -111 -23 -152 -66c-39 -41 -58 -94 -89 -251c-21 -105 -25 -141 -25 -171
c0 -31 7 -57 19 -78zM543 919l-127 -145h-58l120 145h65z" />
    <glyph glyph-name="oslashacute" unicode="&#x1ff;" 
d="M442 330c0 -29 -5 -68 -9 -89c-21 -108 -55 -163 -93 -196c-42 -37 -86 -51 -133 -51c-35 0 -71 9 -99 30l-51 -68h-47l72 96c-17 24 -27 57 -27 100c0 29 5 68 9 89c21 108 55 163 93 196c42 37 86 51 133 51c34 0 70 -9 97 -30l51 68h47l-71 -95c17 -25 28 -58 28 -101
zM394 328c0 25 -4 45 -12 61l-246 -327c20 -19 47 -26 74 -26c38 0 76 17 102 43c32 32 55 75 72 162c6 32 10 64 10 87zM103 154c0 -24 4 -44 11 -60l245 327c-20 17 -46 25 -72 25c-38 0 -76 -17 -102 -43c-32 -32 -55 -75 -72 -162c-6 -32 -10 -64 -10 -87zM455 729
l-127 -145h-58l120 145h65z" />
    <glyph glyph-name="Scommaaccent" unicode="&#x218;" horiz-adv-x="558" 
d="M543 638l-37 -32c-34 39 -72 68 -150 68c-119 0 -191 -87 -191 -178c0 -60 46 -92 111 -107l70 -16c102 -23 151 -70 151 -168c0 -133 -116 -211 -261 -211c-96 0 -156 29 -213 98l40 35c44 -58 96 -88 178 -88c113 0 204 67 204 166c0 82 -49 107 -110 121l-70 16
c-53 12 -151 41 -151 156c0 87 64 220 247 220c70 0 131 -21 182 -80zM263 -68l-89 -148h-61l97 148h53z" />
    <glyph glyph-name="scommaaccent" unicode="&#x219;" horiz-adv-x="469" 
d="M424 437l-36 -31c-35 29 -65 41 -121 41c-91 0 -136 -60 -136 -114c0 -37 29 -56 83 -63l65 -9c85 -12 118 -42 118 -115c0 -29 -10 -64 -46 -99c-37 -35 -98 -53 -164 -53c-78 0 -134 22 -175 68l37 32c34 -40 75 -58 143 -58c108 0 156 61 156 112c0 50 -30 64 -77 70
l-66 9c-107 15 -122 66 -122 103c0 33 14 76 43 105c33 33 81 53 149 53c63 0 111 -18 149 -51zM211 -68l-89 -148h-61l97 148h53z" />
    <glyph glyph-name="uni021A" unicode="&#x21a;" horiz-adv-x="512" 
d="M578 712l-9 -45h-201l-134 -667h-52l134 667h-202l9 45h455zM221 -68l-89 -148h-61l97 148h53z" />
    <glyph glyph-name="uni021B" unicode="&#x21b;" horiz-adv-x="312" 
d="M303 482l-7 -36h-101l-64 -321c-3 -16 -5 -24 -5 -37c0 -28 14 -46 61 -46h37l-9 -42h-45c-33 0 -92 13 -92 86c0 13 1 26 4 39l64 321h-65l7 36h65l31 154h49l-31 -154h101zM151 -68l-89 -148h-61l97 148h53z" />
    <glyph glyph-name="uni0237" unicode="&#x237;" horiz-adv-x="233" 
d="M189 482l-118 -592c-17 -83 -62 -120 -135 -120h-41l8 42h30c51 0 78 25 90 84l117 586h49z" />
    <glyph glyph-name="uni0259" unicode="&#x259;" horiz-adv-x="499" 
d="M59 156c0 21 4 58 11 95h319c4 23 7 45 7 71c0 70 -34 123 -113 123c-61 0 -100 -20 -144 -60l-33 33c52 48 105 70 179 70c99 0 159 -60 159 -165c0 -137 -62 -329 -235 -329c-103 0 -150 76 -150 162zM107 156c0 -85 50 -120 103 -120c80 0 141 56 172 176h-270
c-3 -18 -5 -32 -5 -56z" />
    <glyph glyph-name="uni02BB" unicode="&#x2bb;" horiz-adv-x="247" 
d="M265 782l-28 -140h-66l14 70z" />
    <glyph glyph-name="afii57929" unicode="&#x2bc;" horiz-adv-x="247" 
d="M251 712l-14 -70l-80 -70l28 140h66z" />
    <glyph glyph-name="circumflex" unicode="&#x2c6;" 
d="M458 584h-51l-67 111l-112 -111h-57l146 147h52z" />
    <glyph glyph-name="caron" unicode="&#x2c7;" 
d="M479 731l-146 -147h-52l-89 147h51l67 -111l112 111h57z" />
    <glyph glyph-name="breve" unicode="&#x2d8;" 
d="M474 695c-20 -83 -71 -118 -151 -118c-72 0 -120 31 -120 97c0 3 0 10 1 21h44c-1 -10 -1 -15 -1 -19c0 -36 29 -57 81 -57c59 0 90 27 102 76h44z" />
    <glyph glyph-name="dotaccent" unicode="&#x2d9;" 
d="M365 664l-12 -60h-60l12 60h60z" />
    <glyph glyph-name="ring" unicode="&#x2da;" 
d="M441 677c0 -63 -51 -115 -114 -115s-114 52 -114 115s51 114 114 114s114 -51 114 -114zM402 677c0 40 -35 74 -75 74s-75 -34 -75 -74s35 -75 75 -75s75 35 75 75z" />
    <glyph glyph-name="ogonek" unicode="&#x2db;" 
d="M232 -68l-89 -148h-61l97 148h53z" />
    <glyph glyph-name="tilde" unicode="&#x2dc;" 
d="M472 645c-34 -32 -62 -46 -91 -46c-26 0 -48 11 -66 25c-22 17 -30 20 -51 20c-19 0 -35 -10 -62 -35l-24 30c34 32 62 46 91 46c26 0 48 -11 66 -25c22 -17 30 -20 51 -20c19 0 35 10 62 35z" />
    <glyph glyph-name="hungarumlaut" unicode="&#x2dd;" 
d="M399 729l-128 -145h-57l120 145h65zM539 729l-128 -145h-57l120 145h65z" />
    <glyph glyph-name="uni0394" unicode="&#x394;" horiz-adv-x="561" 
d="M504 0h-543l392 712h44zM449 45l-86 597l-324 -597h410z" />
    <glyph glyph-name="uni03A9" unicode="&#x3a9;" horiz-adv-x="619" 
d="M587 530c0 -31 -6 -70 -25 -174c-32 -169 -47 -225 -106 -284c-12 -12 -21 -19 -36 -27h88l-9 -45h-180l9 45c38 12 65 32 95 62c39 39 58 95 87 249c20 107 25 141 25 172c0 97 -71 145 -139 145c-61 0 -113 -23 -156 -66c-40 -40 -60 -94 -89 -251
c-20 -107 -25 -141 -25 -172c0 -68 36 -122 92 -139l-9 -45h-173l9 45h87c-37 30 -58 79 -58 137c0 31 6 70 25 174c32 169 48 227 105 284c47 47 116 78 191 78c107 0 192 -72 192 -188z" />
    <glyph glyph-name="uni03BC" unicode="&#x3bc;" horiz-adv-x="531" 
d="M486 482l-96 -482h-49l11 57c-33 -39 -79 -63 -149 -63c-47 0 -85 18 -109 50l-55 -274h-48l142 712h49l-60 -299c-3 -17 -6 -36 -6 -51c0 -65 42 -96 101 -96c34 0 134 16 161 150l59 296h49z" />
    <glyph glyph-name="pi" unicode="&#x3c0;" horiz-adv-x="561" 
d="M493 482l-96 -482h-49l88 440h-255l-88 -440h-49l96 482h353z" />
    <glyph glyph-name="uni0400" unicode="&#x400;" horiz-adv-x="570" 
d="M609 712l-9 -45h-358l-57 -285h307l-9 -45h-307l-59 -292h365l-9 -45h-417l143 712h410zM431 774h-52l-71 145h61z" />
    <glyph glyph-name="afii10023" unicode="&#x401;" horiz-adv-x="570" 
d="M609 712l-9 -45h-358l-57 -285h307l-9 -45h-307l-59 -292h365l-9 -45h-417l143 712h410zM353 859l-15 -75h-55l15 75h55zM550 859l-15 -75h-55l15 75h55z" />
    <glyph glyph-name="afii10051" unicode="&#x402;" horiz-adv-x="670" 
d="M614 253c0 -144 -94 -253 -249 -253h-41l9 45h33c109 0 196 80 196 207c0 77 -36 130 -142 130h-140l-76 -382h-52l134 667h-172l9 45h455l-9 -45h-231l-48 -240h137c139 0 187 -76 187 -174z" />
    <glyph glyph-name="afii10052" unicode="&#x403;" horiz-adv-x="526" 
d="M602 712l-9 -45h-351l-134 -667h-52l143 712h403zM524 919l-127 -145h-58l120 145h65z" />
    <glyph glyph-name="afii10053" unicode="&#x404;" horiz-adv-x="612" 
d="M590 513h-52c-1 99 -56 160 -148 160c-60 0 -110 -24 -150 -66c-41 -43 -58 -95 -84 -225h272l-9 -45h-272c-18 -91 -21 -127 -21 -155c0 -90 72 -143 151 -143c110 0 179 78 207 160h53c-39 -127 -140 -205 -263 -205c-104 0 -200 62 -200 188c0 29 3 69 25 174
c35 170 49 226 106 285c42 44 108 77 184 77c133 0 200 -85 201 -205z" />
    <glyph glyph-name="afii10054" unicode="&#x405;" horiz-adv-x="558" 
d="M543 638l-37 -32c-34 39 -72 68 -150 68c-119 0 -191 -87 -191 -178c0 -60 46 -92 111 -107l70 -16c102 -23 151 -70 151 -168c0 -133 -116 -211 -261 -211c-96 0 -156 29 -213 98l40 35c44 -58 96 -88 178 -88c113 0 204 67 204 166c0 82 -49 107 -110 121l-70 16
c-53 12 -151 41 -151 156c0 87 64 220 247 220c70 0 131 -21 182 -80z" />
    <glyph glyph-name="afii10055" unicode="&#x406;" horiz-adv-x="260" 
d="M251 712l-143 -712h-52l143 712h52z" />
    <glyph glyph-name="afii10056" unicode="&#x407;" horiz-adv-x="260" 
d="M251 712l-143 -712h-52l143 712h52zM175 859l-15 -75h-55l15 75h55zM372 859l-15 -75h-55l15 75h55z" />
    <glyph glyph-name="afii10057" unicode="&#x408;" horiz-adv-x="473" 
d="M473 712l-101 -503c-26 -128 -99 -215 -236 -215c-67 0 -113 25 -142 62l38 33c27 -33 58 -50 110 -50c93 0 158 66 181 183l98 490h52z" />
    <glyph glyph-name="afii10058" unicode="&#x409;" horiz-adv-x="986" 
d="M941 241c0 -138 -93 -241 -248 -241h-250l134 667h-260l-51 -255c-64 -321 -147 -412 -280 -412h-29l9 45h18c96 0 173 68 237 390l55 277h362l-61 -305h186c136 0 178 -87 178 -166zM889 240c0 63 -34 122 -131 122h-191l-63 -317h191c111 0 194 76 194 195z" />
    <glyph glyph-name="afii10059" unicode="&#x40a;" horiz-adv-x="1003" 
d="M958 241c0 -138 -93 -241 -248 -241h-250l73 362h-352l-73 -362h-52l143 712h52l-61 -305h352l61 305h52l-61 -305h186c136 0 178 -87 178 -166zM906 240c0 63 -34 122 -131 122h-191l-63 -317h191c111 0 194 76 194 195z" />
    <glyph glyph-name="afii10060" unicode="&#x40b;" horiz-adv-x="690" 
d="M614 263c0 -19 -3 -39 -7 -57l-42 -206h-52l44 215c3 14 5 35 5 45c0 63 -34 122 -131 122h-151l-76 -382h-52l134 667h-172l9 45h455l-9 -45h-231l-48 -240h142c130 0 182 -74 182 -164z" />
    <glyph glyph-name="afii10061" unicode="&#x40c;" horiz-adv-x="544" 
d="M183 370l355 342h73l-364 -344l248 -368h-71zM251 712l-143 -712h-52l143 712h52zM529 919l-127 -145h-58l120 145h65z" />
    <glyph glyph-name="uni040D" unicode="&#x40d;" horiz-adv-x="702" 
d="M693 712l-143 -712h-52l124 618l-514 -618h-52l143 712h52l-124 -618l514 618h52zM484 774h-52l-71 145h61z" />
    <glyph glyph-name="afii10062" unicode="&#x40e;" horiz-adv-x="548" 
d="M524 874c-20 -83 -72 -120 -151 -120c-74 0 -120 35 -120 100c0 4 0 9 1 20h47c-1 -11 -1 -17 -1 -21c0 -36 26 -62 76 -62c56 0 88 31 101 83h47zM638 712l-391 -604c-47 -73 -88 -108 -155 -108h-54l9 45h38c53 0 81 25 117 80l47 72l-147 515h53l130 -462l295 462h58z
" />
    <glyph glyph-name="afii10145" unicode="&#x40f;" horiz-adv-x="644" 
d="M635 712l-143 -712h-192l-32 -170h-52l32 170h-192l143 712h52l-134 -667h332l134 667h52z" />
    <glyph glyph-name="afii10017" unicode="&#x410;" horiz-adv-x="572" 
d="M510 0h-53l-25 173h-314l-94 -173h-57l390 712h46zM427 218l-60 422l-226 -422h286z" />
    <glyph glyph-name="afii10018" unicode="&#x411;" horiz-adv-x="619" 
d="M594 712l-9 -45h-343l-52 -260h186c136 0 178 -87 178 -166c0 -138 -93 -241 -248 -241h-250l143 712h395zM502 240c0 63 -34 122 -131 122h-191l-63 -317h191c111 0 194 76 194 195z" />
    <glyph glyph-name="afii10019" unicode="&#x412;" horiz-adv-x="639" 
d="M608 553c0 -61 -27 -151 -138 -189c57 -25 88 -70 88 -139c0 -132 -94 -225 -226 -225h-276l143 712h233c161 0 176 -106 176 -159zM506 225c0 77 -50 116 -126 116h-204l-59 -296h213c102 0 176 74 176 180zM556 555c0 53 -24 112 -129 112h-185l-56 -280h196
c107 0 174 75 174 168z" />
    <glyph glyph-name="afii10020" unicode="&#x413;" horiz-adv-x="526" 
d="M602 712l-9 -45h-351l-134 -667h-52l143 712h403z" />
    <glyph glyph-name="afii10021" unicode="&#x414;" horiz-adv-x="649" 
d="M632 712l-134 -667h81l-43 -215h-52l34 170h-492l-33 -170h-52l40 215h66c87 106 137 227 173 407l52 260h360zM571 667h-259l-51 -255c-29 -145 -77 -267 -156 -367h341z" />
    <glyph glyph-name="afii10022" unicode="&#x415;" horiz-adv-x="570" 
d="M609 712l-9 -45h-358l-57 -285h307l-9 -45h-307l-59 -292h365l-9 -45h-417l143 712h410z" />
    <glyph glyph-name="afii10024" unicode="&#x416;" horiz-adv-x="829" 
d="M418 371l-385 -371h-79l401 376l-227 336h66zM471 370l351 342h73l-360 -344l244 -368h-71zM539 712l-143 -712h-52l143 712h52z" />
    <glyph glyph-name="afii10025" unicode="&#x417;" horiz-adv-x="581" 
d="M550 548c0 -63 -31 -145 -142 -184c57 -25 93 -70 93 -139c0 -135 -92 -231 -242 -231c-145 0 -212 85 -213 205h52c0 -99 59 -160 160 -160c120 0 191 77 191 186c0 77 -54 116 -131 116h-85l9 46h78c109 0 178 68 178 162c0 53 -27 124 -139 124s-181 -78 -207 -160
h-53c40 127 133 205 262 205c143 0 189 -84 189 -170z" />
    <glyph glyph-name="afii10026" unicode="&#x418;" horiz-adv-x="702" 
d="M693 712l-143 -712h-52l124 618l-514 -618h-52l143 712h52l-124 -618l514 618h52z" />
    <glyph glyph-name="afii10027" unicode="&#x419;" horiz-adv-x="702" 
d="M693 712l-143 -712h-52l124 618l-514 -618h-52l143 712h52l-124 -618l514 618h52zM609 874c-20 -83 -72 -120 -151 -120c-74 0 -120 35 -120 100c0 4 0 9 1 20h47c-1 -11 -1 -17 -1 -21c0 -36 26 -62 76 -62c56 0 88 31 101 83h47z" />
    <glyph glyph-name="afii10028" unicode="&#x41a;" horiz-adv-x="544" 
d="M183 370l355 342h73l-364 -344l248 -368h-71zM251 712l-143 -712h-52l143 712h52z" />
    <glyph glyph-name="afii10029" unicode="&#x41b;" horiz-adv-x="647" 
d="M638 712l-143 -712h-52l134 667h-260l-51 -255c-64 -321 -147 -412 -280 -412h-29l9 45h18c96 0 173 68 237 390l55 277h362z" />
    <glyph glyph-name="afii10030" unicode="&#x41c;" horiz-adv-x="777" 
d="M768 712l-143 -712h-52l119 585l-300 -467h-52l-113 474l-118 -592h-53l143 712h51l126 -535l341 535h51z" />
    <glyph glyph-name="afii10031" unicode="&#x41d;" horiz-adv-x="664" 
d="M655 712l-143 -712h-52l68 337h-352l-68 -337h-52l143 712h52l-66 -330h352l66 330h52z" />
    <glyph glyph-name="afii10032" unicode="&#x41e;" horiz-adv-x="619" 
d="M587 530c0 -31 -4 -69 -25 -174c-34 -169 -51 -228 -105 -284c-45 -47 -109 -78 -190 -78c-108 0 -193 68 -193 188c0 31 4 69 25 174c34 169 51 228 105 284c45 47 109 78 190 78c108 0 193 -68 193 -188zM535 527c0 98 -70 146 -143 146c-62 0 -111 -23 -152 -66
c-39 -41 -58 -94 -89 -251c-21 -105 -25 -141 -25 -171c0 -98 70 -146 143 -146c62 0 111 23 152 66c39 41 58 94 89 251c21 105 25 141 25 171z" />
    <glyph glyph-name="afii10033" unicode="&#x41f;" horiz-adv-x="644" 
d="M635 712l-143 -712h-52l134 667h-332l-134 -667h-52l143 712h436z" />
    <glyph glyph-name="afii10034" unicode="&#x420;" horiz-adv-x="599" 
d="M615 546c0 -138 -93 -241 -248 -241h-198l-61 -305h-52l143 712h238c136 0 178 -87 178 -166zM563 545c0 63 -34 122 -131 122h-191l-63 -317h191c111 0 194 76 194 195z" />
    <glyph glyph-name="afii10035" unicode="&#x421;" horiz-adv-x="612" 
d="M590 513h-52c-1 99 -56 160 -148 160c-60 0 -110 -24 -150 -66c-43 -45 -59 -101 -89 -251c-21 -105 -25 -144 -25 -174c0 -90 72 -143 151 -143c110 0 179 78 207 160h53c-39 -127 -140 -205 -263 -205c-104 0 -200 62 -200 188c0 29 3 69 25 174c35 170 49 226 106 285
c42 44 108 77 184 77c133 0 200 -85 201 -205z" />
    <glyph glyph-name="afii10036" unicode="&#x422;" horiz-adv-x="512" 
d="M578 712l-9 -45h-201l-134 -667h-52l134 667h-202l9 45h455z" />
    <glyph glyph-name="afii10037" unicode="&#x423;" horiz-adv-x="548" 
d="M638 712l-391 -604c-47 -73 -88 -108 -155 -108h-54l9 45h38c53 0 81 25 117 80l47 72l-147 515h53l130 -462l295 462h58z" />
    <glyph glyph-name="afii10038" unicode="&#x424;" horiz-adv-x="744" 
d="M718 464c0 -25 -2 -57 -9 -92c-26 -131 -54 -174 -113 -220c-49 -39 -122 -61 -229 -61l-18 -94h-52l18 94c-143 1 -234 72 -234 206c0 25 2 57 9 92c26 131 54 174 113 220c49 39 122 61 229 61l12 65h52l-12 -65c143 -1 234 -72 234 -206zM666 461
c0 103 -70 164 -191 164l-100 -489c79 0 144 15 188 49s71 72 94 187c7 35 9 63 9 89zM424 625c-79 0 -144 -15 -188 -49s-71 -72 -94 -187c-7 -35 -9 -63 -9 -89c0 -103 70 -164 191 -164z" />
    <glyph glyph-name="afii10039" unicode="&#x425;" horiz-adv-x="507" 
d="M566 712l-262 -351l141 -361h-57l-121 320l-238 -320h-61l279 371l-129 341h57l109 -301l220 301h62z" />
    <glyph glyph-name="afii10040" unicode="&#x426;" horiz-adv-x="652" 
d="M635 712l-134 -667h81l-43 -215h-52l34 170h-465l143 712h52l-134 -667h332l134 667h52z" />
    <glyph glyph-name="afii10041" unicode="&#x427;" horiz-adv-x="619" 
d="M610 712l-143 -712h-52l60 298c-53 -15 -123 -28 -186 -28c-103 0 -171 49 -171 145c0 14 2 35 5 51l48 246h52l-48 -241c-3 -15 -5 -35 -5 -49c0 -84 60 -107 125 -107c63 0 132 12 189 28l74 369h52z" />
    <glyph glyph-name="afii10042" unicode="&#x428;" horiz-adv-x="918" 
d="M909 712l-143 -712h-710l143 712h52l-134 -667h277l134 667h52l-134 -667h277l134 667h52z" />
    <glyph glyph-name="afii10043" unicode="&#x429;" horiz-adv-x="926" 
d="M909 712l-134 -667h81l-43 -215h-52l34 170h-739l143 712h52l-134 -667h277l134 667h52l-134 -667h277l134 667h52z" />
    <glyph glyph-name="afii10044" unicode="&#x42a;" horiz-adv-x="695" 
d="M650 241c0 -138 -93 -241 -248 -241h-250l134 667h-172l9 45h224l-61 -305h186c136 0 178 -87 178 -166zM598 240c0 63 -34 122 -131 122h-191l-63 -317h191c111 0 194 76 194 195z" />
    <glyph glyph-name="afii10045" unicode="&#x42b;" horiz-adv-x="814" 
d="M554 241c0 -138 -93 -241 -248 -241h-250l143 712h52l-61 -305h186c136 0 178 -87 178 -166zM502 240c0 63 -34 122 -131 122h-191l-63 -317h191c111 0 194 76 194 195zM805 712l-143 -712h-52l143 712h52z" />
    <glyph glyph-name="afii10046" unicode="&#x42c;" horiz-adv-x="599" 
d="M554 241c0 -138 -93 -241 -248 -241h-250l143 712h52l-61 -305h186c136 0 178 -87 178 -166zM502 240c0 63 -34 122 -131 122h-191l-63 -317h191c111 0 194 76 194 195z" />
    <glyph glyph-name="afii10047" unicode="&#x42d;" horiz-adv-x="612" 
d="M581 530c0 -29 -3 -69 -25 -174c-35 -170 -49 -226 -106 -285c-42 -44 -109 -77 -186 -77c-123 0 -197 71 -199 205h52c1 -99 56 -160 148 -160c60 0 110 24 150 66c41 43 58 96 85 232h-272l9 45h272c17 85 20 120 20 148c0 90 -72 143 -150 143
c-108 0 -178 -78 -204 -160h-52c34 115 127 205 257 205c105 0 201 -62 201 -188z" />
    <glyph glyph-name="afii10048" unicode="&#x42e;" horiz-adv-x="855" 
d="M823 530c0 -31 -4 -69 -25 -174c-34 -169 -51 -228 -105 -284c-45 -47 -109 -78 -190 -78c-108 0 -193 68 -193 188c0 29 3 64 21 155h-156l-67 -337h-52l143 712h52l-67 -330h156c30 148 49 205 100 258c45 47 109 78 190 78c108 0 193 -68 193 -188zM771 527
c0 98 -70 146 -143 146c-62 0 -111 -23 -152 -66c-39 -41 -58 -94 -89 -251c-21 -105 -25 -141 -25 -171c0 -98 70 -146 143 -146c62 0 111 23 152 66c39 41 58 94 89 251c21 105 25 141 25 171z" />
    <glyph glyph-name="afii10049" unicode="&#x42f;" horiz-adv-x="627" 
d="M618 712l-143 -712h-52l66 331h-188l-237 -331h-63l244 336c-90 18 -118 85 -118 150c0 98 64 226 243 226h248zM557 667h-198c-124 0 -180 -97 -180 -179c0 -68 40 -112 124 -112h195z" />
    <glyph glyph-name="afii10065" unicode="&#x430;" horiz-adv-x="498" 
d="M432 366c0 -9 -2 -24 -4 -36l-66 -330h-48l11 50c-40 -40 -82 -56 -147 -56c-73 0 -148 21 -148 113c0 38 12 80 44 112c40 40 87 51 141 51h153l12 60c2 10 4 23 4 36c0 53 -42 79 -107 79s-102 -19 -142 -63l-31 34c45 51 95 72 172 72c62 0 156 -17 156 -122zM360 231
h-140c-82 0 -141 -41 -141 -124c0 -47 31 -71 110 -71c46 0 86 14 115 42c21 21 36 49 43 85z" />
    <glyph glyph-name="afii10066" unicode="&#x431;" horiz-adv-x="495" 
d="M496 714l-9 -45c-128 -3 -205 -20 -248 -56c-50 -42 -70 -102 -91 -196c38 54 96 71 142 71c47 0 152 -20 152 -160c0 -29 -5 -65 -9 -87c-21 -108 -55 -163 -93 -196c-42 -37 -89 -51 -133 -51c-47 0 -152 20 -152 160c0 39 12 103 26 173c41 205 71 273 128 319
c54 43 131 64 287 68zM394 330c0 86 -54 116 -106 116c-38 0 -77 -18 -103 -44c-32 -32 -55 -74 -72 -161c-6 -32 -10 -65 -10 -89c0 -86 54 -116 106 -116c38 0 77 18 103 44c32 32 55 74 72 161c6 32 10 65 10 89z" />
    <glyph glyph-name="afii10067" unicode="&#x432;" horiz-adv-x="508" 
d="M457 368c0 -59 -28 -101 -95 -123c50 -23 61 -69 61 -99c0 -97 -73 -146 -186 -146h-193l97 482h171c84 0 145 -30 145 -114zM373 143c0 32 -13 83 -101 83h-134l-37 -184h138c98 0 134 42 134 101zM408 365c0 48 -29 75 -101 75h-126l-35 -173h143c91 0 119 47 119 98z
" />
    <glyph glyph-name="afii10068" unicode="&#x433;" horiz-adv-x="379" 
d="M417 482l-8 -42h-228l-88 -440h-49l97 482h276z" />
    <glyph glyph-name="afii10069" unicode="&#x434;" horiz-adv-x="530" 
d="M470 482l-88 -440h72l-36 -182h-48l28 140h-372l-28 -140h-48l36 182h56c47 53 88 123 123 300l28 140h277zM413 440h-181l-22 -111c-31 -162 -75 -242 -114 -287h237z" />
    <glyph glyph-name="afii10070" unicode="&#x435;" horiz-adv-x="499" 
d="M440 326c0 -21 -4 -58 -11 -95h-319c-4 -23 -7 -45 -7 -71c0 -70 34 -123 113 -123c61 0 100 20 144 60l33 -33c-52 -48 -105 -70 -179 -70c-99 0 -159 60 -159 165c0 137 62 329 235 329c103 0 150 -76 150 -162zM392 326c0 85 -50 120 -103 120
c-80 0 -141 -56 -172 -176h270c3 18 5 32 5 56z" />
    <glyph glyph-name="afii10072" unicode="&#x436;" horiz-adv-x="618" 
d="M334 247l242 235h64l-251 -236l169 -246h-61zM283 247l-258 -247h-67l271 254l-158 228h56zM380 482l-96 -482h-49l96 482h49z" />
    <glyph glyph-name="afii10073" unicode="&#x437;" horiz-adv-x="477" 
d="M426 367c0 -59 -33 -101 -100 -122c50 -23 66 -66 66 -100c0 -97 -77 -151 -195 -151c-63 0 -134 17 -179 76l36 30c38 -47 89 -64 145 -64c103 0 144 49 144 106c0 39 -19 85 -107 85h-62l8 40h71c92 0 125 46 125 97c0 46 -38 82 -112 82c-66 0 -109 -30 -146 -65
l-30 31c46 43 99 76 179 76c106 0 157 -53 157 -121z" />
    <glyph glyph-name="afii10074" unicode="&#x438;" horiz-adv-x="538" 
d="M494 482l-96 -482h-49l80 400l-336 -400h-49l96 482h49l-80 -400l336 400h49z" />
    <glyph glyph-name="afii10075" unicode="&#x439;" horiz-adv-x="538" 
d="M494 482l-96 -482h-49l80 400l-336 -400h-49l96 482h49l-80 -400l336 400h49zM486 695c-20 -83 -72 -120 -151 -120c-74 0 -120 35 -120 100c0 4 0 9 1 20h47c-1 -11 -1 -17 -1 -21c0 -36 26 -62 76 -62c56 0 88 31 101 83h47z" />
    <glyph glyph-name="afii10076" unicode="&#x43a;" horiz-adv-x="436" 
d="M143 247l255 235h63l-263 -236l180 -246h-59zM189 482l-96 -482h-49l96 482h49z" />
    <glyph glyph-name="afii10077" unicode="&#x43b;" horiz-adv-x="505" 
d="M461 482l-96 -482h-49l88 440h-179l-38 -190c-41 -205 -115 -250 -195 -250h-20l8 42h15c41 0 107 20 149 230l42 210h275z" />
    <glyph glyph-name="afii10078" unicode="&#x43c;" horiz-adv-x="613" 
d="M569 482l-93 -482h-49l73 378l-201 -300h-46l-86 305l-74 -383h-49l93 482h49l99 -353l235 353h49z" />
    <glyph glyph-name="afii10079" unicode="&#x43d;" horiz-adv-x="534" 
d="M490 482l-96 -482h-49l45 226h-252l-45 -226h-49l96 482h49l-43 -214h252l43 214h49z" />
    <glyph glyph-name="afii10080" unicode="&#x43e;" 
d="M442 330c0 -29 -5 -68 -9 -89c-21 -108 -55 -163 -93 -196c-42 -37 -85 -51 -133 -51c-75 0 -152 41 -152 158c0 29 5 68 9 89c21 108 55 163 93 196c42 37 85 51 133 51c75 0 152 -41 152 -158zM394 328c0 86 -52 118 -107 118c-38 0 -76 -17 -102 -43
c-32 -32 -55 -75 -72 -162c-6 -32 -10 -64 -10 -87c0 -86 52 -118 107 -118c38 0 76 17 102 43c32 32 55 75 72 162c6 32 10 64 10 87z" />
    <glyph glyph-name="afii10081" unicode="&#x43f;" horiz-adv-x="558" 
d="M490 482l-96 -482h-49l88 440h-252l-88 -440h-49l96 482h350z" />
    <glyph glyph-name="afii10082" unicode="&#x440;" horiz-adv-x="513" 
d="M458 330c0 -29 -4 -59 -10 -89c-15 -77 -39 -149 -85 -195c-38 -38 -81 -52 -132 -52c-44 0 -97 14 -124 73l-60 -297h-49l142 712h49l-13 -62c49 60 97 68 141 68c104 0 141 -66 141 -158zM410 332c0 64 -24 114 -99 114c-110 0 -150 -101 -170 -205
c-6 -31 -11 -63 -11 -91c0 -64 24 -114 99 -114c110 0 150 101 170 205c6 31 11 63 11 91z" />
    <glyph glyph-name="afii10083" unicode="&#x441;" horiz-adv-x="469" 
d="M445 414l-36 -29c-29 43 -59 61 -107 61c-42 0 -85 -16 -122 -55c-39 -42 -60 -101 -69 -150c-5 -27 -8 -49 -8 -76c0 -94 61 -129 120 -129c52 0 89 19 131 63l30 -35c-48 -49 -104 -70 -161 -70c-123 0 -168 85 -168 174c0 18 2 48 7 73c27 145 110 247 245 247
c66 0 106 -28 138 -74z" />
    <glyph glyph-name="afii10084" unicode="&#x442;" horiz-adv-x="395" 
d="M433 482l-8 -42h-164l-88 -440h-49l88 440h-163l8 42h376z" />
    <glyph glyph-name="afii10085" unicode="&#x443;" horiz-adv-x="408" 
d="M441 482l-329 -614c-18 -34 -30 -47 -42 -58c-21 -19 -48 -28 -93 -28h-25l9 42h19c52 0 68 16 96 70l56 107l-71 481h50l56 -421l219 421h55z" />
    <glyph glyph-name="afii10086" unicode="&#x444;" horiz-adv-x="631" 
d="M580 299c0 -23 -4 -54 -7 -69c-21 -105 -59 -150 -110 -187c-41 -30 -105 -48 -173 -49l-44 -224h-49l44 225c-110 9 -190 70 -190 188c0 23 4 54 7 69c21 105 58 150 109 187c41 30 105 48 173 49l45 224h49l-45 -225c110 -9 191 -70 191 -188zM332 446
c-53 -1 -107 -16 -140 -42c-41 -32 -69 -71 -85 -153c-4 -21 -7 -48 -7 -67c0 -91 51 -141 150 -147zM531 298c0 91 -51 141 -150 147l-82 -409c53 1 107 16 140 42c41 32 69 71 85 153c4 21 7 48 7 67z" />
    <glyph glyph-name="afii10087" unicode="&#x445;" horiz-adv-x="441" 
d="M442 482l-192 -238l110 -244h-57l-88 209l-164 -209h-60l201 251l-105 231h57l84 -197l154 197h60z" />
    <glyph glyph-name="afii10088" unicode="&#x446;" horiz-adv-x="549" 
d="M489 482l-88 -440h72l-36 -182h-48l28 140h-373l96 482h49l-88 -440h251l88 440h49z" />
    <glyph glyph-name="afii10089" unicode="&#x447;" horiz-adv-x="509" 
d="M465 482l-96 -482h-49l39 197c-38 -12 -91 -23 -143 -23c-76 0 -125 37 -125 110c0 12 2 29 5 45l30 153h49l-30 -151c-4 -19 -5 -34 -5 -44c0 -47 34 -68 88 -68c49 0 100 9 139 20l49 243h49z" />
    <glyph glyph-name="afii10090" unicode="&#x448;" horiz-adv-x="757" 
d="M713 482l-96 -482h-573l96 482h49l-88 -440h213l88 440h49l-88 -440h213l88 440h49z" />
    <glyph glyph-name="afii10091" unicode="&#x449;" horiz-adv-x="773" 
d="M713 482l-88 -440h72l-36 -182h-48l28 140h-597l96 482h49l-88 -440h213l88 440h49l-88 -440h213l88 440h49z" />
    <glyph glyph-name="afii10092" unicode="&#x44a;" horiz-adv-x="501" 
d="M441 168c0 -101 -67 -168 -181 -168h-174l88 440h-125l9 42h173l-40 -198h121c97 0 129 -61 129 -116zM392 162c0 39 -17 80 -93 80h-116l-40 -200h118c106 0 131 77 131 120z" />
    <glyph glyph-name="afii10093" unicode="&#x44b;" horiz-adv-x="637" 
d="M399 168c0 -101 -67 -168 -181 -168h-174l96 482h49l-40 -198h121c97 0 129 -61 129 -116zM350 162c0 39 -17 80 -93 80h-116l-40 -200h118c106 0 131 77 131 120zM593 482l-96 -482h-49l96 482h49z" />
    <glyph glyph-name="afii10094" unicode="&#x44c;" horiz-adv-x="459" 
d="M399 168c0 -101 -67 -168 -181 -168h-174l96 482h49l-40 -198h121c97 0 129 -61 129 -116zM350 162c0 39 -17 80 -93 80h-116l-40 -200h118c106 0 131 77 131 120z" />
    <glyph glyph-name="afii10095" unicode="&#x44d;" horiz-adv-x="469" 
d="M414 314c0 -17 -1 -47 -5 -73c-21 -140 -99 -247 -241 -247c-71 0 -118 25 -150 71l35 33c29 -43 68 -62 116 -62c45 0 89 14 125 53c35 39 56 94 64 141h-217l8 40h215c2 21 2 37 2 47c0 91 -63 129 -118 129c-52 0 -86 -18 -128 -62l-28 31c49 51 98 73 156 73
c118 0 166 -87 166 -174z" />
    <glyph glyph-name="afii10096" unicode="&#x44e;" horiz-adv-x="676" 
d="M621 330c0 -29 -5 -68 -9 -89c-21 -108 -55 -163 -93 -196c-42 -37 -85 -51 -133 -51c-75 0 -152 41 -152 158c0 23 2 52 6 74h-102l-45 -226h-49l96 482h49l-43 -214h102c21 90 53 139 88 169c42 37 85 51 133 51c75 0 152 -41 152 -158zM573 328c0 86 -52 118 -107 118
c-38 0 -76 -17 -102 -43c-32 -32 -55 -75 -72 -162c-6 -32 -10 -64 -10 -87c0 -86 52 -118 107 -118c38 0 76 17 102 43c32 32 55 75 72 162c6 32 10 64 10 87z" />
    <glyph glyph-name="afii10097" unicode="&#x44f;" horiz-adv-x="480" 
d="M436 482l-96 -482h-49l40 196h-121l-138 -196h-58l146 202c-60 18 -81 66 -81 111c0 101 68 169 183 169h174zM379 440h-118c-107 0 -133 -78 -133 -121c0 -39 18 -81 95 -81h116z" />
    <glyph glyph-name="uni0450" unicode="&#x450;" horiz-adv-x="499" 
d="M440 326c0 -21 -4 -58 -11 -95h-319c-4 -23 -7 -45 -7 -71c0 -70 34 -123 113 -123c61 0 100 20 144 60l33 -33c-52 -48 -105 -70 -179 -70c-99 0 -159 60 -159 165c0 137 62 329 235 329c103 0 150 -76 150 -162zM392 326c0 85 -50 120 -103 120
c-80 0 -141 -56 -172 -176h270c3 18 5 32 5 56zM344 584h-52l-71 145h61z" />
    <glyph glyph-name="afii10071" unicode="&#x451;" horiz-adv-x="499" 
d="M440 326c0 -21 -4 -58 -11 -95h-319c-4 -23 -7 -45 -7 -71c0 -70 34 -123 113 -123c61 0 100 20 144 60l33 -33c-52 -48 -105 -70 -179 -70c-99 0 -159 60 -159 165c0 137 62 329 235 329c103 0 150 -76 150 -162zM392 326c0 85 -50 120 -103 120
c-80 0 -141 -56 -172 -176h270c3 18 5 32 5 56zM266 669l-15 -75h-55l15 75h55zM463 669l-15 -75h-55l15 75h55z" />
    <glyph glyph-name="afii10099" unicode="&#x452;" horiz-adv-x="531" 
d="M463 351c0 -15 -2 -31 -5 -46l-69 -342c-20 -100 -73 -143 -159 -143h-40l8 42h28c65 0 101 32 116 107l66 330c3 15 6 34 6 51c0 65 -42 96 -100 96c-35 0 -135 -16 -162 -150l-59 -296h-49l112 564h-63l8 38h63l22 110h49l-22 -110h227l-8 -38h-227l-27 -139
c33 39 78 63 146 63c82 0 139 -53 139 -137z" />
    <glyph glyph-name="afii10100" unicode="&#x453;" horiz-adv-x="379" 
d="M417 482l-8 -42h-228l-88 -440h-49l97 482h276zM423 729l-127 -145h-58l120 145h65z" />
    <glyph glyph-name="afii10101" unicode="&#x454;" horiz-adv-x="469" 
d="M445 414l-36 -29c-29 43 -59 61 -107 61c-42 0 -85 -16 -122 -55c-32 -34 -52 -79 -63 -121h218l-8 -40h-218c-4 -23 -6 -42 -6 -65c0 -94 61 -129 120 -129c52 0 89 19 131 63l30 -35c-48 -49 -104 -70 -161 -70c-123 0 -168 85 -168 174c0 18 2 48 7 73
c27 145 110 247 245 247c66 0 106 -28 138 -74z" />
    <glyph glyph-name="afii10102" unicode="&#x455;" horiz-adv-x="469" 
d="M424 437l-36 -31c-35 29 -65 41 -121 41c-91 0 -136 -60 -136 -114c0 -37 29 -56 83 -63l65 -9c85 -12 118 -42 118 -115c0 -29 -10 -64 -46 -99c-37 -35 -98 -53 -164 -53c-78 0 -134 22 -175 68l37 32c34 -40 75 -58 143 -58c108 0 156 61 156 112c0 50 -30 64 -77 70
l-66 9c-107 15 -122 66 -122 103c0 33 14 76 43 105c33 33 81 53 149 53c63 0 111 -18 149 -51z" />
    <glyph glyph-name="afii10103" unicode="&#x456;" horiz-adv-x="233" 
d="M189 482l-96 -482h-49l96 482h49zM237 704l-12 -60h-60l12 60h60z" />
    <glyph glyph-name="afii10104" unicode="&#x457;" horiz-adv-x="233" 
d="M189 482l-96 -482h-49l96 482h49zM125 669l-15 -75h-55l15 75h55zM322 669l-15 -75h-55l15 75h55z" />
    <glyph glyph-name="afii10105" unicode="&#x458;" horiz-adv-x="233" 
d="M189 482l-118 -592c-17 -83 -62 -120 -135 -120h-41l8 42h30c51 0 78 25 90 84l117 586h49zM237 704l-12 -60h-60l12 60h60z" />
    <glyph glyph-name="afii10106" unicode="&#x459;" horiz-adv-x="741" 
d="M681 168c0 -101 -67 -168 -181 -168h-174l88 440h-189l-38 -190c-41 -205 -115 -250 -195 -250h-20l8 42h15c41 0 107 20 149 230l42 210h285l-39 -198h120c97 0 129 -61 129 -116zM632 162c0 39 -17 80 -93 80h-116l-40 -200h118c106 0 131 77 131 120z" />
    <glyph glyph-name="afii10107" unicode="&#x45a;" horiz-adv-x="760" 
d="M700 168c0 -101 -67 -168 -181 -168h-174l48 242h-252l-48 -242h-49l96 482h49l-40 -198h252l40 198h49l-40 -198h121c97 0 129 -61 129 -116zM651 162c0 39 -17 80 -93 80h-116l-40 -200h118c106 0 131 77 131 120z" />
    <glyph glyph-name="afii10108" unicode="&#x45b;" horiz-adv-x="531" 
d="M463 351c0 -15 -2 -31 -5 -46l-61 -305h-49l60 299c3 15 6 34 6 51c0 65 -42 96 -100 96c-35 0 -135 -16 -162 -150l-59 -296h-49l112 564h-63l8 38h63l22 110h49l-22 -110h227l-8 -38h-227l-27 -139c33 39 78 63 146 63c82 0 139 -53 139 -137z" />
    <glyph glyph-name="afii10109" unicode="&#x45c;" horiz-adv-x="436" 
d="M143 247l255 235h63l-263 -236l180 -246h-59zM189 482l-96 -482h-49l96 482h49zM449 729l-127 -145h-58l120 145h65z" />
    <glyph glyph-name="uni045D" unicode="&#x45d;" horiz-adv-x="538" 
d="M494 482l-96 -482h-49l80 400l-336 -400h-49l96 482h49l-80 -400l336 400h49zM366 584h-52l-71 145h61z" />
    <glyph glyph-name="afii10110" unicode="&#x45e;" horiz-adv-x="408" 
d="M412 695c-20 -83 -72 -120 -151 -120c-74 0 -120 35 -120 100c0 4 0 9 1 20h47c-1 -11 -1 -17 -1 -21c0 -36 26 -62 76 -62c56 0 88 31 101 83h47zM441 482l-329 -614c-18 -34 -30 -47 -42 -58c-21 -19 -48 -28 -93 -28h-25l9 42h19c52 0 68 16 96 70l56 107l-71 481h50
l56 -421l219 421h55z" />
    <glyph glyph-name="afii10193" unicode="&#x45f;" horiz-adv-x="533" 
d="M489 482l-96 -482h-150l-28 -140h-48l28 140h-151l96 482h49l-88 -440h251l88 440h49z" />
    <glyph glyph-name="afii10146" unicode="&#x462;" horiz-adv-x="601" 
d="M94 559l8 40h76l23 113h52l-23 -113h169l-8 -40h-169l-30 -152h186c136 0 178 -87 178 -166c0 -138 -93 -241 -248 -241h-250l112 559h-76zM504 240c0 63 -34 122 -131 122h-191l-63 -317h191c111 0 194 76 194 195z" />
    <glyph glyph-name="afii10194" unicode="&#x463;" horiz-adv-x="471" 
d="M411 168c0 -101 -67 -168 -181 -168h-174l74 372h-65l8 36h64l15 74h49l-15 -74h135l-7 -36h-135l-18 -88h121c97 0 129 -61 129 -116zM362 162c0 39 -17 80 -93 80h-116l-40 -200h118c106 0 131 77 131 120z" />
    <glyph glyph-name="afii10147" unicode="&#x472;" horiz-adv-x="619" 
d="M587 530c0 -31 -4 -69 -25 -174c-34 -169 -51 -228 -105 -284c-45 -47 -109 -78 -190 -78c-108 0 -193 68 -193 188c0 31 4 69 25 174c34 169 51 228 105 284c45 47 109 78 190 78c108 0 193 -68 193 -188zM506 337h-359c-18 -90 -21 -124 -21 -152
c0 -98 70 -146 143 -146c62 0 111 23 152 66c37 39 56 89 85 232zM535 527c0 98 -70 146 -143 146c-62 0 -111 -23 -152 -66c-37 -39 -56 -88 -84 -225h359c17 85 20 117 20 145z" />
    <glyph glyph-name="afii10195" unicode="&#x473;" 
d="M442 330c0 -29 -5 -68 -9 -89c-21 -108 -55 -163 -93 -196c-42 -37 -86 -51 -133 -51c-75 0 -152 41 -152 158c0 29 5 68 9 89c21 108 55 163 93 196c42 37 86 51 133 51c75 0 152 -41 152 -158zM380 222h-271c-4 -26 -6 -50 -6 -68c0 -86 52 -118 107 -118
c38 0 76 17 102 43c29 29 51 68 68 143zM394 328c0 86 -52 118 -107 118c-38 0 -76 -17 -102 -43c-30 -30 -51 -68 -68 -141h271c4 24 6 48 6 66z" />
    <glyph glyph-name="afii10148" unicode="&#x474;" horiz-adv-x="507" 
d="M689 712l-9 -45h-35c-53 0 -87 -21 -117 -80l-298 -587h-44l-84 712h53l70 -620l255 512c39 78 88 108 155 108h54z" />
    <glyph glyph-name="afii10196" unicode="&#x475;" horiz-adv-x="408" 
d="M501 482l-9 -42h-15c-52 0 -67 -16 -96 -70l-200 -370h-49l-71 482h50l56 -421l174 335c18 34 30 47 42 58c21 19 48 28 93 28h25z" />
    <glyph glyph-name="afii10050" unicode="&#x490;" horiz-adv-x="526" 
d="M634 872l-41 -205h-351l-134 -667h-52l143 712h351l32 160h52z" />
    <glyph glyph-name="afii10098" unicode="&#x491;" horiz-adv-x="381" 
d="M448 632l-39 -192h-228l-88 -440h-49l97 482h228l30 150h49z" />
    <glyph glyph-name="uni0492" unicode="&#x492;" horiz-adv-x="536" 
d="M612 712l-9 -45h-351l-58 -288h169l-8 -40h-169l-68 -339h-52l68 339h-76l8 40h76l67 333h403z" />
    <glyph glyph-name="uni0493" unicode="&#x493;" horiz-adv-x="404" 
d="M442 482l-8 -42h-228l-32 -158h136l-7 -36h-136l-49 -246h-49l49 246h-64l8 36h64l40 200h276z" />
    <glyph glyph-name="uni0496" unicode="&#x496;" horiz-adv-x="826" 
d="M788 45l-43 -215h-52l34 170h-19l-237 370l351 342h73l-360 -344l214 -323h39zM418 371l-385 -371h-79l401 376l-227 336h66zM539 712l-143 -712h-52l143 712h52z" />
    <glyph glyph-name="uni0497" unicode="&#x497;" horiz-adv-x="618" 
d="M567 45l-43 -215h-52l34 170h-9l-163 247l242 235h64l-251 -236l138 -201h40zM283 247l-258 -247h-67l271 254l-158 228h56zM380 482l-96 -482h-49l96 482h49z" />
    <glyph glyph-name="uni049A" unicode="&#x49a;" horiz-adv-x="544" 
d="M504 45l-43 -215h-52l34 170h-19l-241 370l355 342h73l-364 -344l218 -323h39zM251 712l-143 -712h-52l143 712h52z" />
    <glyph glyph-name="uni049B" unicode="&#x49b;" horiz-adv-x="435" 
d="M387 45l-43 -215h-52l34 170h-7l-176 247l255 235h63l-263 -236l147 -201h42zM189 482l-96 -482h-49l96 482h49z" />
    <glyph glyph-name="uni049C" unicode="&#x49c;" horiz-adv-x="608" 
d="M255 347l-32 -154h-47l32 154h-31l-69 -347h-52l143 712h52l-65 -320h31l32 154h48l-33 -154h26l312 320h73l-344 -344l228 -368h-71l-206 347h-27z" />
    <glyph glyph-name="uni049D" unicode="&#x49d;" horiz-adv-x="499" 
d="M169 225h-31l-45 -225h-49l96 482h49l-43 -217h31l25 132h45l-25 -132h24l216 217h63l-243 -236l160 -246h-59l-141 225h-28l-26 -132h-45z" />
    <glyph glyph-name="uni04A2" unicode="&#x4a2;" horiz-adv-x="664" 
d="M547 45l-43 -215h-52l34 170h-26l68 337h-352l-68 -337h-52l143 712h52l-66 -330h352l66 330h52l-134 -667h26z" />
    <glyph glyph-name="uni04A3" unicode="&#x4a3;" horiz-adv-x="534" 
d="M425 42l-36 -182h-48l27 140h-23l45 226h-252l-45 -226h-49l96 482h49l-43 -214h252l43 214h49l-88 -440h23z" />
    <glyph glyph-name="uni04AE" unicode="&#x4ae;" horiz-adv-x="469" 
d="M554 712l-281 -420l-59 -292h-52l60 297l-118 415h53l101 -362l238 362h58z" />
    <glyph glyph-name="uni04AF" unicode="&#x4af;" horiz-adv-x="408" 
d="M442 482l-261 -482l-46 -230h-49l46 230l-71 482h50l56 -421l219 421h56z" />
    <glyph glyph-name="uni04B0" unicode="&#x4b0;" horiz-adv-x="469" 
d="M554 712l-278 -415h122l-8 -40h-124l-52 -257h-52l52 257h-121l8 40h121l-118 415h53l101 -362l238 362h58z" />
    <glyph glyph-name="uni04B1" unicode="&#x4b1;" horiz-adv-x="408" 
d="M442 482l-261 -482h99l-8 -36h-98l-39 -194h-49l39 194h-101l7 36h101l-71 482h50l56 -421l219 421h56z" />
    <glyph glyph-name="uni04B2" unicode="&#x4b2;" horiz-adv-x="507" 
d="M454 45l-43 -215h-52l34 170h-5l-121 320l-238 -320h-61l279 371l-129 341h57l109 -301l220 301h62l-262 -351l123 -316h27z" />
    <glyph glyph-name="uni04B3" unicode="&#x4b3;" horiz-adv-x="441" 
d="M368 42l-36 -182h-48l28 140h-9l-88 209l-164 -209h-60l201 251l-105 231h57l84 -197l154 197h60l-192 -238l91 -202h27z" />
    <glyph glyph-name="uni04B6" unicode="&#x4b6;" horiz-adv-x="619" 
d="M502 45l-43 -215h-52l34 170h-26l60 298c-53 -15 -123 -28 -186 -28c-103 0 -171 49 -171 145c0 14 2 35 5 51l48 246h52l-48 -241c-3 -15 -5 -35 -5 -49c0 -84 60 -107 125 -107c63 0 132 12 189 28l74 369h52l-134 -667h26z" />
    <glyph glyph-name="uni04B7" unicode="&#x4b7;" horiz-adv-x="509" 
d="M400 42l-36 -182h-48l28 140h-24l39 197c-38 -12 -91 -23 -143 -23c-76 0 -125 37 -125 110c0 12 2 29 5 45l30 153h49l-30 -151c-4 -19 -5 -34 -5 -44c0 -47 34 -68 88 -68c49 0 100 9 139 20l49 243h49l-88 -440h23z" />
    <glyph glyph-name="uni04B8" unicode="&#x4b8;" horiz-adv-x="619" 
d="M367 469l-32 -152c51 4 104 13 149 26l74 369h52l-143 -712h-52l60 298c-43 -12 -97 -23 -150 -27l-32 -156h-47l32 155c-97 3 -160 52 -160 145c0 14 2 35 5 51l48 246h52l-48 -241c-3 -15 -5 -35 -5 -49c0 -81 55 -105 117 -107l32 154h48z" />
    <glyph glyph-name="uni04B9" unicode="&#x4b9;" horiz-adv-x="509" 
d="M291 347l-25 -127c36 3 72 11 101 19l49 243h49l-96 -482h-49l39 197c-28 -9 -64 -17 -102 -21l-26 -132h-45l26 130c-74 1 -121 38 -121 110c0 12 2 29 5 45l30 153h49l-30 -151c-4 -19 -5 -34 -5 -44c0 -45 31 -66 81 -68l25 128h45z" />
    <glyph glyph-name="uni04BA" unicode="&#x4ba;" horiz-adv-x="619" 
d="M56 0l143 712h52l-60 -298c53 15 123 28 186 28c103 0 171 -49 171 -145c0 -14 -2 -35 -5 -51l-48 -246h-52l48 241c3 15 5 35 5 49c0 84 -60 107 -125 107c-63 0 -132 -12 -189 -28l-74 -369h-52z" />
    <glyph glyph-name="uni04BB" unicode="&#x4bb;" horiz-adv-x="509" 
d="M44 0l96 482h49l-39 -197c38 12 91 23 143 23c76 0 125 -37 125 -110c0 -12 -2 -29 -5 -45l-30 -153h-49l30 151c4 19 5 34 5 44c0 47 -34 68 -88 68c-49 0 -100 -9 -139 -20l-49 -243h-49z" />
    <glyph glyph-name="uni04C0" unicode="&#x4c0;" horiz-adv-x="260" 
d="M251 712l-143 -712h-52l143 712h52z" />
    <glyph glyph-name="uni04CF" unicode="&#x4cf;" horiz-adv-x="233" 
d="M236 712l-143 -712h-49l143 712h49z" />
    <glyph glyph-name="uni04D8" unicode="&#x4d8;" horiz-adv-x="620" 
d="M590 530c0 -31 -4 -69 -25 -174c-34 -169 -51 -228 -105 -284c-45 -47 -109 -78 -190 -78c-108 0 -196 68 -196 188c0 55 14 123 26 182h414c20 98 24 134 24 163c0 98 -70 146 -143 146c-62 0 -114 -23 -155 -66c-21 -22 -37 -48 -52 -94h-53c19 62 38 95 69 127
c45 47 112 78 193 78c108 0 193 -68 193 -188zM505 319h-362c-9 -47 -17 -108 -17 -134c0 -98 73 -146 146 -146c62 0 111 23 152 66c35 37 55 85 81 214z" />
    <glyph glyph-name="afii10846" unicode="&#x4d9;" horiz-adv-x="499" 
d="M59 156c0 21 4 58 11 95h319c4 23 7 45 7 71c0 70 -34 123 -113 123c-61 0 -100 -20 -144 -60l-33 33c52 48 105 70 179 70c99 0 159 -60 159 -165c0 -137 -62 -329 -235 -329c-103 0 -150 76 -150 162zM107 156c0 -85 50 -120 103 -120c80 0 141 56 172 176h-270
c-3 -18 -5 -32 -5 -56z" />
    <glyph glyph-name="uni04E2" unicode="&#x4e2;" horiz-adv-x="702" 
d="M693 712l-143 -712h-52l124 618l-514 -618h-52l143 712h52l-124 -618l514 618h52zM612 843l-9 -43h-281l9 43h281z" />
    <glyph glyph-name="uni04E3" unicode="&#x4e3;" horiz-adv-x="538" 
d="M494 482l-96 -482h-49l80 400l-336 -400h-49l96 482h49l-80 -400l336 400h49zM493 653l-9 -43h-281l9 43h281z" />
    <glyph glyph-name="uni04E8" unicode="&#x4e8;" horiz-adv-x="619" 
d="M587 530c0 -31 -4 -69 -25 -174c-34 -169 -51 -228 -105 -284c-45 -47 -109 -78 -190 -78c-108 0 -193 68 -193 188c0 31 4 69 25 174c34 169 51 228 105 284c45 47 109 78 190 78c108 0 193 -68 193 -188zM506 337h-359c-18 -90 -21 -124 -21 -152
c0 -98 70 -146 143 -146c62 0 111 23 152 66c37 39 56 89 85 232zM535 527c0 98 -70 146 -143 146c-62 0 -111 -23 -152 -66c-37 -39 -56 -88 -84 -225h359c17 85 20 117 20 145z" />
    <glyph glyph-name="uni04E9" unicode="&#x4e9;" 
d="M442 330c0 -29 -5 -68 -9 -89c-21 -108 -55 -163 -93 -196c-42 -37 -86 -51 -133 -51c-75 0 -152 41 -152 158c0 29 5 68 9 89c21 108 55 163 93 196c42 37 86 51 133 51c75 0 152 -41 152 -158zM380 222h-271c-4 -26 -6 -50 -6 -68c0 -86 52 -118 107 -118
c38 0 76 17 102 43c29 29 51 68 68 143zM394 328c0 86 -52 118 -107 118c-38 0 -76 -17 -102 -43c-30 -30 -51 -68 -68 -141h271c4 24 6 48 6 66z" />
    <glyph glyph-name="uni04EE" unicode="&#x4ee;" horiz-adv-x="548" 
d="M638 712l-391 -604c-47 -73 -88 -108 -155 -108h-54l9 45h38c53 0 81 25 117 80l47 72l-147 515h53l130 -462l295 462h58zM543 843l-9 -43h-281l9 43h281z" />
    <glyph glyph-name="uni04EF" unicode="&#x4ef;" horiz-adv-x="408" 
d="M441 482l-329 -614c-18 -34 -30 -47 -42 -58c-21 -19 -48 -28 -93 -28h-25l9 42h19c52 0 68 16 96 70l56 107l-71 481h50l56 -421l219 421h55zM422 653l-9 -43h-281l9 43h281z" />
    <glyph glyph-name="Wgrave" unicode="&#x1e80;" horiz-adv-x="804" 
d="M876 712l-306 -712h-52l-39 620l-285 -620h-52l-29 712h53l21 -619l281 619h53l38 -619l261 619h56zM531 774h-52l-71 145h61z" />
    <glyph glyph-name="wgrave" unicode="&#x1e81;" horiz-adv-x="676" 
d="M708 482l-236 -482h-50l-50 402l-208 -402h-50l-52 482h51l36 -422l214 422h44l50 -422l199 422h52zM432 584h-52l-71 145h61z" />
    <glyph glyph-name="Wacute" unicode="&#x1e82;" horiz-adv-x="804" 
d="M876 712l-306 -712h-52l-39 620l-285 -620h-52l-29 712h53l21 -619l281 619h53l38 -619l261 619h56zM643 919l-127 -145h-58l120 145h65z" />
    <glyph glyph-name="wacute" unicode="&#x1e83;" horiz-adv-x="676" 
d="M708 482l-236 -482h-50l-50 402l-208 -402h-50l-52 482h51l36 -422l214 422h44l50 -422l199 422h52zM561 729l-127 -145h-58l120 145h65z" />
    <glyph glyph-name="Wdieresis" unicode="&#x1e84;" horiz-adv-x="804" 
d="M876 712l-306 -712h-52l-39 620l-285 -620h-52l-29 712h53l21 -619l281 619h53l38 -619l261 619h56zM431 859l-15 -75h-55l15 75h55zM628 859l-15 -75h-55l15 75h55z" />
    <glyph glyph-name="wdieresis" unicode="&#x1e85;" horiz-adv-x="676" 
d="M708 482l-236 -482h-50l-50 402l-208 -402h-50l-52 482h51l36 -422l214 422h44l50 -422l199 422h52zM354 669l-15 -75h-55l15 75h55zM551 669l-15 -75h-55l15 75h55z" />
    <glyph glyph-name="uni1E8A" unicode="&#x1e8a;" horiz-adv-x="507" 
d="M566 712l-262 -351l141 -361h-57l-121 320l-238 -320h-61l279 371l-129 341h57l109 -301l220 301h62zM373 854l-12 -60h-60l12 60h60z" />
    <glyph glyph-name="uni1E8B" unicode="&#x1e8b;" horiz-adv-x="441" 
d="M442 482l-192 -238l110 -244h-57l-88 209l-164 -209h-60l201 251l-105 231h57l84 -197l154 197h60zM333 664l-12 -60h-60l12 60h60z" />
    <glyph glyph-name="Ygrave" unicode="&#x1ef2;" horiz-adv-x="469" 
d="M554 712l-281 -420l-59 -292h-52l60 297l-118 415h53l101 -362l238 362h58zM366 774h-52l-71 145h61z" />
    <glyph glyph-name="ygrave" unicode="&#x1ef3;" horiz-adv-x="408" 
d="M441 482l-329 -614c-18 -34 -30 -47 -42 -58c-21 -19 -48 -28 -93 -28h-25l9 42h19c52 0 68 16 96 70l56 107l-71 481h50l56 -421l219 421h55zM290 584h-52l-71 145h61z" />
    <glyph glyph-name="uni2007" unicode="&#x2007;" horiz-adv-x="488" 
 />
    <glyph glyph-name="uni2008" unicode="&#x2008;" horiz-adv-x="251" 
 />
    <glyph glyph-name="uni200B" unicode="&#x200b;" horiz-adv-x="0" 
 />
    <glyph glyph-name="uniFEFF" unicode="&#xfeff;" horiz-adv-x="0" 
 />
    <glyph glyph-name="endash" unicode="&#x2013;" horiz-adv-x="488" 
d="M447 286l-9 -44h-387l8 44h388z" />
    <glyph glyph-name="emdash" unicode="&#x2014;" horiz-adv-x="829" 
d="M761 286l-9 -44h-674l9 44h674z" />
    <glyph glyph-name="afii00208" unicode="&#x2015;" horiz-adv-x="829" 
d="M761 286l-9 -44h-674l9 44h674z" />
    <glyph glyph-name="quoteleft" unicode="&#x2018;" horiz-adv-x="247" 
d="M265 782l-28 -140h-66l14 70z" />
    <glyph glyph-name="quoteright" unicode="&#x2019;" horiz-adv-x="247" 
d="M251 712l-14 -70l-80 -70l28 140h66z" />
    <glyph glyph-name="quotesinglbase" unicode="&#x201a;" horiz-adv-x="247" 
d="M123 70l-14 -70l-81 -70l28 140h67z" />
    <glyph glyph-name="quotedblleft" unicode="&#x201c;" horiz-adv-x="395" 
d="M265 782l-28 -140h-66l14 70zM413 782l-28 -140h-66l14 70z" />
    <glyph glyph-name="quotedblright" unicode="&#x201d;" horiz-adv-x="395" 
d="M251 712l-14 -70l-80 -70l28 140h66zM399 712l-14 -70l-80 -70l28 140h66z" />
    <glyph glyph-name="quotedblbase" unicode="&#x201e;" horiz-adv-x="395" 
d="M123 70l-14 -70l-81 -70l28 140h67zM271 70l-14 -70l-81 -70l28 140h67z" />
    <glyph glyph-name="dagger" unicode="&#x2020;" horiz-adv-x="583" 
d="M558 499l-8 -42h-192l-92 -457h-48l91 457h-191l9 42h191l42 213h49l-43 -213h192z" />
    <glyph glyph-name="daggerdbl" unicode="&#x2021;" horiz-adv-x="583" 
d="M558 499l-8 -42h-192l-87 -432h194l-8 -42h-194l-43 -213h-48l43 213h-189l8 42h189l86 432h-191l9 42h191l42 213h49l-43 -213h192z" />
    <glyph glyph-name="bullet" unicode="&#x2022;" horiz-adv-x="519" 
d="M433 334c0 -90 -65 -155 -155 -155s-155 65 -155 155s65 155 155 155s155 -65 155 -155z" />
    <glyph glyph-name="ellipsis" unicode="&#x2026;" horiz-adv-x="688" 
d="M127 74l-14 -74h-71l15 74h70zM346 74l-15 -74h-70l15 74h70zM564 74l-14 -74h-71l15 74h70z" />
    <glyph glyph-name="perthousand" unicode="&#x2030;" horiz-adv-x="1116" 
d="M1052 267c0 -12 -1 -25 -3 -35l-21 -105c-16 -80 -60 -133 -148 -133c-71 0 -106 42 -106 101c0 12 1 25 3 35l21 105c16 80 60 133 148 133c71 0 106 -42 106 -101zM1010 265c0 41 -18 67 -69 67c-62 0 -91 -45 -102 -100l-20 -100c-2 -10 -3 -23 -3 -35
c0 -41 18 -67 69 -67c62 0 91 45 102 100l20 100c2 10 3 23 3 35zM729 267c0 -12 -1 -25 -3 -35l-21 -105c-16 -80 -60 -133 -148 -133c-71 0 -106 42 -106 101c0 12 1 25 3 35l21 105c16 80 60 133 148 133c71 0 106 -42 106 -101zM687 265c0 41 -18 67 -69 67
c-62 0 -91 -45 -102 -100l-20 -100c-2 -10 -3 -23 -3 -35c0 -41 18 -67 69 -67c62 0 91 45 102 100l20 100c2 10 3 23 3 35zM670 712l-457 -712h-44l457 712h44zM388 618c0 -12 -1 -25 -3 -35l-21 -105c-16 -80 -60 -133 -148 -133c-71 0 -106 42 -106 101c0 12 1 25 3 35
l21 105c16 80 60 133 148 133c71 0 106 -42 106 -101zM346 616c0 41 -18 67 -69 67c-62 0 -91 -45 -102 -100l-20 -100c-2 -10 -3 -23 -3 -35c0 -41 18 -67 69 -67c62 0 91 45 102 100l20 100c2 10 3 23 3 35z" />
    <glyph glyph-name="guilsinglleft" unicode="&#x2039;" horiz-adv-x="304" 
d="M270 461l-14 -69l-149 -131l99 -131l-12 -61l-149 196z" />
    <glyph glyph-name="guilsinglright" unicode="&#x203a;" horiz-adv-x="304" 
d="M269 265l-225 -196l14 69l149 131l-99 131l12 61z" />
    <glyph glyph-name="fraction" unicode="&#x2044;" horiz-adv-x="170" 
d="M359 712l-458 -712h-44l458 712h44z" />
    <glyph glyph-name="uni2070" unicode="&#x2070;" horiz-adv-x="299" 
d="M334 622c0 -9 -1 -20 -3 -28l-38 -192c-19 -96 -85 -121 -133 -121c-49 0 -94 30 -94 94c0 9 1 20 3 28l38 192c19 96 85 121 132 121c50 0 95 -30 95 -94zM292 621c0 42 -27 57 -55 57c-36 0 -76 -20 -88 -82l-38 -193c-2 -9 -3 -17 -3 -26c0 -43 25 -58 54 -58
c36 0 77 20 89 83l38 193c2 9 3 17 3 26z" />
    <glyph glyph-name="uni2074" unicode="&#x2074;" horiz-adv-x="299" 
d="M309 391l-7 -38h-51l-13 -68h-42l14 68h-164l8 38l207 321h47l-208 -321h117l24 121h42l-24 -121h50z" />
    <glyph glyph-name="uni2075" unicode="&#x2075;" horiz-adv-x="299" 
d="M349 712l-8 -38h-168l-26 -134c21 20 43 27 75 27c60 0 87 -41 87 -90c0 -16 -2 -34 -5 -51c-9 -46 -20 -84 -46 -110c-22 -22 -53 -35 -92 -35c-69 0 -97 42 -97 90c0 2 0 9 1 16h40v-13c0 -31 17 -55 56 -55c63 0 85 49 96 107c3 16 5 32 5 46c0 33 -12 58 -54 58
c-36 0 -63 -14 -80 -43h-36l45 225h207z" />
    <glyph glyph-name="uni2076" unicode="&#x2076;" horiz-adv-x="299" 
d="M297 420c0 -80 -56 -139 -124 -139c-77 0 -107 56 -107 108c0 38 12 67 45 116l138 207h48l-128 -191c10 3 18 6 32 6c61 0 96 -44 96 -107zM255 419c0 42 -22 73 -63 73c-59 0 -84 -57 -84 -100c0 -42 22 -73 63 -73c55 0 84 51 84 100z" />
    <glyph glyph-name="uni2077" unicode="&#x2077;" horiz-adv-x="299" 
d="M365 712l-7 -39l-214 -388h-49l214 388h-140l-14 -71h-43l22 110h231z" />
    <glyph glyph-name="uni2078" unicode="&#x2078;" horiz-adv-x="299" 
d="M335 618c0 -51 -29 -95 -73 -115c26 -19 41 -44 41 -85c0 -68 -46 -137 -139 -137c-55 0 -106 33 -106 103c0 57 28 101 83 125c-21 16 -36 38 -36 73c0 76 55 134 130 134c57 0 100 -37 100 -98zM261 419c0 42 -27 69 -66 69c-58 0 -95 -45 -95 -101
c0 -42 27 -68 66 -68c57 0 95 44 95 100zM293 617c0 36 -22 61 -60 61c-55 0 -86 -49 -86 -94c0 -36 22 -61 59 -61c56 0 87 49 87 94z" />
    <glyph glyph-name="uni2079" unicode="&#x2079;" horiz-adv-x="299" 
d="M333 608c0 -38 -12 -67 -45 -116l-138 -207h-48l128 192c-10 -4 -18 -7 -32 -7c-61 0 -96 44 -96 107c0 80 56 139 124 139c77 0 107 -55 107 -108zM291 605c0 40 -21 71 -63 71c-59 0 -84 -50 -84 -98c0 -40 21 -71 63 -71c59 0 84 50 84 98z" />
    <glyph glyph-name="uni2080" unicode="&#x2080;" horiz-adv-x="299" 
d="M284 187c0 -9 -1 -20 -3 -28l-38 -192c-19 -96 -85 -121 -133 -121c-49 0 -94 30 -94 94c0 9 1 20 3 28l38 192c19 96 85 121 132 121c50 0 95 -30 95 -94zM242 186c0 42 -27 57 -55 57c-36 0 -76 -20 -88 -82l-38 -193c-2 -9 -3 -17 -3 -26c0 -43 25 -58 54 -58
c36 0 77 20 89 83l38 193c2 9 3 17 3 26z" />
    <glyph glyph-name="uni2081" unicode="&#x2081;" horiz-adv-x="299" 
d="M197 277l-86 -427h-41l75 376l-92 -70l10 53l92 68h42z" />
    <glyph glyph-name="uni2082" unicode="&#x2082;" horiz-adv-x="299" 
d="M250 186c0 -51 -34 -94 -59 -120l-171 -178h175l-8 -38h-227l8 38l193 203c30 31 45 58 45 93c0 32 -15 59 -59 59c-59 0 -78 -40 -85 -76h-42c8 44 33 114 130 114c70 0 100 -45 100 -95z" />
    <glyph glyph-name="uni2083" unicode="&#x2083;" horiz-adv-x="299" 
d="M241 183c0 -54 -26 -97 -75 -115c31 -16 45 -38 45 -87c0 -65 -41 -135 -139 -135c-83 0 -107 56 -107 92c0 10 0 16 1 21h43c-5 -47 18 -75 68 -75c39 0 92 27 92 97c0 42 -14 69 -67 69h-8l8 37h7c65 0 90 46 90 95c0 46 -29 61 -58 61c-45 0 -74 -19 -88 -72h-42
c20 80 69 110 131 110c59 0 99 -38 99 -98z" />
    <glyph glyph-name="uni2084" unicode="&#x2084;" horiz-adv-x="299" 
d="M222 -44l-7 -38h-51l-13 -68h-42l14 68h-164l8 38l207 321h47l-208 -321h117l24 121h42l-24 -121h50z" />
    <glyph glyph-name="uni2085" unicode="&#x2085;" horiz-adv-x="299" 
d="M261 277l-8 -38h-168l-26 -134c21 20 43 27 75 27c60 0 87 -41 87 -90c0 -16 -2 -34 -5 -51c-9 -46 -20 -84 -46 -110c-22 -22 -53 -35 -92 -35c-69 0 -97 42 -97 90c0 2 0 9 1 16h40v-13c0 -31 17 -55 56 -55c63 0 85 49 96 107c3 16 5 32 5 46c0 33 -12 58 -54 58
c-36 0 -63 -14 -80 -43h-36l45 225h207z" />
    <glyph glyph-name="uni2086" unicode="&#x2086;" horiz-adv-x="299" 
d="M210 -15c0 -80 -56 -139 -124 -139c-77 0 -107 56 -107 108c0 38 12 67 45 116l138 207h48l-128 -191c10 3 18 6 32 6c61 0 96 -44 96 -107zM168 -16c0 42 -22 73 -63 73c-59 0 -84 -57 -84 -100c0 -42 22 -73 63 -73c55 0 84 51 84 100z" />
    <glyph glyph-name="uni2087" unicode="&#x2087;" horiz-adv-x="299" 
d="M278 277l-7 -39l-214 -388h-49l214 388h-140l-14 -71h-43l22 110h231z" />
    <glyph glyph-name="uni2088" unicode="&#x2088;" horiz-adv-x="299" 
d="M248 183c0 -51 -29 -95 -73 -115c26 -19 41 -44 41 -85c0 -68 -46 -137 -139 -137c-55 0 -106 33 -106 103c0 57 28 101 83 125c-21 16 -36 38 -36 73c0 76 55 134 130 134c57 0 100 -37 100 -98zM174 -16c0 42 -27 69 -66 69c-58 0 -95 -45 -95 -101
c0 -42 27 -68 66 -68c57 0 95 44 95 100zM206 182c0 36 -22 61 -60 61c-55 0 -86 -49 -86 -94c0 -36 22 -61 59 -61c56 0 87 49 87 94z" />
    <glyph glyph-name="uni2089" unicode="&#x2089;" horiz-adv-x="299" 
d="M246 173c0 -38 -12 -67 -45 -116l-138 -207h-48l128 192c-10 -4 -18 -7 -32 -7c-61 0 -96 44 -96 107c0 80 56 139 124 139c77 0 107 -55 107 -108zM204 170c0 40 -21 71 -63 71c-59 0 -84 -50 -84 -98c0 -40 21 -71 63 -71c59 0 84 50 84 98z" />
    <glyph glyph-name="Euro" unicode="&#x20ac;" horiz-adv-x="641" 
d="M619 513h-52c-1 99 -56 160 -148 160c-60 0 -110 -24 -150 -66c-33 -35 -51 -75 -71 -159h232l-7 -36h-232l-21 -106h232l-7 -36h-231c-8 -45 -9 -68 -9 -88c0 -90 72 -143 151 -143c110 0 179 78 207 160h53c-39 -127 -140 -205 -263 -205c-104 0 -200 62 -200 188
c0 19 2 43 9 88h-61l7 36h60l21 106h-60l7 36h60c23 101 43 146 88 193c42 44 108 77 184 77c133 0 200 -85 201 -205z" />
    <glyph glyph-name="uni20B4" unicode="&#x20b4;" horiz-adv-x="633" 
d="M617 448l-7 -36h-79c-31 -23 -72 -38 -123 -51l-104 -27c-32 -8 -59 -17 -82 -28h367l-7 -36h-412c-21 -23 -32 -51 -32 -89c0 -77 61 -142 175 -142c82 0 137 24 204 89l34 -36c-76 -71 -141 -98 -242 -98c-143 0 -223 84 -223 181c0 37 8 69 23 95h-58l7 36h79
c35 33 85 55 147 71l105 27c10 2 20 5 29 8h-339l7 36h411c33 23 49 55 49 101c0 70 -51 125 -153 125c-71 0 -123 -24 -181 -76l-33 35c68 57 121 85 216 85c137 0 202 -77 202 -164c0 -45 -10 -79 -30 -106h50z" />
    <glyph glyph-name="afii61352" unicode="&#x2116;" horiz-adv-x="859" 
d="M604 712l-143 -712h-49l-208 619l-124 -619h-49l143 712h49l208 -619l124 619h49zM851 598c0 59 -33 78 -68 78c-29 0 -50 -13 -62 -27c-17 -19 -29 -52 -40 -108c-4 -20 -6 -39 -6 -57c0 -59 33 -78 68 -78c29 0 50 13 62 27c17 19 29 52 40 108c4 20 6 39 6 57z
M894 602c0 -20 -3 -46 -6 -61c-12 -60 -25 -109 -59 -140c-28 -26 -57 -34 -91 -34s-106 14 -106 113c0 20 3 46 6 61c12 60 25 109 59 140c28 26 57 34 91 34s106 -14 106 -113zM841 324l-8 -38h-242l8 38h242z" />
    <glyph glyph-name="trademark" unicode="&#x2122;" horiz-adv-x="769" 
d="M810 712l-85 -427h-42l66 333l-147 -220h-43l-61 225l-68 -338h-42l85 427h41l73 -271l180 271h43zM397 712l-8 -39h-114l-78 -388h-42l78 388h-117l8 39h273z" />
    <glyph glyph-name="Omega" unicode="&#x2126;" horiz-adv-x="619" 
d="M587 530c0 -31 -6 -70 -25 -174c-32 -169 -47 -225 -106 -284c-12 -12 -21 -19 -36 -27h88l-9 -45h-180l9 45c38 12 65 32 95 62c39 39 58 95 87 249c20 107 25 141 25 172c0 97 -71 145 -139 145c-61 0 -113 -23 -156 -66c-40 -40 -60 -94 -89 -251
c-20 -107 -25 -141 -25 -172c0 -68 36 -122 92 -139l-9 -45h-173l9 45h87c-37 30 -58 79 -58 137c0 31 6 70 25 174c32 169 48 227 105 284c47 47 116 78 191 78c107 0 192 -72 192 -188z" />
    <glyph glyph-name="uni2150" unicode="&#x2150;" horiz-adv-x="768" 
d="M284 712l-86 -427h-41l75 376l-92 -70l10 53l92 68h42zM658 712l-458 -712h-44l458 712h44zM776 427l-7 -39l-214 -388h-49l214 388h-140l-14 -71h-43l22 110h231z" />
    <glyph glyph-name="uni2151" unicode="&#x2151;" horiz-adv-x="768" 
d="M284 712l-86 -427h-41l75 376l-92 -70l10 53l92 68h42zM658 712l-458 -712h-44l458 712h44zM745 323c0 -38 -12 -67 -45 -116l-138 -207h-48l128 192c-10 -4 -18 -7 -32 -7c-61 0 -96 44 -96 107c0 80 56 139 124 139c77 0 107 -55 107 -108zM703 320c0 40 -21 71 -63 71
c-59 0 -84 -50 -84 -98c0 -40 21 -71 63 -71c59 0 84 50 84 98z" />
    <glyph glyph-name="uni2152" unicode="&#x2152;" horiz-adv-x="1067" 
d="M284 712l-86 -427h-41l75 376l-92 -70l10 53l92 68h42zM658 712l-458 -712h-44l458 712h44zM696 427l-86 -427h-41l75 376l-92 -70l10 53l92 68h42zM1045 337c0 -9 -1 -20 -3 -28l-38 -192c-19 -96 -85 -121 -133 -121c-49 0 -94 30 -94 94c0 9 1 20 3 28l38 192
c19 96 85 121 132 121c50 0 95 -30 95 -94zM1003 336c0 42 -27 57 -55 57c-36 0 -76 -20 -88 -82l-38 -193c-2 -9 -3 -17 -3 -26c0 -43 25 -58 54 -58c36 0 77 20 89 83l38 193c2 9 3 17 3 26z" />
    <glyph glyph-name="onethird" unicode="&#x2153;" horiz-adv-x="768" 
d="M284 712l-86 -427h-41l75 376l-92 -70l10 53l92 68h42zM658 712l-458 -712h-44l458 712h44zM740 333c0 -54 -26 -97 -75 -115c31 -16 45 -38 45 -87c0 -65 -41 -135 -139 -135c-83 0 -107 56 -107 92c0 10 0 16 1 21h43c-5 -47 18 -75 68 -75c39 0 92 27 92 97
c0 42 -14 69 -67 69h-8l8 37h7c65 0 90 46 90 95c0 46 -29 61 -58 61c-45 0 -74 -19 -88 -72h-42c20 80 69 110 131 110c59 0 99 -38 99 -98z" />
    <glyph glyph-name="twothirds" unicode="&#x2154;" horiz-adv-x="768" 
d="M337 621c0 -51 -34 -94 -59 -120l-171 -178h175l-8 -38h-227l8 38l193 203c30 31 45 58 45 93c0 32 -15 59 -59 59c-59 0 -78 -40 -85 -76h-42c8 44 33 114 130 114c70 0 100 -45 100 -95zM658 712l-458 -712h-44l458 712h44zM740 333c0 -54 -26 -97 -75 -115
c31 -16 45 -38 45 -87c0 -65 -41 -135 -139 -135c-83 0 -107 56 -107 92c0 10 0 16 1 21h43c-5 -47 18 -75 68 -75c39 0 92 27 92 97c0 42 -14 69 -67 69h-8l8 37h7c65 0 90 46 90 95c0 46 -29 61 -58 61c-45 0 -74 -19 -88 -72h-42c20 80 69 110 131 110
c59 0 99 -38 99 -98z" />
    <glyph glyph-name="uni2155" unicode="&#x2155;" horiz-adv-x="768" 
d="M284 712l-86 -427h-41l75 376l-92 -70l10 53l92 68h42zM658 712l-458 -712h-44l458 712h44zM760 427l-8 -38h-168l-26 -134c21 20 43 27 75 27c60 0 87 -41 87 -90c0 -16 -2 -34 -5 -51c-9 -46 -20 -84 -46 -110c-22 -22 -53 -35 -92 -35c-69 0 -97 42 -97 90
c0 2 0 9 1 16h40v-13c0 -31 17 -55 56 -55c63 0 85 49 96 107c3 16 5 32 5 46c0 33 -12 58 -54 58c-36 0 -63 -14 -80 -43h-36l45 225h207z" />
    <glyph glyph-name="uni2156" unicode="&#x2156;" horiz-adv-x="768" 
d="M337 621c0 -51 -34 -94 -59 -120l-171 -178h175l-8 -38h-227l8 38l193 203c30 31 45 58 45 93c0 32 -15 59 -59 59c-59 0 -78 -40 -85 -76h-42c8 44 33 114 130 114c70 0 100 -45 100 -95zM658 712l-458 -712h-44l458 712h44zM760 427l-8 -38h-168l-26 -134
c21 20 43 27 75 27c60 0 87 -41 87 -90c0 -16 -2 -34 -5 -51c-9 -46 -20 -84 -46 -110c-22 -22 -53 -35 -92 -35c-69 0 -97 42 -97 90c0 2 0 9 1 16h40v-13c0 -31 17 -55 56 -55c63 0 85 49 96 107c3 16 5 32 5 46c0 33 -12 58 -54 58c-36 0 -63 -14 -80 -43h-36l45 225h207
z" />
    <glyph glyph-name="uni2157" unicode="&#x2157;" horiz-adv-x="768" 
d="M327 618c0 -54 -26 -97 -75 -115c31 -16 45 -38 45 -87c0 -65 -41 -135 -139 -135c-83 0 -107 56 -107 92c0 10 0 16 1 21h43c-5 -47 18 -75 68 -75c39 0 92 27 92 97c0 42 -14 69 -67 69h-8l8 37h7c65 0 90 46 90 95c0 46 -29 61 -58 61c-45 0 -74 -19 -88 -72h-42
c20 80 69 110 131 110c59 0 99 -38 99 -98zM658 712l-458 -712h-44l458 712h44zM760 427l-8 -38h-168l-26 -134c21 20 43 27 75 27c60 0 87 -41 87 -90c0 -16 -2 -34 -5 -51c-9 -46 -20 -84 -46 -110c-22 -22 -53 -35 -92 -35c-69 0 -97 42 -97 90c0 2 0 9 1 16h40v-13
c0 -31 17 -55 56 -55c63 0 85 49 96 107c3 16 5 32 5 46c0 33 -12 58 -54 58c-36 0 -63 -14 -80 -43h-36l45 225h207z" />
    <glyph glyph-name="uni2158" unicode="&#x2158;" horiz-adv-x="768" 
d="M309 391l-7 -38h-51l-13 -68h-42l14 68h-164l8 38l207 321h47l-208 -321h117l24 121h42l-24 -121h50zM658 712l-458 -712h-44l458 712h44zM760 427l-8 -38h-168l-26 -134c21 20 43 27 75 27c60 0 87 -41 87 -90c0 -16 -2 -34 -5 -51c-9 -46 -20 -84 -46 -110
c-22 -22 -53 -35 -92 -35c-69 0 -97 42 -97 90c0 2 0 9 1 16h40v-13c0 -31 17 -55 56 -55c63 0 85 49 96 107c3 16 5 32 5 46c0 33 -12 58 -54 58c-36 0 -63 -14 -80 -43h-36l45 225h207z" />
    <glyph glyph-name="uni2159" unicode="&#x2159;" horiz-adv-x="768" 
d="M284 712l-86 -427h-41l75 376l-92 -70l10 53l92 68h42zM658 712l-458 -712h-44l458 712h44zM709 135c0 -80 -56 -139 -124 -139c-77 0 -107 56 -107 108c0 38 12 67 45 116l138 207h48l-128 -191c10 3 18 6 32 6c61 0 96 -44 96 -107zM667 134c0 42 -22 73 -63 73
c-59 0 -84 -57 -84 -100c0 -42 22 -73 63 -73c55 0 84 51 84 100z" />
    <glyph glyph-name="uni215A" unicode="&#x215a;" horiz-adv-x="768" 
d="M349 712l-8 -38h-168l-26 -134c21 20 43 27 75 27c60 0 87 -41 87 -90c0 -16 -2 -34 -5 -51c-9 -46 -20 -84 -46 -110c-22 -22 -53 -35 -92 -35c-69 0 -97 42 -97 90c0 2 0 9 1 16h40v-13c0 -31 17 -55 56 -55c63 0 85 49 96 107c3 16 5 32 5 46c0 33 -12 58 -54 58
c-36 0 -63 -14 -80 -43h-36l45 225h207zM658 712l-458 -712h-44l458 712h44zM709 135c0 -80 -56 -139 -124 -139c-77 0 -107 56 -107 108c0 38 12 67 45 116l138 207h48l-128 -191c10 3 18 6 32 6c61 0 96 -44 96 -107zM667 134c0 42 -22 73 -63 73c-59 0 -84 -57 -84 -100
c0 -42 22 -73 63 -73c55 0 84 51 84 100z" />
    <glyph glyph-name="oneeighth" unicode="&#x215b;" horiz-adv-x="768" 
d="M284 712l-86 -427h-41l75 376l-92 -70l10 53l92 68h42zM658 712l-458 -712h-44l458 712h44zM747 333c0 -51 -29 -95 -73 -115c26 -19 41 -44 41 -85c0 -68 -46 -137 -139 -137c-55 0 -106 33 -106 103c0 57 28 101 83 125c-21 16 -36 38 -36 73c0 76 55 134 130 134
c57 0 100 -37 100 -98zM673 134c0 42 -27 69 -66 69c-58 0 -95 -45 -95 -101c0 -42 27 -68 66 -68c57 0 95 44 95 100zM705 332c0 36 -22 61 -60 61c-55 0 -86 -49 -86 -94c0 -36 22 -61 59 -61c56 0 87 49 87 94z" />
    <glyph glyph-name="threeeighths" unicode="&#x215c;" horiz-adv-x="768" 
d="M327 618c0 -54 -26 -97 -75 -115c31 -16 45 -38 45 -87c0 -65 -41 -135 -139 -135c-83 0 -107 56 -107 92c0 10 0 16 1 21h43c-5 -47 18 -75 68 -75c39 0 92 27 92 97c0 42 -14 69 -67 69h-8l8 37h7c65 0 90 46 90 95c0 46 -29 61 -58 61c-45 0 -74 -19 -88 -72h-42
c20 80 69 110 131 110c59 0 99 -38 99 -98zM658 712l-458 -712h-44l458 712h44zM747 333c0 -51 -29 -95 -73 -115c26 -19 41 -44 41 -85c0 -68 -46 -137 -139 -137c-55 0 -106 33 -106 103c0 57 28 101 83 125c-21 16 -36 38 -36 73c0 76 55 134 130 134
c57 0 100 -37 100 -98zM673 134c0 42 -27 69 -66 69c-58 0 -95 -45 -95 -101c0 -42 27 -68 66 -68c57 0 95 44 95 100zM705 332c0 36 -22 61 -60 61c-55 0 -86 -49 -86 -94c0 -36 22 -61 59 -61c56 0 87 49 87 94z" />
    <glyph glyph-name="fiveeighths" unicode="&#x215d;" horiz-adv-x="768" 
d="M349 712l-8 -38h-168l-26 -134c21 20 43 27 75 27c60 0 87 -41 87 -90c0 -16 -2 -34 -5 -51c-9 -46 -20 -84 -46 -110c-22 -22 -53 -35 -92 -35c-69 0 -97 42 -97 90c0 2 0 9 1 16h40v-13c0 -31 17 -55 56 -55c63 0 85 49 96 107c3 16 5 32 5 46c0 33 -12 58 -54 58
c-36 0 -63 -14 -80 -43h-36l45 225h207zM658 712l-458 -712h-44l458 712h44zM747 333c0 -51 -29 -95 -73 -115c26 -19 41 -44 41 -85c0 -68 -46 -137 -139 -137c-55 0 -106 33 -106 103c0 57 28 101 83 125c-21 16 -36 38 -36 73c0 76 55 134 130 134c57 0 100 -37 100 -98z
M673 134c0 42 -27 69 -66 69c-58 0 -95 -45 -95 -101c0 -42 27 -68 66 -68c57 0 95 44 95 100zM705 332c0 36 -22 61 -60 61c-55 0 -86 -49 -86 -94c0 -36 22 -61 59 -61c56 0 87 49 87 94z" />
    <glyph glyph-name="seveneighths" unicode="&#x215e;" horiz-adv-x="768" 
d="M365 712l-7 -39l-214 -388h-49l214 388h-140l-14 -71h-43l22 110h231zM658 712l-458 -712h-44l458 712h44zM747 333c0 -51 -29 -95 -73 -115c26 -19 41 -44 41 -85c0 -68 -46 -137 -139 -137c-55 0 -106 33 -106 103c0 57 28 101 83 125c-21 16 -36 38 -36 73
c0 76 55 134 130 134c57 0 100 -37 100 -98zM673 134c0 42 -27 69 -66 69c-58 0 -95 -45 -95 -101c0 -42 27 -68 66 -68c57 0 95 44 95 100zM705 332c0 36 -22 61 -60 61c-55 0 -86 -49 -86 -94c0 -36 22 -61 59 -61c56 0 87 49 87 94z" />
    <glyph glyph-name="uni215F" unicode="&#x215f;" horiz-adv-x="469" 
d="M284 712l-86 -427h-41l75 376l-92 -70l10 53l92 68h42zM658 712l-458 -712h-44l458 712h44z" />
    <glyph glyph-name="uni2189" unicode="&#x2189;" horiz-adv-x="768" 
d="M334 622c0 -9 -1 -20 -3 -28l-38 -192c-19 -96 -85 -121 -133 -121c-49 0 -94 30 -94 94c0 9 1 20 3 28l38 192c19 96 85 121 132 121c50 0 95 -30 95 -94zM292 621c0 42 -27 57 -55 57c-36 0 -76 -20 -88 -82l-38 -193c-2 -9 -3 -17 -3 -26c0 -43 25 -58 54 -58
c36 0 77 20 89 83l38 193c2 9 3 17 3 26zM658 712l-458 -712h-44l458 712h44zM740 333c0 -54 -26 -97 -75 -115c31 -16 45 -38 45 -87c0 -65 -41 -135 -139 -135c-83 0 -107 56 -107 92c0 10 0 16 1 21h43c-5 -47 18 -75 68 -75c39 0 92 27 92 97c0 42 -14 69 -67 69h-8
l8 37h7c65 0 90 46 90 95c0 46 -29 61 -58 61c-45 0 -74 -19 -88 -72h-42c20 80 69 110 131 110c59 0 99 -38 99 -98z" />
    <glyph glyph-name="arrowleft" unicode="&#x2190;" horiz-adv-x="1027" 
d="M971 238h-819l379 -379h-69l-404 404l404 404h69l-379 -379h819v-50z" />
    <glyph glyph-name="arrowup" unicode="&#x2191;" horiz-adv-x="1027" 
d="M918 247l-379 379v-819h-50v819l-379 -379v69l404 404l404 -404v-69z" />
    <glyph glyph-name="arrowright" unicode="&#x2192;" horiz-adv-x="1027" 
d="M971 263l-404 -404h-69l379 379h-819v50h819l-379 379h69z" />
    <glyph glyph-name="arrowdown" unicode="&#x2193;" horiz-adv-x="1027" 
d="M918 211l-404 -404l-404 404v69l379 -379v819h50v-819l379 379v-69z" />
    <glyph glyph-name="uni2196" unicode="&#x2196;" horiz-adv-x="1027" 
d="M854 -42l-35 -35l-580 579v-536l-48 48v572h571l49 -49h-536z" />
    <glyph glyph-name="uni2197" unicode="&#x2197;" horiz-adv-x="1027" 
d="M836 14l-48 -48v536l-580 -579l-35 35l579 579h-536l49 49h571v-572z" />
    <glyph glyph-name="uni2198" unicode="&#x2198;" horiz-adv-x="1027" 
d="M836 -77h-571l-49 48h536l-579 579l35 36l580 -579v536l48 -49v-571z" />
    <glyph glyph-name="uni2199" unicode="&#x2199;" horiz-adv-x="1027" 
d="M811 -29l-49 -48h-571v571l48 49v-536l580 579l35 -36l-579 -579h536z" />
    <glyph glyph-name="partialdiff" unicode="&#x2202;" horiz-adv-x="513" 
d="M476 558c0 -13 -2 -35 -5 -49l-51 -268c-13 -69 -31 -144 -87 -197c-39 -37 -88 -50 -129 -50c-70 0 -148 42 -148 160c0 23 3 57 9 87c14 76 34 150 91 201c33 30 78 46 127 46c51 0 100 -25 123 -69l16 87c3 18 5 32 5 50c0 80 -42 120 -110 120
c-60 0 -92 -19 -133 -54l-26 34c54 46 99 62 161 62c54 0 157 -22 157 -160zM383 332c0 88 -60 114 -105 114c-32 0 -65 -13 -95 -41c-42 -40 -58 -108 -69 -164c-6 -30 -11 -62 -11 -91c0 -88 60 -114 105 -114c32 0 65 13 95 41c42 40 58 108 69 164c6 30 11 62 11 91z
" />
    <glyph glyph-name="Delta" unicode="&#x2206;" horiz-adv-x="561" 
d="M504 0h-543l392 712h44zM449 45l-86 597l-324 -597h410z" />
    <glyph glyph-name="product" unicode="&#x220f;" horiz-adv-x="664" 
d="M663 760l-197 -990h-52l189 945h-352l-189 -945h-51l197 990h455z" />
    <glyph glyph-name="summation" unicode="&#x2211;" horiz-adv-x="523" 
d="M571 760l-9 -45h-355l109 -422l-10 -48l-269 -430h351l-9 -45h-410l9 45l286 464l-112 436l9 45h410z" />
    <glyph glyph-name="minus" unicode="&#x2212;" horiz-adv-x="488" 
d="M447 287l-9 -44h-387l9 44h387z" />
    <glyph glyph-name="uni2219" unicode="&#x2219;" horiz-adv-x="488" 
d="M399 334c0 -90 -65 -155 -155 -155s-155 65 -155 155s65 155 155 155s155 -65 155 -155z" />
    <glyph glyph-name="radical" unicode="&#x221a;" horiz-adv-x="522" 
d="M588 712l-9 -45h-82l-338 -667h-43l-58 482h51l45 -390l311 620h123z" />
    <glyph glyph-name="infinity" unicode="&#x221e;" horiz-adv-x="752" 
d="M690 260c0 -81 -58 -141 -140 -141c-66 0 -109 30 -168 103c-59 -73 -103 -104 -167 -104c-82 0 -141 61 -141 142s59 143 141 143c62 0 108 -32 167 -105c59 73 102 105 168 105c82 0 140 -62 140 -143zM353 260c-49 60 -84 100 -135 100c-58 0 -98 -42 -98 -100
s40 -97 98 -97c51 0 86 37 135 97zM644 260c0 58 -40 98 -98 98c-51 0 -87 -38 -136 -98c49 -60 85 -97 136 -97c58 0 98 39 98 97z" />
    <glyph glyph-name="integral" unicode="&#x222b;" horiz-adv-x="329" 
d="M378 712l-8 -42h-33c-45 0 -75 -21 -87 -80l-138 -694c-12 -60 -35 -126 -136 -126h-41l8 42h33c45 0 75 21 87 80l138 694c12 60 35 126 136 126h41z" />
    <glyph glyph-name="approxequal" unicode="&#x2248;" horiz-adv-x="488" 
d="M464 353c-59 -51 -88 -59 -116 -59c-33 0 -50 6 -98 32c-32 17 -48 22 -68 22c-24 0 -42 -7 -89 -45l-25 33c59 51 88 59 116 59c33 0 50 -6 98 -32c32 -17 48 -22 68 -22c24 0 42 7 89 45zM430 196c-59 -51 -88 -59 -116 -59c-33 0 -50 6 -98 32c-32 17 -48 22 -68 22
c-24 0 -42 -7 -89 -45l-25 33c59 51 88 59 116 59c33 0 50 -6 98 -32c32 -17 48 -22 68 -22c24 0 42 7 89 45z" />
    <glyph glyph-name="notequal" unicode="&#x2260;" horiz-adv-x="488" 
d="M476 434l-84 -74h70l-9 -44h-112l-121 -106h213l-9 -44h-254l-122 -107l-26 33l84 74h-70l8 44h112l121 106h-213l9 44h255l121 107z" />
    <glyph glyph-name="lessequal" unicode="&#x2264;" horiz-adv-x="488" 
d="M429 471l-10 -54l-259 -130l209 -130l-10 -48l-251 159l9 45zM345 42l-10 -48l-251 159l10 48z" />
    <glyph glyph-name="greaterequal" unicode="&#x2265;" horiz-adv-x="488" 
d="M405 315l-9 -45l-312 -158l10 54l259 130l-209 130l10 48zM384 201l-10 -54l-312 -158l10 54z" />
    <glyph glyph-name="dotmath" unicode="&#x22c5;" horiz-adv-x="488" 
d="M286 299l-14 -70h-70l14 70h70z" />
    <glyph glyph-name="lozenge" unicode="&#x25ca;" horiz-adv-x="623" 
d="M576 350l-311 -357l-173 369l310 357zM523 356l-133 287l-245 -287l132 -289z" />
    <glyph glyph-name="fi" unicode="&#xfb01;" horiz-adv-x="520" 
d="M353 712l-9 -42h-32c-43 0 -76 -23 -87 -78l-22 -110h106l-7 -36h-106l-89 -446h-49l89 446h-62l7 36h62l22 110c21 104 89 120 132 120h45zM476 482l-96 -482h-49l96 482h49zM524 704l-12 -60h-60l12 60h60z" />
    <glyph glyph-name="fl" unicode="&#xfb02;" horiz-adv-x="559" 
d="M353 712l-9 -42h-32c-43 0 -76 -23 -87 -78l-22 -110h106l-7 -36h-106l-89 -446h-49l89 446h-62l7 36h62l22 110c21 104 89 120 132 120h45zM518 712l-118 -587c-3 -16 -5 -24 -5 -37c0 -28 14 -46 61 -46h37l-9 -42h-45c-33 0 -92 13 -92 86c0 13 1 26 4 39l118 587h49z
" />
    <glyph glyph-name="i.latn_TRK" horiz-adv-x="233" 
d="M189 482l-96 -482h-49l96 482h49zM237 704l-12 -60h-60l12 60h60z" />
    <glyph glyph-name="Ldot.latn_CAT" horiz-adv-x="545" 
d="M478 45l-9 -45h-413l143 712h52l-134 -667h361zM461 389l-12 -60h-60l12 60h60z" />
    <glyph glyph-name="ldot.latn_CAT" horiz-adv-x="275" 
d="M234 712l-118 -587c-3 -16 -5 -24 -5 -37c0 -28 14 -46 61 -46h37l-9 -42h-45c-33 0 -92 13 -92 86c0 13 1 26 4 39l118 587h49zM293 294l-12 -60h-60l12 60h60z" />
    <glyph glyph-name="zero.numr" horiz-adv-x="299" 
d="M334 622c0 -9 -1 -20 -3 -28l-38 -192c-19 -96 -85 -121 -133 -121c-49 0 -94 30 -94 94c0 9 1 20 3 28l38 192c19 96 85 121 132 121c50 0 95 -30 95 -94zM292 621c0 42 -27 57 -55 57c-36 0 -76 -20 -88 -82l-38 -193c-2 -9 -3 -17 -3 -26c0 -43 25 -58 54 -58
c36 0 77 20 89 83l38 193c2 9 3 17 3 26z" />
    <glyph glyph-name="one.numr" horiz-adv-x="299" 
d="M284 712l-86 -427h-41l75 376l-92 -70l10 53l92 68h42z" />
    <glyph glyph-name="two.numr" horiz-adv-x="299" 
d="M337 621c0 -51 -34 -94 -59 -120l-171 -178h175l-8 -38h-227l8 38l193 203c30 31 45 58 45 93c0 32 -15 59 -59 59c-59 0 -78 -40 -85 -76h-42c8 44 33 114 130 114c70 0 100 -45 100 -95z" />
    <glyph glyph-name="three.numr" horiz-adv-x="299" 
d="M327 618c0 -54 -26 -97 -75 -115c31 -16 45 -38 45 -87c0 -65 -41 -135 -139 -135c-83 0 -107 56 -107 92c0 10 0 16 1 21h43c-5 -47 18 -75 68 -75c39 0 92 27 92 97c0 42 -14 69 -67 69h-8l8 37h7c65 0 90 46 90 95c0 46 -29 61 -58 61c-45 0 -74 -19 -88 -72h-42
c20 80 69 110 131 110c59 0 99 -38 99 -98z" />
    <glyph glyph-name="four.numr" horiz-adv-x="299" 
d="M309 391l-7 -38h-51l-13 -68h-42l14 68h-164l8 38l207 321h47l-208 -321h117l24 121h42l-24 -121h50z" />
    <glyph glyph-name="five.numr" horiz-adv-x="299" 
d="M349 712l-8 -38h-168l-26 -134c21 20 43 27 75 27c60 0 87 -41 87 -90c0 -16 -2 -34 -5 -51c-9 -46 -20 -84 -46 -110c-22 -22 -53 -35 -92 -35c-69 0 -97 42 -97 90c0 2 0 9 1 16h40v-13c0 -31 17 -55 56 -55c63 0 85 49 96 107c3 16 5 32 5 46c0 33 -12 58 -54 58
c-36 0 -63 -14 -80 -43h-36l45 225h207z" />
    <glyph glyph-name="six.numr" horiz-adv-x="299" 
d="M297 420c0 -80 -56 -139 -124 -139c-77 0 -107 56 -107 108c0 38 12 67 45 116l138 207h48l-128 -191c10 3 18 6 32 6c61 0 96 -44 96 -107zM255 419c0 42 -22 73 -63 73c-59 0 -84 -57 -84 -100c0 -42 22 -73 63 -73c55 0 84 51 84 100z" />
    <glyph glyph-name="seven.numr" horiz-adv-x="299" 
d="M365 712l-7 -39l-214 -388h-49l214 388h-140l-14 -71h-43l22 110h231z" />
    <glyph glyph-name="eight.numr" horiz-adv-x="299" 
d="M335 618c0 -51 -29 -95 -73 -115c26 -19 41 -44 41 -85c0 -68 -46 -137 -139 -137c-55 0 -106 33 -106 103c0 57 28 101 83 125c-21 16 -36 38 -36 73c0 76 55 134 130 134c57 0 100 -37 100 -98zM261 419c0 42 -27 69 -66 69c-58 0 -95 -45 -95 -101
c0 -42 27 -68 66 -68c57 0 95 44 95 100zM293 617c0 36 -22 61 -60 61c-55 0 -86 -49 -86 -94c0 -36 22 -61 59 -61c56 0 87 49 87 94z" />
    <glyph glyph-name="nine.numr" horiz-adv-x="299" 
d="M333 608c0 -38 -12 -67 -45 -116l-138 -207h-48l128 192c-10 -4 -18 -7 -32 -7c-61 0 -96 44 -96 107c0 80 56 139 124 139c77 0 107 -55 107 -108zM291 605c0 40 -21 71 -63 71c-59 0 -84 -50 -84 -98c0 -40 21 -71 63 -71c59 0 84 50 84 98z" />
    <glyph glyph-name="zero.dnom" horiz-adv-x="299" 
d="M277 337c0 -9 -1 -20 -3 -28l-38 -192c-19 -96 -85 -121 -133 -121c-49 0 -94 30 -94 94c0 9 1 20 3 28l38 192c19 96 85 121 132 121c50 0 95 -30 95 -94zM235 336c0 42 -27 57 -55 57c-36 0 -76 -20 -88 -82l-38 -193c-2 -9 -3 -17 -3 -26c0 -43 25 -58 54 -58
c36 0 77 20 89 83l38 193c2 9 3 17 3 26z" />
    <glyph glyph-name="one.dnom" horiz-adv-x="299" 
d="M227 427l-86 -427h-41l75 376l-92 -70l10 53l92 68h42z" />
    <glyph glyph-name="two.dnom" horiz-adv-x="299" 
d="M280 336c0 -51 -34 -94 -59 -120l-171 -178h175l-8 -38h-227l8 38l193 203c30 31 45 58 45 93c0 32 -15 59 -59 59c-59 0 -78 -40 -85 -76h-42c8 44 33 114 130 114c70 0 100 -45 100 -95z" />
    <glyph glyph-name="three.dnom" horiz-adv-x="299" 
d="M271 333c0 -54 -26 -97 -75 -115c31 -16 45 -38 45 -87c0 -65 -41 -135 -139 -135c-83 0 -107 56 -107 92c0 10 0 16 1 21h43c-5 -47 18 -75 68 -75c39 0 92 27 92 97c0 42 -14 69 -67 69h-8l8 37h7c65 0 90 46 90 95c0 46 -29 61 -58 61c-45 0 -74 -19 -88 -72h-42
c20 80 69 110 131 110c59 0 99 -38 99 -98z" />
    <glyph glyph-name="four.dnom" horiz-adv-x="299" 
d="M252 106l-7 -38h-51l-13 -68h-42l14 68h-164l8 38l207 321h47l-208 -321h117l24 121h42l-24 -121h50z" />
    <glyph glyph-name="five.dnom" horiz-adv-x="299" 
d="M291 427l-8 -38h-168l-26 -134c21 20 43 27 75 27c60 0 87 -41 87 -90c0 -16 -2 -34 -5 -51c-9 -46 -20 -84 -46 -110c-22 -22 -53 -35 -92 -35c-69 0 -97 42 -97 90c0 2 0 9 1 16h40v-13c0 -31 17 -55 56 -55c63 0 85 49 96 107c3 16 5 32 5 46c0 33 -12 58 -54 58
c-36 0 -63 -14 -80 -43h-36l45 225h207z" />
    <glyph glyph-name="six.dnom" horiz-adv-x="299" 
d="M240 135c0 -80 -56 -139 -124 -139c-77 0 -107 56 -107 108c0 38 12 67 45 116l138 207h48l-128 -191c10 3 18 6 32 6c61 0 96 -44 96 -107zM198 134c0 42 -22 73 -63 73c-59 0 -84 -57 -84 -100c0 -42 22 -73 63 -73c55 0 84 51 84 100z" />
    <glyph glyph-name="seven.dnom" horiz-adv-x="299" 
d="M307 427l-7 -39l-214 -388h-49l214 388h-140l-14 -71h-43l22 110h231z" />
    <glyph glyph-name="eight.dnom" horiz-adv-x="299" 
d="M278 333c0 -51 -29 -95 -73 -115c26 -19 41 -44 41 -85c0 -68 -46 -137 -139 -137c-55 0 -106 33 -106 103c0 57 28 101 83 125c-21 16 -36 38 -36 73c0 76 55 134 130 134c57 0 100 -37 100 -98zM204 134c0 42 -27 69 -66 69c-58 0 -95 -45 -95 -101
c0 -42 27 -68 66 -68c57 0 95 44 95 100zM236 332c0 36 -22 61 -60 61c-55 0 -86 -49 -86 -94c0 -36 22 -61 59 -61c56 0 87 49 87 94z" />
    <glyph glyph-name="nine.dnom" horiz-adv-x="299" 
d="M276 323c0 -38 -12 -67 -45 -116l-138 -207h-48l128 192c-10 -4 -18 -7 -32 -7c-61 0 -96 44 -96 107c0 80 56 139 124 139c77 0 107 -55 107 -108zM234 320c0 40 -21 71 -63 71c-59 0 -84 -50 -84 -98c0 -40 21 -71 63 -71c59 0 84 50 84 98z" />
    <glyph glyph-name="space.frac" horiz-adv-x="48" 
 />
    <glyph glyph-name="zero.osf" horiz-adv-x="488" 
d="M460 454c0 -15 -2 -32 -5 -46l-44 -219c-32 -159 -142 -195 -213 -195c-69 0 -147 39 -147 149c0 15 2 32 5 46l44 219c32 159 142 195 213 195c69 0 147 -39 147 -149zM412 455c0 76 -50 106 -98 106c-66 0 -144 -39 -166 -153l-43 -219c-3 -15 -6 -30 -6 -47
c0 -76 50 -106 98 -106c66 0 144 39 166 153l43 219c3 15 6 30 6 47z" />
    <glyph glyph-name="one.osf" horiz-adv-x="333" 
d="M290 597l-120 -597h-48l108 538l-148 -114l12 63l147 110h49z" />
    <glyph glyph-name="two.osf" horiz-adv-x="466" 
d="M437 470c0 -82 -51 -143 -108 -194l-264 -234h313l-9 -42h-379l8 42l294 260c66 58 96 105 96 168c0 87 -62 111 -104 111c-62 0 -134 -25 -157 -133h-50c30 139 123 175 205 175c93 0 155 -53 155 -153z" />
    <glyph glyph-name="three.osf" horiz-adv-x="484" 
d="M446 454c0 -93 -47 -176 -131 -204c55 -19 82 -64 82 -131c0 -115 -79 -242 -231 -242c-116 0 -163 67 -163 152c0 6 0 15 1 24h47c-1 -7 -1 -13 -1 -21c0 -65 39 -113 116 -113c106 0 182 92 182 201c0 72 -38 107 -121 107h-14l8 42h15c98 0 162 86 162 186
c0 63 -38 106 -110 106c-73 0 -134 -54 -155 -129h-51c33 117 115 171 212 171c91 0 152 -53 152 -149z" />
    <glyph glyph-name="four.osf" 
d="M431 75l-9 -42h-93l-31 -156h-48l31 156h-289l8 42l364 550h53l-364 -550h236l44 222h49l-44 -222h93z" />
    <glyph glyph-name="five.osf" horiz-adv-x="480" 
d="M470 597l-9 -42h-282l-51 -253c38 37 77 51 136 51c97 0 139 -65 139 -144c0 -30 -4 -61 -10 -91c-15 -81 -36 -142 -78 -184c-35 -35 -82 -56 -142 -56c-117 0 -153 70 -153 142c0 3 0 12 1 22h48c-1 -8 -1 -15 -1 -22c0 -58 34 -100 100 -100c118 0 157 91 177 198
c5 28 9 58 9 85c0 62 -23 108 -96 108c-58 0 -111 -21 -145 -78h-41l73 364h325z" />
    <glyph glyph-name="six.osf" horiz-adv-x="493" 
d="M439 240c0 -121 -80 -246 -212 -246s-182 94 -182 189c0 65 16 119 79 204l251 341h55l-233 -310c19 9 40 14 70 14c111 0 172 -82 172 -192zM391 241c0 81 -44 150 -127 150c-121 0 -171 -124 -171 -206c0 -81 44 -150 127 -150c112 0 171 109 171 206z" />
    <glyph glyph-name="seven.osf" horiz-adv-x="459" 
d="M495 597l-8 -42l-418 -680h-52l418 680h-283l-21 -107h-48l29 149h383z" />
    <glyph glyph-name="eight.osf" horiz-adv-x="500" 
d="M492 566c0 -88 -47 -165 -128 -199c53 -37 75 -80 75 -147c0 -108 -71 -226 -226 -226c-84 0 -166 51 -166 164c0 100 48 175 146 215c-39 27 -64 65 -64 120c0 130 91 225 210 225c86 0 153 -57 153 -152zM391 223c0 80 -51 124 -120 124c-108 0 -176 -85 -176 -187
c0 -80 51 -124 120 -124c110 0 176 83 176 187zM444 566c0 67 -40 110 -108 110c-104 0 -159 -96 -159 -176c0 -67 40 -110 108 -110c104 0 159 96 159 176z" />
    <glyph glyph-name="nine.osf" horiz-adv-x="493" 
d="M472 414c0 -65 -16 -119 -79 -204l-251 -341h-55l233 310c-19 -9 -40 -14 -70 -14c-111 0 -172 82 -172 192c0 121 80 246 212 246s182 -94 182 -189zM424 412c0 81 -44 150 -127 150c-112 0 -171 -109 -171 -206c0 -81 44 -150 127 -150c121 0 171 124 171 206z" />
    <glyph glyph-name="zero.lf" horiz-adv-x="488" 
d="M483 569c0 -15 -2 -32 -5 -46l-66 -334c-31 -159 -142 -195 -213 -195c-69 0 -147 39 -147 149c0 15 2 32 5 46l66 334c31 159 142 195 213 195c69 0 147 -39 147 -149zM435 570c0 76 -50 106 -98 106c-66 0 -144 -40 -166 -153l-65 -334c-3 -15 -6 -30 -6 -47
c0 -76 50 -106 98 -106c66 0 144 40 166 153l65 334c3 15 6 30 6 47z" />
    <glyph glyph-name="one.lf" horiz-adv-x="355" 
d="M325 712l-143 -712h-48l131 653l-148 -114l12 63l147 110h49z" />
    <glyph glyph-name="two.lf" horiz-adv-x="466" 
d="M473 560c0 -80 -38 -130 -84 -180l-312 -338h302l-8 -42h-364l9 42l343 374c44 48 65 86 65 145c0 75 -40 115 -107 115c-71 0 -136 -39 -158 -142h-50c24 122 103 184 208 184c96 0 156 -56 156 -158z" />
    <glyph glyph-name="three.lf" horiz-adv-x="482" 
d="M465 570c0 -93 -47 -176 -131 -204c55 -19 82 -64 82 -131c0 -115 -79 -242 -231 -242c-116 0 -163 67 -163 152c0 6 0 15 1 24h47c-1 -7 -1 -13 -1 -21c0 -65 39 -113 116 -113c106 0 182 92 182 201c0 72 -38 107 -121 107h-14l8 42h15c98 0 162 86 162 186
c0 63 -38 106 -110 106c-73 0 -134 -54 -155 -129h-51c33 117 115 171 212 171c91 0 152 -53 152 -149z" />
    <glyph glyph-name="four.lf" horiz-adv-x="494" 
d="M443 162l-9 -42h-93l-24 -120h-48l24 120h-270l8 42l354 550h53l-353 -550h216l44 222h49l-44 -222h93z" />
    <glyph glyph-name="five.lf" horiz-adv-x="480" 
d="M502 712l-9 -42h-282l-51 -253c38 37 77 51 136 51c97 0 139 -65 139 -144c0 -30 -4 -61 -10 -91c-15 -81 -36 -142 -78 -184c-35 -35 -82 -56 -142 -56c-117 0 -153 70 -153 142c0 3 0 12 1 22h48c-1 -8 -1 -15 -1 -22c0 -58 34 -100 100 -100c118 0 157 91 177 198
c5 28 9 58 9 85c0 62 -23 108 -96 108c-58 0 -111 -21 -145 -78h-41l73 364h325z" />
    <glyph glyph-name="six.lf" horiz-adv-x="468" 
d="M408 220c0 -131 -94 -226 -196 -226c-121 0 -167 87 -167 174c0 60 18 106 72 187l238 357h51l-219 -329c17 7 34 13 60 13c104 0 161 -75 161 -176zM359 220c0 72 -39 134 -113 134c-108 0 -153 -111 -153 -184c0 -72 39 -134 113 -134c100 0 153 97 153 184z" />
    <glyph glyph-name="seven.lf" horiz-adv-x="459" 
d="M506 712l-8 -42l-367 -670h-53l368 670h-260l-21 -107h-48l29 149h360z" />
    <glyph glyph-name="eight.lf" horiz-adv-x="500" 
d="M490 566c0 -88 -47 -165 -128 -199c53 -37 75 -80 75 -147c0 -108 -71 -226 -226 -226c-84 0 -166 51 -166 164c0 100 48 175 146 215c-39 27 -64 65 -64 120c0 130 91 225 210 225c86 0 153 -57 153 -152zM389 223c0 80 -51 124 -120 124c-108 0 -176 -85 -176 -187
c0 -80 51 -124 120 -124c110 0 176 83 176 187zM442 566c0 67 -40 110 -108 110c-104 0 -159 -96 -159 -176c0 -67 40 -110 108 -110c104 0 159 96 159 176z" />
    <glyph glyph-name="nine.lf" horiz-adv-x="468" 
d="M469 544c0 -60 -18 -106 -72 -187l-238 -357h-51l219 329c-17 -7 -34 -13 -60 -13c-104 0 -161 75 -161 176c0 131 94 226 196 226c121 0 167 -87 167 -174zM421 542c0 72 -39 134 -113 134c-100 0 -153 -97 -153 -184c0 -72 39 -134 113 -134c108 0 153 111 153 184z
" />
    <glyph glyph-name="zero.tosf" horiz-adv-x="488" 
d="M460 454c0 -15 -2 -32 -5 -46l-44 -219c-32 -159 -142 -195 -213 -195c-69 0 -147 39 -147 149c0 15 2 32 5 46l44 219c32 159 142 195 213 195c69 0 147 -39 147 -149zM412 455c0 76 -50 106 -98 106c-66 0 -144 -39 -166 -153l-43 -219c-3 -15 -6 -30 -6 -47
c0 -76 50 -106 98 -106c66 0 144 39 166 153l43 219c3 15 6 30 6 47z" />
    <glyph glyph-name="one.tosf" horiz-adv-x="488" 
d="M365 597l-120 -597h-48l108 538l-148 -114l12 63l147 110h49z" />
    <glyph glyph-name="two.tosf" horiz-adv-x="488" 
d="M454 470c0 -82 -51 -143 -108 -194l-264 -234h313l-9 -42h-379l8 42l294 260c66 58 96 105 96 168c0 87 -62 111 -104 111c-62 0 -134 -25 -157 -133h-50c30 139 123 175 205 175c93 0 155 -53 155 -153z" />
    <glyph glyph-name="three.tosf" horiz-adv-x="488" 
d="M446 454c0 -93 -47 -176 -131 -204c55 -19 82 -64 82 -131c0 -115 -79 -242 -231 -242c-116 0 -163 67 -163 152c0 6 0 15 1 24h47c-1 -7 -1 -13 -1 -21c0 -65 39 -113 116 -113c106 0 182 92 182 201c0 72 -38 107 -121 107h-14l8 42h15c98 0 162 86 162 186
c0 63 -38 106 -110 106c-73 0 -134 -54 -155 -129h-51c33 117 115 171 212 171c91 0 152 -53 152 -149z" />
    <glyph glyph-name="four.tosf" horiz-adv-x="488" 
d="M430 75l-9 -42h-93l-31 -156h-48l31 156h-289l8 42l364 550h53l-364 -550h236l44 222h49l-44 -222h93z" />
    <glyph glyph-name="five.tosf" horiz-adv-x="488" 
d="M469 597l-9 -42h-282l-51 -253c38 37 77 51 136 51c97 0 139 -65 139 -144c0 -30 -4 -61 -10 -91c-15 -81 -36 -142 -78 -184c-35 -35 -82 -56 -142 -56c-117 0 -153 70 -153 142c0 3 0 12 1 22h48c-1 -8 -1 -15 -1 -22c0 -58 34 -100 100 -100c118 0 157 91 177 198
c5 28 9 58 9 85c0 62 -23 108 -96 108c-58 0 -111 -21 -145 -78h-41l73 364h325z" />
    <glyph glyph-name="six.tosf" horiz-adv-x="488" 
d="M436 240c0 -121 -80 -246 -212 -246s-182 94 -182 189c0 65 16 119 79 204l251 341h55l-233 -310c19 9 40 14 70 14c111 0 172 -82 172 -192zM388 241c0 81 -44 150 -127 150c-121 0 -171 -124 -171 -206c0 -81 44 -150 127 -150c112 0 171 109 171 206z" />
    <glyph glyph-name="seven.tosf" horiz-adv-x="488" 
d="M509 597l-8 -42l-418 -680h-52l418 680h-283l-21 -107h-48l29 149h383z" />
    <glyph glyph-name="eight.tosf" horiz-adv-x="488" 
d="M486 566c0 -88 -47 -165 -128 -199c53 -37 75 -80 75 -147c0 -108 -71 -226 -226 -226c-84 0 -166 51 -166 164c0 100 48 175 146 215c-39 27 -64 65 -64 120c0 130 91 225 210 225c86 0 153 -57 153 -152zM385 223c0 80 -51 124 -120 124c-108 0 -176 -85 -176 -187
c0 -80 51 -124 120 -124c110 0 176 83 176 187zM438 566c0 67 -40 110 -108 110c-104 0 -159 -96 -159 -176c0 -67 40 -110 108 -110c104 0 159 96 159 176z" />
    <glyph glyph-name="nine.tosf" horiz-adv-x="488" 
d="M469 414c0 -65 -16 -119 -79 -204l-251 -341h-55l233 310c-19 -9 -40 -14 -70 -14c-111 0 -172 82 -172 192c0 121 80 246 212 246s182 -94 182 -189zM421 412c0 81 -44 150 -127 150c-112 0 -171 -109 -171 -206c0 -81 44 -150 127 -150c121 0 171 124 171 206z" />
    <glyph glyph-name="uni2007.tosf" horiz-adv-x="488" 
 />
    <glyph glyph-name="hyphen.case" horiz-adv-x="405" 
d="M354 378l-9 -45h-249l9 45h249z" />
    <glyph glyph-name="exclamdown.case" horiz-adv-x="289" 
d="M211 525l-101 -525h-53l107 525h47zM254 712l-14 -67h-63l13 67h64z" />
    <glyph glyph-name="guillemotleft.case" horiz-adv-x="501" 
d="M288 552l-14 -69l-149 -131l99 -131l-12 -61l-149 196zM485 552l-14 -69l-150 -131l100 -131l-12 -61l-150 196z" />
    <glyph glyph-name="uni00AD.case" horiz-adv-x="405" 
d="M354 378l-9 -45h-249l9 45h249z" />
    <glyph glyph-name="guillemotright.case" horiz-adv-x="501" 
d="M288 356l-226 -196l14 69l150 131l-100 131l12 61zM484 356l-225 -196l14 69l149 131l-99 131l12 61z" />
    <glyph glyph-name="questiondown.case" horiz-adv-x="465" 
d="M378 166c-20 -102 -93 -172 -204 -172c-76 0 -142 52 -142 142c0 61 28 106 68 154l106 125c16 19 27 46 30 61l10 50h49l-10 -50c-8 -39 -19 -59 -46 -91l-104 -124c-36 -42 -54 -74 -54 -124c0 -54 34 -100 101 -100c71 0 129 49 146 129h50zM332 712l-13 -67h-63
l12 67h64z" />
    <glyph glyph-name="endash.case" horiz-adv-x="488" 
d="M465 378l-9 -44h-387l8 44h388z" />
    <glyph glyph-name="emdash.case" horiz-adv-x="829" 
d="M779 378l-9 -44h-674l9 44h674z" />
    <glyph glyph-name="afii00208.case" horiz-adv-x="829" 
d="M779 378l-9 -44h-674l9 44h674z" />
    <glyph glyph-name="guilsinglleft.case" horiz-adv-x="304" 
d="M288 552l-14 -69l-149 -131l99 -131l-12 -61l-149 196z" />
    <glyph glyph-name="guilsinglright.case" horiz-adv-x="304" 
d="M287 356l-225 -196l14 69l149 131l-99 131l12 61z" />
    <glyph glyph-name="caroncomma.ss01" horiz-adv-x="247" 
d="M644 712l-27 -128l-64 -56l38 184h53z" />
    <glyph glyph-name="commaaccent.ss01" horiz-adv-x="500" 
d="M253 -115c0 -71 -53 -106 -118 -106h-3l7 35c44 -1 71 27 71 67c0 29 -24 46 -48 48l7 35c53 -3 84 -40 84 -79z" />
    <glyph glyph-name="commaturn.ss01" horiz-adv-x="500" 
d="M378 734l-7 -35c-44 1 -71 -27 -71 -67c0 -29 24 -46 48 -48l-7 -35c-53 3 -84 40 -84 79c0 71 53 107 121 106z" />
    <glyph glyph-name="exclam.ss01" horiz-adv-x="289" 
d="M277 712l-107 -525h-47l101 525h53zM156 35c0 -22 -16 -38 -38 -38s-38 16 -38 38s16 38 38 38s38 -16 38 -38z" />
    <glyph glyph-name="period.ss01" horiz-adv-x="251" 
d="M130 41c0 -24 -20 -44 -44 -44s-44 20 -44 44s20 44 44 44s44 -20 44 -44z" />
    <glyph glyph-name="colon.ss01" horiz-adv-x="277" 
d="M216 341c0 -24 -20 -44 -44 -44s-44 20 -44 44s20 44 44 44s44 -20 44 -44zM157 41c0 -24 -20 -44 -44 -44s-44 20 -44 44s20 44 44 44s44 -20 44 -44z" />
    <glyph glyph-name="semicolon.ss01" horiz-adv-x="277" 
d="M153 68l-27 -136l-78 -68l40 204h65zM213 341c0 -24 -20 -44 -44 -44s-44 20 -44 44s20 44 44 44s44 -20 44 -44z" />
    <glyph glyph-name="question.ss01" horiz-adv-x="465" 
d="M479 576c0 -61 -28 -106 -68 -154l-106 -125c-16 -19 -27 -46 -30 -61l-10 -50h-49l10 50c8 39 19 59 46 91l104 124c36 42 54 74 54 124c0 54 -34 100 -101 100c-71 0 -129 -49 -146 -129h-50c20 102 93 172 204 172c76 0 142 -52 142 -142zM254 35
c0 -22 -16 -38 -38 -38s-38 16 -38 38s16 38 38 38s38 -16 38 -38z" />
    <glyph glyph-name="at.ss01" horiz-adv-x="929" 
d="M874 315c0 -157 -121 -291 -286 -291h-46l13 61c-32 -43 -73 -67 -127 -67c-77 0 -139 41 -139 144c0 26 4 59 8 79c14 77 41 139 83 176c38 33 80 46 120 46c68 0 103 -36 115 -73l14 67h43l-79 -394c135 0 233 123 233 252c0 181 -135 306 -316 306
c-207 0 -376 -171 -376 -384c0 -219 152 -389 384 -389h40l-9 -43h-39c-246 0 -426 186 -426 432c0 239 191 430 426 430c215 0 364 -142 364 -352zM591 321c0 75 -48 101 -93 101c-33 0 -67 -15 -90 -38c-28 -28 -49 -66 -64 -144c-6 -29 -9 -58 -9 -79
c0 -76 47 -102 92 -102c33 0 68 16 91 39c28 28 49 66 64 144c6 29 9 58 9 79z" />
    <glyph glyph-name="C.ss01" horiz-adv-x="566" 
d="M570 630l-38 -33c-37 48 -74 76 -143 76c-60 0 -109 -24 -149 -66c-43 -45 -59 -101 -89 -251c-21 -105 -25 -144 -25 -174c0 -90 74 -143 150 -143c67 0 117 26 169 76l31 -38c-62 -57 -123 -83 -204 -83c-102 0 -198 62 -198 188c0 29 3 69 25 174
c35 170 49 226 106 285c42 44 108 77 184 77c85 0 138 -33 181 -88z" />
    <glyph glyph-name="G.ss01" horiz-adv-x="616" 
d="M580 619l-38 -33c-40 50 -77 87 -152 87c-61 0 -110 -24 -150 -66c-43 -45 -59 -101 -89 -251c-21 -105 -25 -144 -25 -174c0 -90 74 -143 151 -143c79 0 184 53 216 211l14 69h-182l8 45h234l-23 -117c-15 -77 -42 -133 -86 -177c-40 -40 -102 -76 -185 -76
c-103 0 -199 62 -199 188c0 29 3 69 25 174c35 170 49 226 106 285c42 44 108 77 186 77c88 0 140 -36 189 -99z" />
    <glyph glyph-name="a.ss01" horiz-adv-x="525" 
d="M481 482l-96 -482h-48l14 68c-36 -48 -81 -74 -141 -74c-86 0 -155 46 -155 160c0 29 5 65 9 87c16 85 46 155 93 196c42 37 89 51 133 51c75 0 115 -40 128 -81l15 75h48zM394 330c0 86 -54 116 -106 116c-38 0 -77 -18 -103 -44c-32 -32 -55 -74 -72 -161
c-6 -32 -10 -65 -10 -89c0 -86 54 -116 106 -116c38 0 77 18 103 44c32 32 55 74 72 161c6 32 10 65 10 89z" />
    <glyph glyph-name="i.ss01" horiz-adv-x="233" 
d="M190 482l-96 -482h-49l96 482h49zM240 681c0 -21 -17 -38 -37 -38c-21 0 -38 17 -38 37c0 21 17 38 37 38c21 0 38 -17 38 -37z" />
    <glyph glyph-name="j.ss01" horiz-adv-x="233" 
d="M189 482l-118 -592c-17 -87 -69 -120 -135 -120h-41l8 42h30c63 0 83 48 90 84l117 586h49zM240 681c0 -21 -17 -38 -37 -38c-21 0 -38 17 -38 37c0 21 17 38 37 38c21 0 38 -17 38 -37z" />
    <glyph glyph-name="exclamdown.ss01" horiz-adv-x="289" 
d="M165 295l-101 -525h-53l107 525h47zM208 447c0 -22 -16 -38 -38 -38s-38 16 -38 38s16 38 38 38s38 -16 38 -38z" />
    <glyph glyph-name="dieresis.ss01" horiz-adv-x="475" 
d="M280 631c0 -21 -17 -38 -38 -38s-38 17 -38 38s17 38 38 38s38 -17 38 -38zM476 631c0 -21 -17 -38 -38 -38s-38 17 -38 38s17 38 38 38s38 -17 38 -38z" />
    <glyph glyph-name="ordfeminine.ss01" horiz-adv-x="445" 
d="M448 712l-76 -386h-41l11 52c-31 -43 -71 -57 -116 -57c-38 0 -121 16 -121 128c0 23 4 52 7 70c13 68 36 124 74 157c34 29 72 41 107 41c54 0 88 -24 103 -62l11 57h41zM375 589c0 68 -44 89 -84 89s-67 -20 -80 -33c-29 -29 -47 -75 -57 -126c-5 -24 -7 -51 -7 -70
c0 -68 43 -89 83 -89s66 20 79 33c29 29 49 75 59 126c5 23 7 50 7 70z" />
    <glyph glyph-name="periodcentered.ss01" horiz-adv-x="251" 
d="M173 260c0 -24 -20 -44 -44 -44s-44 20 -44 44s20 44 44 44s44 -20 44 -44z" />
    <glyph glyph-name="cedilla.ss01" horiz-adv-x="500" 
d="M253 -115c0 -71 -53 -107 -121 -106l7 35c44 -1 71 27 71 67c0 29 -24 46 -48 48l7 35c53 -3 84 -40 84 -79z" />
    <glyph glyph-name="questiondown.ss01" horiz-adv-x="465" 
d="M331 -64c-20 -102 -93 -172 -204 -172c-76 0 -142 52 -142 142c0 61 28 106 68 154l106 125c16 19 27 46 30 61l10 50h49l-10 -50c-8 -39 -19 -59 -46 -91l-104 -124c-36 -42 -54 -74 -54 -124c0 -54 34 -100 101 -100c71 0 129 49 146 129h50zM286 447
c0 -22 -16 -38 -38 -38s-38 16 -38 38s16 38 38 38s38 -16 38 -38z" />
    <glyph glyph-name="Adieresis.ss01" horiz-adv-x="572" 
d="M510 0h-53l-25 173h-314l-94 -173h-57l390 712h46zM427 218l-60 422l-226 -422h286zM334 822c0 -21 -17 -38 -38 -38s-38 17 -38 38s17 38 38 38s38 -17 38 -38zM530 822c0 -21 -17 -38 -38 -38s-38 17 -38 38s17 38 38 38s38 -17 38 -38z" />
    <glyph glyph-name="Ccedilla.ss01" horiz-adv-x="566" 
d="M570 630l-38 -33c-37 48 -74 76 -143 76c-60 0 -109 -24 -149 -66c-43 -45 -59 -101 -89 -251c-21 -105 -25 -144 -25 -174c0 -90 74 -143 150 -143c67 0 117 26 169 76l31 -38c-62 -57 -123 -83 -204 -83c-102 0 -198 62 -198 188c0 29 3 69 25 174
c35 170 49 226 106 285c42 44 108 77 184 77c85 0 138 -33 181 -88zM317 -115c0 -71 -53 -107 -121 -106l7 35c44 -1 71 27 71 67c0 29 -24 46 -48 48l7 35c53 -3 84 -40 84 -79z" />
    <glyph glyph-name="Edieresis.ss01" horiz-adv-x="570" 
d="M358 822c0 -21 -17 -38 -38 -38s-38 17 -38 38s17 38 38 38s38 -17 38 -38zM554 822c0 -21 -17 -38 -38 -38s-38 17 -38 38s17 38 38 38s38 -17 38 -38zM609 712l-9 -45h-358l-57 -285h307l-9 -45h-307l-59 -292h365l-9 -45h-417l143 712h410z" />
    <glyph glyph-name="Idieresis.ss01" horiz-adv-x="260" 
d="M251 712l-143 -712h-52l143 712h52zM181 822c0 -21 -17 -38 -38 -38s-38 17 -38 38s17 38 38 38s38 -17 38 -38zM377 822c0 -21 -17 -38 -38 -38s-38 17 -38 38s17 38 38 38s38 -17 38 -38z" />
    <glyph glyph-name="Odieresis.ss01" horiz-adv-x="619" 
d="M587 530c0 -31 -4 -69 -25 -174c-34 -169 -51 -228 -105 -284c-45 -47 -109 -78 -190 -78c-108 0 -193 68 -193 188c0 31 4 69 25 174c34 169 51 228 105 284c45 47 109 78 190 78c108 0 193 -68 193 -188zM535 527c0 98 -70 146 -143 146c-62 0 -111 -23 -152 -66
c-39 -41 -58 -94 -89 -251c-21 -105 -25 -141 -25 -171c0 -98 70 -146 143 -146c62 0 111 23 152 66c39 41 58 94 89 251c21 105 25 141 25 171zM358 822c0 -21 -17 -38 -38 -38s-38 17 -38 38s17 38 38 38s38 -17 38 -38zM554 822c0 -21 -17 -38 -38 -38s-38 17 -38 38
s17 38 38 38s38 -17 38 -38z" />
    <glyph glyph-name="Udieresis.ss01" horiz-adv-x="654" 
d="M653 712l-96 -481c-30 -149 -133 -237 -276 -237c-86 0 -192 52 -192 190c0 22 4 45 7 61l93 467h52l-95 -474c-2 -11 -5 -35 -5 -53c0 -69 40 -146 146 -146c95 0 193 63 221 203l93 470h52zM379 822c0 -21 -17 -38 -38 -38s-38 17 -38 38s17 38 38 38s38 -17 38 -38z
M575 822c0 -21 -17 -38 -38 -38s-38 17 -38 38s17 38 38 38s38 -17 38 -38z" />
    <glyph glyph-name="agrave.ss01" horiz-adv-x="525" 
d="M481 482l-96 -482h-48l14 68c-36 -48 -81 -74 -141 -74c-86 0 -155 46 -155 160c0 29 5 65 9 87c16 85 46 155 93 196c42 37 89 51 133 51c75 0 115 -40 128 -81l15 75h48zM394 330c0 86 -54 116 -106 116c-38 0 -77 -18 -103 -44c-32 -32 -55 -74 -72 -161
c-6 -32 -10 -65 -10 -89c0 -86 54 -116 106 -116c38 0 77 18 103 44c32 32 55 74 72 161c6 32 10 65 10 89zM329 584h-52l-71 145h61z" />
    <glyph glyph-name="aacute.ss01" horiz-adv-x="525" 
d="M481 482l-96 -482h-48l14 68c-36 -48 -81 -74 -141 -74c-86 0 -155 46 -155 160c0 29 5 65 9 87c16 85 46 155 93 196c42 37 89 51 133 51c75 0 115 -40 128 -81l15 75h48zM394 330c0 86 -54 116 -106 116c-38 0 -77 -18 -103 -44c-32 -32 -55 -74 -72 -161
c-6 -32 -10 -65 -10 -89c0 -86 54 -116 106 -116c38 0 77 18 103 44c32 32 55 74 72 161c6 32 10 65 10 89zM441 729l-127 -145h-58l120 145h65z" />
    <glyph glyph-name="acircumflex.ss01" horiz-adv-x="525" 
d="M481 482l-96 -482h-48l14 68c-36 -48 -81 -74 -141 -74c-86 0 -155 46 -155 160c0 29 5 65 9 87c16 85 46 155 93 196c42 37 89 51 133 51c75 0 115 -40 128 -81l15 75h48zM394 330c0 86 -54 116 -106 116c-38 0 -77 -18 -103 -44c-32 -32 -55 -74 -72 -161
c-6 -32 -10 -65 -10 -89c0 -86 54 -116 106 -116c38 0 77 18 103 44c32 32 55 74 72 161c6 32 10 65 10 89zM444 584h-51l-67 111l-112 -111h-57l146 147h52z" />
    <glyph glyph-name="atilde.ss01" horiz-adv-x="525" 
d="M481 482l-96 -482h-48l14 68c-36 -48 -81 -74 -141 -74c-86 0 -155 46 -155 160c0 29 5 65 9 87c16 85 46 155 93 196c42 37 89 51 133 51c75 0 115 -40 128 -81l15 75h48zM394 330c0 86 -54 116 -106 116c-38 0 -77 -18 -103 -44c-32 -32 -55 -74 -72 -161
c-6 -32 -10 -65 -10 -89c0 -86 54 -116 106 -116c38 0 77 18 103 44c32 32 55 74 72 161c6 32 10 65 10 89zM458 645c-34 -32 -62 -46 -91 -46c-26 0 -48 11 -66 25c-22 17 -30 20 -51 20c-19 0 -35 -10 -62 -35l-24 30c34 32 62 46 91 46c26 0 48 -11 66 -25
c22 -17 30 -20 51 -20c19 0 35 10 62 35z" />
    <glyph glyph-name="adieresis.ss01" horiz-adv-x="525" 
d="M481 482l-96 -482h-48l14 68c-36 -48 -81 -74 -141 -74c-86 0 -155 46 -155 160c0 29 5 65 9 87c16 85 46 155 93 196c42 37 89 51 133 51c75 0 115 -40 128 -81l15 75h48zM394 330c0 86 -54 116 -106 116c-38 0 -77 -18 -103 -44c-32 -32 -55 -74 -72 -161
c-6 -32 -10 -65 -10 -89c0 -86 54 -116 106 -116c38 0 77 18 103 44c32 32 55 74 72 161c6 32 10 65 10 89zM266 631c0 -21 -17 -38 -38 -38s-38 17 -38 38s17 38 38 38s38 -17 38 -38zM462 631c0 -21 -17 -38 -38 -38s-38 17 -38 38s17 38 38 38s38 -17 38 -38z" />
    <glyph glyph-name="aring.ss01" horiz-adv-x="525" 
d="M481 482l-96 -482h-48l14 68c-36 -48 -81 -74 -141 -74c-86 0 -155 46 -155 160c0 29 5 65 9 87c16 85 46 155 93 196c42 37 89 51 133 51c75 0 115 -40 128 -81l15 75h48zM394 330c0 86 -54 116 -106 116c-38 0 -77 -18 -103 -44c-32 -32 -55 -74 -72 -161
c-6 -32 -10 -65 -10 -89c0 -86 54 -116 106 -116c38 0 77 18 103 44c32 32 55 74 72 161c6 32 10 65 10 89zM434 677c0 -63 -51 -115 -114 -115s-114 52 -114 115s51 114 114 114s114 -51 114 -114zM395 677c0 40 -35 74 -75 74s-75 -34 -75 -74s35 -75 75 -75s75 35 75 75z
" />
    <glyph glyph-name="ae.ss01" horiz-adv-x="822" 
d="M763 326c0 -21 -4 -58 -11 -95h-319c-4 -23 -7 -45 -7 -71c0 -70 34 -123 113 -123c61 0 100 20 144 60l33 -33c-52 -48 -105 -70 -179 -70c-56 0 -110 17 -136 82l-15 -76h-46l15 70c-30 -46 -73 -76 -146 -76c-49 0 -154 20 -154 160c0 29 5 65 9 87
c16 85 46 155 93 196c42 37 89 51 133 51c70 0 111 -30 131 -80l15 74h46l-13 -66c48 66 98 72 144 72c103 0 150 -76 150 -162zM397 328c0 88 -56 118 -108 118c-51 0 -87 -27 -104 -43c-38 -37 -59 -96 -72 -162c-6 -33 -10 -60 -10 -87c0 -88 55 -118 107 -118
c51 0 87 27 104 43c38 37 59 96 72 162c6 29 11 61 11 87zM715 326c0 85 -50 120 -103 120c-80 0 -141 -56 -172 -176h270c3 18 5 32 5 56z" />
    <glyph glyph-name="ccedilla.ss01" horiz-adv-x="469" 
d="M445 414l-36 -29c-29 43 -59 61 -107 61c-42 0 -85 -16 -122 -55c-39 -42 -60 -101 -69 -150c-5 -27 -8 -49 -8 -76c0 -94 61 -129 120 -129c52 0 89 19 131 63l30 -35c-48 -49 -104 -70 -161 -70c-123 0 -168 85 -168 174c0 18 2 48 7 73c27 145 110 247 245 247
c66 0 106 -28 138 -74zM253 -115c0 -71 -53 -107 -121 -106l7 35c44 -1 71 27 71 67c0 29 -24 46 -48 48l7 35c53 -3 84 -40 84 -79z" />
    <glyph glyph-name="edieresis.ss01" horiz-adv-x="499" 
d="M440 326c0 -21 -4 -58 -11 -95h-319c-4 -23 -7 -45 -7 -71c0 -70 34 -123 113 -123c61 0 100 20 144 60l33 -33c-52 -48 -105 -70 -179 -70c-99 0 -159 60 -159 165c0 137 62 329 235 329c103 0 150 -76 150 -162zM392 326c0 85 -50 120 -103 120
c-80 0 -141 -56 -172 -176h270c3 18 5 32 5 56zM281 631c0 -21 -17 -38 -38 -38s-38 17 -38 38s17 38 38 38s38 -17 38 -38zM477 631c0 -21 -17 -38 -38 -38s-38 17 -38 38s17 38 38 38s38 -17 38 -38z" />
    <glyph glyph-name="idieresis.ss01" horiz-adv-x="233" 
d="M189 482l-96 -482h-49l96 482h49zM135 631c0 -21 -17 -38 -38 -38s-38 17 -38 38s17 38 38 38s38 -17 38 -38zM331 631c0 -21 -17 -38 -38 -38s-38 17 -38 38s17 38 38 38s38 -17 38 -38z" />
    <glyph glyph-name="odieresis.ss01" 
d="M442 330c0 -29 -5 -68 -9 -89c-21 -108 -55 -163 -93 -196c-42 -37 -86 -51 -133 -51c-75 0 -152 41 -152 158c0 29 5 68 9 89c21 108 55 163 93 196c42 37 86 51 133 51c75 0 152 -41 152 -158zM394 328c0 86 -52 118 -107 118c-38 0 -76 -17 -102 -43
c-32 -32 -55 -75 -72 -162c-6 -32 -10 -64 -10 -87c0 -86 52 -118 107 -118c38 0 76 17 102 43c32 32 55 75 72 162c6 32 10 64 10 87zM280 631c0 -21 -17 -38 -38 -38s-38 17 -38 38s17 38 38 38s38 -17 38 -38zM476 631c0 -21 -17 -38 -38 -38s-38 17 -38 38s17 38 38 38
s38 -17 38 -38z" />
    <glyph glyph-name="divide.ss01" horiz-adv-x="488" 
d="M261 96c0 -24 -20 -44 -44 -44s-44 20 -44 44s20 44 44 44s44 -20 44 -44zM447 287l-9 -47h-388l10 47h387zM325 431c0 -24 -20 -44 -44 -44s-44 20 -44 44s20 44 44 44s44 -20 44 -44z" />
    <glyph glyph-name="udieresis.ss01" horiz-adv-x="531" 
d="M486 482l-96 -482h-49l11 57c-33 -39 -78 -63 -146 -63c-82 0 -139 53 -139 137c0 15 2 31 5 46l61 305h49l-60 -299c-3 -15 -6 -34 -6 -51c0 -65 42 -96 100 -96c35 0 135 16 162 150l59 296h49zM293 631c0 -21 -17 -38 -38 -38s-38 17 -38 38s17 38 38 38
s38 -17 38 -38zM489 631c0 -21 -17 -38 -38 -38s-38 17 -38 38s17 38 38 38s38 -17 38 -38z" />
    <glyph glyph-name="ydieresis.ss01" horiz-adv-x="408" 
d="M441 482l-329 -614c-18 -34 -30 -47 -42 -58c-21 -19 -48 -28 -93 -28h-25l9 42h19c52 0 68 16 96 70l56 107l-71 481h50l56 -421l219 421h55zM229 631c0 -21 -17 -38 -38 -38s-38 17 -38 38s17 38 38 38s38 -17 38 -38zM425 631c0 -21 -17 -38 -38 -38s-38 17 -38 38
s17 38 38 38s38 -17 38 -38z" />
    <glyph glyph-name="amacron.ss01" horiz-adv-x="525" 
d="M481 482l-96 -482h-48l14 68c-36 -48 -81 -74 -141 -74c-86 0 -155 46 -155 160c0 29 5 65 9 87c16 85 46 155 93 196c42 37 89 51 133 51c75 0 115 -40 128 -81l15 75h48zM394 330c0 86 -54 116 -106 116c-38 0 -77 -18 -103 -44c-32 -32 -55 -74 -72 -161
c-6 -32 -10 -65 -10 -89c0 -86 54 -116 106 -116c38 0 77 18 103 44c32 32 55 74 72 161c6 32 10 65 10 89zM460 653l-9 -43h-281l9 43h281z" />
    <glyph glyph-name="abreve.ss01" horiz-adv-x="525" 
d="M481 482l-96 -482h-48l14 68c-36 -48 -81 -74 -141 -74c-86 0 -155 46 -155 160c0 29 5 65 9 87c16 85 46 155 93 196c42 37 89 51 133 51c75 0 115 -40 128 -81l15 75h48zM394 330c0 86 -54 116 -106 116c-38 0 -77 -18 -103 -44c-32 -32 -55 -74 -72 -161
c-6 -32 -10 -65 -10 -89c0 -86 54 -116 106 -116c38 0 77 18 103 44c32 32 55 74 72 161c6 32 10 65 10 89zM460 695c-20 -83 -71 -118 -151 -118c-72 0 -120 31 -120 97c0 3 0 10 1 21h44c-1 -10 -1 -15 -1 -19c0 -36 29 -57 81 -57c59 0 90 27 102 76h44z" />
    <glyph glyph-name="Aogonek.ss01" horiz-adv-x="572" 
d="M510 0h-53l-25 173h-314l-94 -173h-57l390 712h46zM427 218l-60 422l-226 -422h286zM495 -38l-7 -35c-44 1 -71 -27 -71 -67c0 -29 24 -46 48 -48l-7 -35c-53 3 -84 40 -84 79c0 71 53 106 118 106h3z" />
    <glyph glyph-name="aogonek.ss01" horiz-adv-x="525" 
d="M481 482l-96 -482h-48l14 68c-36 -48 -81 -74 -141 -74c-86 0 -155 46 -155 160c0 29 5 65 9 87c16 85 46 155 93 196c42 37 89 51 133 51c75 0 115 -40 128 -81l15 75h48zM394 330c0 86 -54 116 -106 116c-38 0 -77 -18 -103 -44c-32 -32 -55 -74 -72 -161
c-6 -32 -10 -65 -10 -89c0 -86 54 -116 106 -116c38 0 77 18 103 44c32 32 55 74 72 161c6 32 10 65 10 89zM370 -38l-7 -35c-44 1 -71 -27 -71 -67c0 -29 24 -46 48 -48l-7 -35c-53 3 -84 40 -84 79c0 71 53 106 118 106h3z" />
    <glyph glyph-name="Cacute.ss01" horiz-adv-x="566" 
d="M570 630l-38 -33c-37 48 -74 76 -143 76c-60 0 -109 -24 -149 -66c-43 -45 -59 -101 -89 -251c-21 -105 -25 -144 -25 -174c0 -90 74 -143 150 -143c67 0 117 26 169 76l31 -38c-62 -57 -123 -83 -204 -83c-102 0 -198 62 -198 188c0 29 3 69 25 174
c35 170 49 226 106 285c42 44 108 77 184 77c85 0 138 -33 181 -88zM543 919l-127 -145h-58l120 145h65z" />
    </font>
</defs>
</svg>
